<?xml version="1.0" encoding="utf-8"?>
<!-- Generator: Adobe Illustrator 24.0.2, SVG Export Plug-In . SVG Version: 6.00 Build 0)  -->
<svg version="1.1" xmlns="http://www.w3.org/2000/svg" xmlns:xlink="http://www.w3.org/1999/xlink" x="0px" y="0px"
	 viewBox="0 0 512 512" style="enable-background:new 0 0 512 512;" xml:space="preserve">
<style type="text/css">
	.st0{fill:url(#SVGID_1_);}
	.st1{fill:url(#SVGID_2_);}
	.st2{fill:url(#SVGID_3_);}
	.st3{fill:url(#SVGID_4_);}
	.st4{fill:url(#SVGID_5_);}
	.st5{fill:url(#SVGID_6_);}
	.st6{fill:url(#SVGID_7_);}
	.st7{fill:url(#SVGID_8_);}
	.st8{fill:url(#SVGID_9_);}
	.st9{fill:url(#SVGID_10_);}
	.st10{fill:url(#SVGID_11_);}
	.st11{fill:url(#SVGID_12_);}
	.st12{fill:url(#SVGID_13_);}
	.st13{fill:url(#SVGID_14_);}
	.st14{fill:url(#SVGID_15_);}
	.st15{fill:url(#SVGID_16_);}
	.st16{fill:url(#SVGID_17_);}
	.st17{fill:url(#SVGID_18_);}
	.st18{fill:url(#SVGID_19_);}
	.st19{fill:url(#SVGID_20_);}
	.st20{fill:url(#SVGID_21_);}
	.st21{fill:url(#SVGID_22_);}
	.st22{fill:url(#SVGID_23_);}
	.st23{fill:url(#SVGID_24_);}
	.st24{fill:url(#SVGID_25_);}
	.st25{fill:url(#SVGID_26_);}
	.st26{fill:#943EC7;}
	.st27{fill:#BC85DE;}
	.st28{fill:#D0A1ED;}
	.st29{fill:#3C3C3B;}
</style>
<g id="Ebene_2">
</g>
<g id="Capa_1">
	<g>
		<path d="M335.2,116.5l13.2,52.2c1.9,7.3,12.2,7.5,14.3,0.3L393,65.3c0.3-1.1,0.4-2.3,0.2-3.3l-27,11.3L335.2,116.5z"/>
		<linearGradient id="SVGID_1_" gradientUnits="userSpaceOnUse" x1="364.2832" y1="46.5761" x2="364.2832" y2="468.113">
			<stop  offset="0" style="stop-color:#3FD1FF"/>
			<stop  offset="1" style="stop-color:#FF2AEE"/>
		</linearGradient>
		<path class="st0" d="M335.2,116.5l13.2,52.2c1.9,7.3,12.2,7.5,14.3,0.3L393,65.3c0.3-1.1,0.4-2.3,0.2-3.3l-27,11.3L335.2,116.5z"
			/>
		<path d="M497,208.6v-50.4c0-5.8-6.3-9.3-11.3-6.3L381.1,216h108.5C493.7,216,497,212.7,497,208.6z M489.1,206.7h-15V169h15V206.7z
			"/>
		<linearGradient id="SVGID_2_" gradientUnits="userSpaceOnUse" x1="439.0715" y1="46.5761" x2="439.0715" y2="468.113">
			<stop  offset="0" style="stop-color:#3FD1FF"/>
			<stop  offset="1" style="stop-color:#FF2AEE"/>
		</linearGradient>
		<path class="st1" d="M497,208.6v-50.4c0-5.8-6.3-9.3-11.3-6.3L381.1,216h108.5C493.7,216,497,212.7,497,208.6z M489.1,206.7h-15
			V169h15V206.7z"/>
		<path d="M475.9,243.5c4.4-4.7,1-12.4-5.4-12.4h-97.8c-4.7,0-8.2,4.3-7.3,8.8l4.4,22.8l68.4,21.6L475.9,243.5z"/>
		<linearGradient id="SVGID_3_" gradientUnits="userSpaceOnUse" x1="421.5428" y1="46.5761" x2="421.5428" y2="468.113">
			<stop  offset="0" style="stop-color:#3FD1FF"/>
			<stop  offset="1" style="stop-color:#FF2AEE"/>
		</linearGradient>
		<path class="st2" d="M475.9,243.5c4.4-4.7,1-12.4-5.4-12.4h-97.8c-4.7,0-8.2,4.3-7.3,8.8l4.4,22.8l68.4,21.6L475.9,243.5z"/>
		<path d="M395.1,330.9l43.1-46.7l-68.4-21.6l12.6,64.7C383.5,333.3,391,335.4,395.1,330.9z"/>
		<linearGradient id="SVGID_4_" gradientUnits="userSpaceOnUse" x1="403.9929" y1="46.5761" x2="403.9929" y2="468.113">
			<stop  offset="0" style="stop-color:#3FD1FF"/>
			<stop  offset="1" style="stop-color:#FF2AEE"/>
		</linearGradient>
		<path class="st3" d="M395.1,330.9l43.1-46.7l-68.4-21.6l12.6,64.7C383.5,333.3,391,335.4,395.1,330.9z"/>
		<polygon points="103.3,274.9 133.5,307.6 142.2,262.6 		"/>
		<linearGradient id="SVGID_5_" gradientUnits="userSpaceOnUse" x1="122.7659" y1="46.5761" x2="122.7659" y2="468.113">
			<stop  offset="0" style="stop-color:#3FD1FF"/>
			<stop  offset="1" style="stop-color:#FF2AEE"/>
		</linearGradient>
		<polygon class="st4" points="103.3,274.9 133.5,307.6 142.2,262.6 		"/>
		<path d="M163.8,169.4l13.6-52.1l-41.9-58.3l-6.5-2.7c-1.5-0.6-3.1-0.7-4.5-0.4c-0.3,3.5-1.8,6.9-4.6,9.6l-0.6,0.6l30.3,103.5
			C151.6,176.8,161.9,176.7,163.8,169.4z"/>
		<linearGradient id="SVGID_6_" gradientUnits="userSpaceOnUse" x1="148.2639" y1="46.5761" x2="148.2639" y2="468.113">
			<stop  offset="0" style="stop-color:#3FD1FF"/>
			<stop  offset="1" style="stop-color:#FF2AEE"/>
		</linearGradient>
		<path class="st5" d="M163.8,169.4l13.6-52.1l-41.9-58.3l-6.5-2.7c-1.5-0.6-3.1-0.7-4.5-0.4c-0.3,3.5-1.8,6.9-4.6,9.6l-0.6,0.6
			l30.3,103.5C151.6,176.8,161.9,176.7,163.8,169.4z"/>
		<path d="M142.2,262.6l4.4-22.8c0.9-4.6-2.6-8.8-7.3-8.8H62.8l40.6,43.9L142.2,262.6z"/>
		<linearGradient id="SVGID_7_" gradientUnits="userSpaceOnUse" x1="104.7673" y1="46.5761" x2="104.7673" y2="468.113">
			<stop  offset="0" style="stop-color:#3FD1FF"/>
			<stop  offset="1" style="stop-color:#FF2AEE"/>
		</linearGradient>
		<path class="st6" d="M142.2,262.6l4.4-22.8c0.9-4.6-2.6-8.8-7.3-8.8H62.8l40.6,43.9L142.2,262.6z"/>
		<path d="M108.5,202.3l-54.1-33.1l0,23h14.4v15H54.4l0,8.7c0,0.1,0,0.1,0,0.2h50.2C112.1,216,114.8,206.2,108.5,202.3z"/>
		<linearGradient id="SVGID_8_" gradientUnits="userSpaceOnUse" x1="83.1874" y1="46.5761" x2="83.1874" y2="468.113">
			<stop  offset="0" style="stop-color:#3FD1FF"/>
			<stop  offset="1" style="stop-color:#FF2AEE"/>
		</linearGradient>
		<path class="st7" d="M108.5,202.3l-54.1-33.1l0,23h14.4v15H54.4l0,8.7c0,0.1,0,0.1,0,0.2h50.2C112.1,216,114.8,206.2,108.5,202.3z
			"/>
		<path d="M185.3,86.5c0.9-3.6-0.9-7.3-4.3-8.7l-45.6-18.8l41.9,58.3L185.3,86.5z"/>
		<linearGradient id="SVGID_9_" gradientUnits="userSpaceOnUse" x1="160.4812" y1="46.5761" x2="160.4812" y2="468.113">
			<stop  offset="0" style="stop-color:#3FD1FF"/>
			<stop  offset="1" style="stop-color:#FF2AEE"/>
		</linearGradient>
		<path class="st8" d="M185.3,86.5c0.9-3.6-0.9-7.3-4.3-8.7l-45.6-18.8l41.9,58.3L185.3,86.5z"/>
		<polygon points="366.3,73.3 328.3,89.2 335.2,116.5 		"/>
		<linearGradient id="SVGID_10_" gradientUnits="userSpaceOnUse" x1="347.2927" y1="46.5761" x2="347.2927" y2="468.113">
			<stop  offset="0" style="stop-color:#3FD1FF"/>
			<stop  offset="1" style="stop-color:#FF2AEE"/>
		</linearGradient>
		<polygon class="st9" points="366.3,73.3 328.3,89.2 335.2,116.5 		"/>
		<path d="M333.2,231h-62.3c-0.3,0-0.6,0-0.9,0.1l66.2,20.9l4-11C341.9,236.1,338.4,231,333.2,231z"/>
		<linearGradient id="SVGID_11_" gradientUnits="userSpaceOnUse" x1="305.2998" y1="46.5761" x2="305.2998" y2="468.113">
			<stop  offset="0" style="stop-color:#3FD1FF"/>
			<stop  offset="1" style="stop-color:#FF2AEE"/>
		</linearGradient>
		<path class="st10" d="M333.2,231h-62.3c-0.3,0-0.6,0-0.9,0.1l66.2,20.9l4-11C341.9,236.1,338.4,231,333.2,231z"/>
		<linearGradient id="SVGID_12_" gradientUnits="userSpaceOnUse" x1="305.2998" y1="468.6633" x2="305.2998" y2="80.3652">
			<stop  offset="0" style="stop-color:#3FD1FF"/>
			<stop  offset="1" style="stop-color:#FF2AEE"/>
		</linearGradient>
		<path class="st11" d="M333.2,231h-62.3c-0.3,0-0.6,0-0.9,0.1l66.2,20.9l4-11C341.9,236.1,338.4,231,333.2,231z"/>
		<path d="M278.3,216h57.1c4.8,0,8.4-4.5,7.2-9.2l-18.8-74.4l-17.9,24.9l9.3-2.4l10.2,40.5l-14.5,3.7l-9.1-36.2l-29.7,41.4l-0.6,1.5
			C269.4,210.7,273,216,278.3,216z"/>
		<linearGradient id="SVGID_13_" gradientUnits="userSpaceOnUse" x1="306.8617" y1="46.5761" x2="306.8617" y2="468.113">
			<stop  offset="0" style="stop-color:#3FD1FF"/>
			<stop  offset="1" style="stop-color:#FF2AEE"/>
		</linearGradient>
		<path class="st12" d="M278.3,216h57.1c4.8,0,8.4-4.5,7.2-9.2l-18.8-74.4l-17.9,24.9l9.3-2.4l10.2,40.5l-14.5,3.7l-9.1-36.2
			l-29.7,41.4l-0.6,1.5C269.4,210.7,273,216,278.3,216z"/>
		<linearGradient id="SVGID_14_" gradientUnits="userSpaceOnUse" x1="306.8617" y1="468.6633" x2="306.8617" y2="80.3652">
			<stop  offset="0" style="stop-color:#3FD1FF"/>
			<stop  offset="1" style="stop-color:#FF2AEE"/>
		</linearGradient>
		<path class="st13" d="M278.3,216h57.1c4.8,0,8.4-4.5,7.2-9.2l-18.8-74.4l-17.9,24.9l9.3-2.4l10.2,40.5l-14.5,3.7l-9.1-36.2
			l-29.7,41.4l-0.6,1.5C269.4,210.7,273,216,278.3,216z"/>
		<path d="M263.5,238.4v170c0,8.3,11.5,10.3,14.4,2.6l58.3-159L270,231.1C266.3,231.6,263.5,234.7,263.5,238.4z"/>
		<linearGradient id="SVGID_15_" gradientUnits="userSpaceOnUse" x1="299.8185" y1="46.5761" x2="299.8185" y2="468.113">
			<stop  offset="0" style="stop-color:#3FD1FF"/>
			<stop  offset="1" style="stop-color:#FF2AEE"/>
		</linearGradient>
		<path class="st14" d="M263.5,238.4v170c0,8.3,11.5,10.3,14.4,2.6l58.3-159L270,231.1C266.3,231.6,263.5,234.7,263.5,238.4z"/>
		<linearGradient id="SVGID_16_" gradientUnits="userSpaceOnUse" x1="299.8185" y1="468.6633" x2="299.8185" y2="80.3652">
			<stop  offset="0" style="stop-color:#3FD1FF"/>
			<stop  offset="1" style="stop-color:#FF2AEE"/>
		</linearGradient>
		<path class="st15" d="M263.5,238.4v170c0,8.3,11.5,10.3,14.4,2.6l58.3-159L270,231.1C266.3,231.6,263.5,234.7,263.5,238.4z"/>
		<path d="M248.5,376.9V238.4c0-3.8-2.8-6.9-6.5-7.3L200,244.4L248.5,376.9z"/>
		<linearGradient id="SVGID_17_" gradientUnits="userSpaceOnUse" x1="224.2287" y1="46.5761" x2="224.2287" y2="468.113">
			<stop  offset="0" style="stop-color:#3FD1FF"/>
			<stop  offset="1" style="stop-color:#FF2AEE"/>
		</linearGradient>
		<path class="st16" d="M248.5,376.9V238.4c0-3.8-2.8-6.9-6.5-7.3L200,244.4L248.5,376.9z"/>
		<linearGradient id="SVGID_18_" gradientUnits="userSpaceOnUse" x1="224.2287" y1="468.6633" x2="224.2287" y2="80.3652">
			<stop  offset="0" style="stop-color:#3FD1FF"/>
			<stop  offset="1" style="stop-color:#FF2AEE"/>
		</linearGradient>
		<path class="st17" d="M248.5,376.9V238.4c0-3.8-2.8-6.9-6.5-7.3L200,244.4L248.5,376.9z"/>
		<path d="M240.7,205.8l-0.4-1l-31.7-44L194.3,216h39.6C239.1,216,242.7,210.7,240.7,205.8z"/>
		<linearGradient id="SVGID_19_" gradientUnits="userSpaceOnUse" x1="217.7539" y1="46.5761" x2="217.7539" y2="468.113">
			<stop  offset="0" style="stop-color:#3FD1FF"/>
			<stop  offset="1" style="stop-color:#FF2AEE"/>
		</linearGradient>
		<path class="st18" d="M240.7,205.8l-0.4-1l-31.7-44L194.3,216h39.6C239.1,216,242.7,210.7,240.7,205.8z"/>
		<linearGradient id="SVGID_20_" gradientUnits="userSpaceOnUse" x1="217.7539" y1="468.6633" x2="217.7539" y2="80.3652">
			<stop  offset="0" style="stop-color:#3FD1FF"/>
			<stop  offset="1" style="stop-color:#FF2AEE"/>
		</linearGradient>
		<path class="st19" d="M240.7,205.8l-0.4-1l-31.7-44L194.3,216h39.6C239.1,216,242.7,210.7,240.7,205.8z"/>
		<path d="M242,231.1c-0.3,0-0.6-0.1-0.9-0.1h-46l4.9,13.4L242,231.1z"/>
		<linearGradient id="SVGID_21_" gradientUnits="userSpaceOnUse" x1="218.5454" y1="46.5761" x2="218.5454" y2="468.113">
			<stop  offset="0" style="stop-color:#3FD1FF"/>
			<stop  offset="1" style="stop-color:#FF2AEE"/>
		</linearGradient>
		<path class="st20" d="M242,231.1c-0.3,0-0.6-0.1-0.9-0.1h-46l4.9,13.4L242,231.1z"/>
		<linearGradient id="SVGID_22_" gradientUnits="userSpaceOnUse" x1="218.5454" y1="468.6633" x2="218.5454" y2="80.3652">
			<stop  offset="0" style="stop-color:#3FD1FF"/>
			<stop  offset="1" style="stop-color:#FF2AEE"/>
		</linearGradient>
		<path class="st21" d="M242,231.1c-0.3,0-0.6-0.1-0.9-0.1h-46l4.9,13.4L242,231.1z"/>
		<polygon points="240.3,204.8 214,140.2 208.6,160.8 		"/>
		<linearGradient id="SVGID_23_" gradientUnits="userSpaceOnUse" x1="224.4581" y1="46.5761" x2="224.4581" y2="468.113">
			<stop  offset="0" style="stop-color:#3FD1FF"/>
			<stop  offset="1" style="stop-color:#FF2AEE"/>
		</linearGradient>
		<polygon class="st22" points="240.3,204.8 214,140.2 208.6,160.8 		"/>
		<linearGradient id="SVGID_24_" gradientUnits="userSpaceOnUse" x1="224.4581" y1="468.6633" x2="224.4581" y2="80.3652">
			<stop  offset="0" style="stop-color:#3FD1FF"/>
			<stop  offset="1" style="stop-color:#FF2AEE"/>
		</linearGradient>
		<polygon class="st23" points="240.3,204.8 214,140.2 208.6,160.8 		"/>
		<path d="M300.7,158.6l5.2-1.3l17.9-24.9l-2.8-11.2c-1.7-6.9-11.3-7.6-14-1l-34.8,84.1l29.7-41.4L300.7,158.6z"/>
		<linearGradient id="SVGID_25_" gradientUnits="userSpaceOnUse" x1="297.9304" y1="46.5761" x2="297.9304" y2="468.113">
			<stop  offset="0" style="stop-color:#3FD1FF"/>
			<stop  offset="1" style="stop-color:#FF2AEE"/>
		</linearGradient>
		<path class="st24" d="M300.7,158.6l5.2-1.3l17.9-24.9l-2.8-11.2c-1.7-6.9-11.3-7.6-14-1l-34.8,84.1l29.7-41.4L300.7,158.6z"/>
		<linearGradient id="SVGID_26_" gradientUnits="userSpaceOnUse" x1="297.9304" y1="468.6633" x2="297.9304" y2="80.3652">
			<stop  offset="0" style="stop-color:#3FD1FF"/>
			<stop  offset="1" style="stop-color:#FF2AEE"/>
		</linearGradient>
		<path class="st25" d="M300.7,158.6l5.2-1.3l17.9-24.9l-2.8-11.2c-1.7-6.9-11.3-7.6-14-1l-34.8,84.1l29.7-41.4L300.7,158.6z"/>
		<path class="st26" d="M248.5,408.5v-31.6L200,244.4l-24.1,7.6l58.3,159C237,418.8,248.5,416.8,248.5,408.5z"/>
		<path class="st26" d="M195.1,231h-16.3c-5.2,0-8.7,5.1-7,10l4,11l24.1-7.6L195.1,231z"/>
		<path class="st26" d="M188.7,133.1l-19.2,73.7c-1.2,4.7,2.3,9.3,7.2,9.3h17.5l14.4-55.2L188.7,133.1z"/>
		<path class="st26" d="M214,140.2l-8.1-20c-2.7-6.6-12.2-6-14,0.9l-3.1,11.9l19.9,27.7L214,140.2z"/>
		<path class="st27" d="M59,125.4c-2.5,2.4-4,5.6-4.5,9.1l84.1,51.6l-31.6-108L59,125.4z"/>
		<path class="st26" d="M54.4,136.6l0,14.9l74,45.4c5.8,3.5,12.9-1.9,11-8.4l-0.7-2.5l-84.1-51.6C54.4,135.2,54.4,135.9,54.4,136.6z
			"/>
		<path class="st27" d="M484.3,135.2c4.1-2.5,4.8-8.2,1.3-11.6L426,64.7l-37.9,129.4L484.3,135.2z"/>
		<path class="st26" d="M409.2,63.5l-36.6,125c-1.9,6.5,5.2,11.9,11,8.4l4.5-2.8L426,64.7l-4.5-4.4
			C417.5,56.4,410.8,58.1,409.2,63.5z"/>
		<path class="st27" d="M296.4,106.4c1.4-3.4,0.1-6.9-2.4-8.8l-8.2,3.4l-4.8-2l-13,5.4c-2.8,1.2-4.6,3.9-4.6,6.8V150v0v0h-7.6
			c-0.3,0-0.6,0-0.9-0.1l11.6,28.4L296.4,106.4z"/>
		<path class="st27" d="M248.5,110.6c0-3-1.8-5.7-4.6-6.9l-9.3-3.8l13.9,34V110.6z"/>
		<path class="st26" d="M294.1,97.6c-2-1.5-4.6-2-7.3-0.9l-5.6,2.4l4.8,2L294.1,97.6z"/>
		<path class="st26" d="M224.1,101.4l-3.8,14.6l29,71.1c2.5,6.1,11.2,6.2,13.7,0l3.6-8.7L255,150c-3.7-0.4-6.5-3.6-6.5-7.4V134
			l-13.9-34l-8.7-3.6c-0.5-0.2-1-0.3-1.5-0.4C224.7,97.7,224.5,99.6,224.1,101.4z"/>
		<path class="st26" d="M216.2,106l4.1,9.9l3.8-14.6c0.5-1.8,0.6-3.7,0.4-5.5C218.9,94.9,214,100.4,216.2,106z"/>
		<path class="st28" d="M393.2,62c-0.7-4.4-5.5-7.6-10.2-5.6l-6.6,2.8l-10.2,14.1L393.2,62z"/>
		<path class="st28" d="M376.4,59.2L332,77.8c-3.4,1.4-5.2,5.1-4.3,8.7l0.7,2.7l37.9-15.9L376.4,59.2z"/>
		<path class="st28" d="M354.6,312.8l7.7,39.8l-14.7,2.9l-5.6-29l-37.6,102.6l62.6-67.8l2.9-3.2c1.6-1.7,2.3-4.1,1.8-6.4L358.3,282
			l-11.9,32.4L354.6,312.8z"/>
		<path class="st28" d="M163,343.2l42.2,45.7l-10.2,9.4l28.7,31c0.3-1.3,0.2-2.7-0.3-4.3l-51.6-140.9l-12.1,62.1L163,343.2z"/>
		<path class="st28" d="M129.6,327.3l3.8-19.7l-30.2-32.6l-29.5,9.3l43.1,46.7C121,335.4,128.5,333.3,129.6,327.3z"/>
		<path class="st28" d="M124.4,55.9c-3.9,0.9-6.8,4.9-5.5,9.3l0.3,0.9l0.6-0.6C122.6,62.8,124.1,59.3,124.4,55.9z"/>
		<path class="st28" d="M62.8,231H41.6c-6.5,0-9.8,7.7-5.4,12.4l37.7,40.8l29.5-9.3L62.8,231z"/>
		<path class="st28" d="M54.4,207.1H32.1v-15h22.3l0-23l-28.1-17.2c-4.9-3-11.3,0.5-11.3,6.3l0,50.4c0,4.1,3.3,7.4,7.4,7.4h32
			c0-0.1,0-0.1,0-0.2L54.4,207.1z"/>
		<path class="st28" d="M54.5,134.5c0.5-3.4,2-6.6,4.5-9.1l48-47.4l-0.7-2.2l-56.6,55.8L54.5,134.5z"/>
		<path class="st28" d="M54.5,134.5l-4.7-2.9l56.6-55.8l-7.1-24.2l-73,72c-3.4,3.4-2.8,9.1,1.3,11.6l26.7,16.4l0-14.9
			C54.4,135.9,54.4,135.2,54.5,134.5z"/>
		<path class="st28" d="M154.6,277.5l-14.4,74.1c-0.5,2.3,0.2,4.7,1.8,6.4l2.9,3.2l65.9,71.4c4.4,4.8,11.5,1.9,12.7-3.3l-28.7-31
			l-0.8,0.7l-42.2-45.7l7.6-7.1l12.1-62.1l-2.8-7.7C166.2,269.3,156,270.1,154.6,277.5z"/>
		<path class="st26" d="M343.2,276.4l-54.5,148.7c-2.8,7.6,6.9,13.5,12.4,7.6l3.3-3.6L342,326.5l-2.1-10.8l6.5-1.3l11.9-32.4
			l-0.9-4.5C356,270.1,345.8,269.3,343.2,276.4z"/>
		<path class="st29" d="M428.3,375.3c-12.7,0-23,10.3-23,23c0,12.7,10.3,23,23,23c12.7,0,23-10.3,23-23
			C451.3,385.6,441,375.3,428.3,375.3z M428.3,406.3c-4.4,0-8-3.6-8-8s3.6-8,8-8s8,3.6,8,8S432.8,406.3,428.3,406.3z"/>
		<path class="st29" d="M183.5,54.5c12.7,0,23-10.3,23-23c0-12.7-10.3-23-23-23s-23,10.3-23,23C160.4,44.2,170.8,54.5,183.5,54.5z
			 M183.5,23.4c4.4,0,8,3.6,8,8c0,4.4-3.6,8-8,8s-8-3.6-8-8C175.4,27,179,23.4,183.5,23.4z"/>
		<path class="st29" d="M118.5,390.8h-10.4c-1.5,0-2.7-1.2-2.7-2.7v-10.4c0-1.5-1.2-2.7-2.7-2.7h-9.6c-1.5,0-2.7,1.2-2.7,2.7v10.4
			c0,1.5-1.2,2.7-2.7,2.7H77.5c-1.5,0-2.7,1.2-2.7,2.7v9.6c0,1.5,1.2,2.7,2.7,2.7h10.4c1.5,0,2.7,1.2,2.7,2.7v10.4
			c0,1.5,1.2,2.7,2.7,2.7h9.6c1.5,0,2.7-1.2,2.7-2.7v-10.4c0-1.5,1.2-2.7,2.7-2.7h10.4c1.5,0,2.7-1.2,2.7-2.7v-9.6
			C121.2,392,120,390.8,118.5,390.8z"/>
		<path class="st29" d="M298,41.8h9.7c1.7,0,3,1.3,3,3v9.7c0,1.7,1.3,3,3,3h9c1.7,0,3-1.3,3-3v-9.7c0-1.7,1.3-3,3-3h9.7
			c1.7,0,3-1.3,3-3v-9c0-1.7-1.3-3-3-3h-9.7c-1.7,0-3-1.3-3-3v-9.7c0-1.7-1.3-3-3-3h-9c-1.7,0-3,1.3-3,3v9.7c0,1.7-1.3,3-3,3H298
			c-1.7,0-3,1.3-3,3v9C295,40.5,296.3,41.8,298,41.8z"/>
		<rect x="46.3" y="319.9" class="st29" width="16.3" height="15"/>
		<rect x="158.6" y="449.1" class="st29" width="16.3" height="15"/>
		<rect x="361.5" y="436.1" class="st29" width="16.3" height="15"/>
		<rect x="247.8" y="51.3" class="st29" width="16.3" height="15"/>
		<rect x="446.4" y="322.6" class="st29" width="16.3" height="15"/>
		<polygon class="st29" points="0,128.5 0,130 0.7,127.8 		"/>
		<path class="st29" d="M512,201.9v-47.2c0-16.8-6.7-32.9-18.7-44.6l-82.6-81.5L393.1,36l-7.7,10.7l25.7-10.7L424.5,49l-2.7,1.1
			l6.6,6.5l0,0l5,4.9c0,0,0,0,0,0l55.7,55c0,0,0.1,0.1,0.1,0.1l15.3,15.1l-3.7,2.3c2.4,6.1,3.7,12.6,3.7,19.2v50.2
			c0,13-4.9,25.4-13.7,35l-44.7,48.4l7.9,2.5l41.4-44.8C506.1,232.9,512,217.7,512,201.9z"/>
		<path class="st29" d="M382.7,355.4l0.1,0.6l-98.3,106.5l-11.5,4l-3.8-0.1c-2.9,0.8-5.9,1.3-8.8,1.5c-1.4,0.5-2.8,0.7-4.3,0.7v5.2
			c16.8,0,33.6-6.7,46-20.2L454,289.3l-7.9-2.5L382.7,355.4z"/>
		<path class="st29" d="M251.7,467.9c-4.1-0.3-8.1-1.2-12-2.4l-0.8,0l-4.4-1.8c-2.6,0.5-5.5-0.2-7.7-2.7l-8.7-9.4c0,0,0,0,0,0
			L65.9,286.8l-7.9,2.5L210,453.7c12.4,13.4,29.2,20.1,46,20.2v-5.2C254.5,468.7,253.1,468.4,251.7,467.9z"/>
		<path class="st29" d="M16.6,244.5L58,289.3l7.9-2.5l-44.7-48.4c-4.3-4.7-7.7-10-10-15.8c-0.4-0.8-0.7-1.7-1-2.6
			c-1.8-5.3-2.7-10.9-2.7-16.6l0-50.2c0-5.1,0.7-10,2.2-14.8l0-1.8c0-1.2,0.1-2.3,0.4-3.4l-2.6-1.6l15.3-15.1l0,0l55.9-55.1
			c0,0,0,0,0,0l24.3-24l0.6,2.1c3.6-1.2,7.5-1.2,11.2,0.3c3.7,1.5,6.4,4.2,8,7.4c1.6,0.3,3.3,0.6,4.9,1l-8.9-12.3l-17.5-7.2
			L0.7,127.8L0,130l0,71.9C0,217.7,5.9,232.9,16.6,244.5z"/>
		<path class="st29" d="M237.1,92.9c12.7,5.2,26.9,5.2,39.5-0.1l5.4-2.3l-0.8-0.3l104.2-43.6l7.7-10.7L280.9,82.9
			c-15.4,6.4-32.7,6.5-48.1,0.1l-114-47.1l8.9,12.3c2.3,0.6,4.6,1.4,6.9,2.3L237.1,92.9z"/>
		<path class="st29" d="M489.2,116.5l-55.7-55c0,0,0,0,0,0L489.2,116.5C489.2,116.6,489.2,116.5,489.2,116.5z"/>
		<polygon class="st29" points="356.6,222.3 354.6,223.5 355.1,226.4 		"/>
		<path class="st29" d="M364.3,260.9l5.5,1.7l-4.4-22.8c-0.9-4.6,2.6-8.8,7.3-8.8h97.8c6.5,0,9.8,7.7,5.4,12.4l-37.7,40.8l7.9,2.5
			l44.7-48.4c8.8-9.5,13.7-22,13.7-35v-50.2c0-6.7-1.3-13.2-3.7-19.2l-144,88.2L364.3,260.9z M485.7,151.9c4.9-3,11.3,0.5,11.3,6.3
			v50.4c0,4.1-3.3,7.4-7.4,7.4H381.1L485.7,151.9z"/>
		<path class="st29" d="M393,65.3l-30.3,103.6c-2.1,7.2-12.5,7.1-14.3-0.3l-13.2-52.2l-5.7,8l24.1,95.3c0.6,2.4,0.5,5-0.4,7.4
			l1.3-3.6L403,58l-9.8,4.1C393.4,63.1,393.4,64.2,393,65.3z"/>
		<path class="st29" d="M272.6,447.3l68.1-186l-71,193.7l1,1c0.1,0.1,0.1,0.1,0.2,0.2l1.3-3.5C271.8,451.1,271.8,449.3,272.6,447.3z
			"/>
		<path class="st29" d="M395.1,330.9c-4.1,4.5-11.6,2.3-12.7-3.6l-12.6-64.7l-5.5-1.7l18.4,94.5l63.4-68.6l-7.9-2.5L395.1,330.9z"/>
		<path class="st29" d="M260.3,467.9c3-0.2,5.9-0.7,8.8-1.5l-5.7-0.2C262.5,467,261.4,467.5,260.3,467.9z"/>
		<path class="st29" d="M239.7,465.5c3.9,1.3,7.9,2.1,12,2.4c-1.4-0.5-2.7-1.2-3.8-2.2L239.7,465.5z"/>
		<polygon class="st29" points="142.2,262.6 133.5,307.6 139.8,314.4 150.3,260.1 		"/>
		<path class="st29" d="M218.2,451.6l-83.8-90.7c-1.6-1.7-2.4-4.1-2.3-6.4l-63.4-68.6l-2.8,0.9L218.2,451.6
			C218.2,451.6,218.2,451.6,218.2,451.6z"/>
		<path class="st29" d="M124.4,55.9c1.4-0.3,2.9-0.2,4.5,0.4l6.5,2.7l-7.7-10.7c-1.6-0.4-3.3-0.7-4.9-1
			C124.1,49.9,124.7,52.9,124.4,55.9z"/>
		<path class="st29" d="M9.7,138.4c-1.4,4.8-2.2,9.7-2.2,14.8l0,50.2c0,5.7,0.9,11.3,2.7,16.6c-0.4-1.3-0.6-2.7-0.6-4.1L9.7,138.4z"
			/>
		<polygon class="st29" points="78.7,61.4 22.8,116.5 22.8,116.5 78.7,61.4 		"/>
		<path class="st29" d="M146.6,239.9l-4.4,22.8l8.1-2.6l1.2-6.3c0.4-2.1,1.5-3.8,2.8-4.9l4.3-22c-0.8-2.3-0.9-4.7-0.2-7.1l24.6-94.6
			l-5.7-7.9l-13.6,52.1c-1.9,7.3-12.2,7.4-14.3,0.2L119.2,66.1l-6.1,6l44.3,151.4L54.4,160.4l0,8.8l54.1,33.1
			c6.4,3.9,3.6,13.7-3.9,13.7H54.4c0.1,3.9,1.5,7.6,4.2,10.4l4.2,4.6h76.6C144,231,147.5,235.3,146.6,239.9z"/>
		<path class="st29" d="M13.8,226.5c-1.1-1.2-2-2.5-2.6-3.9c2.3,5.8,5.7,11.2,10,15.8l44.7,48.4l2.8-0.9L13.8,226.5z"/>
		<polygon class="st29" points="335.2,116.5 328.3,89.2 321.3,92.1 329.5,124.5 		"/>
		<path class="st29" d="M181,77.8c3.4,1.4,5.3,5.1,4.3,8.7l-8,30.8l5.7,7.9l9.2-35.4c0.9-3.5,3.2-6.2,6.1-7.8l-2.5-6.1l34.8,14.4
			l0,0l21.4,8.8c3.1,1.3,6.5,1.3,9.6,0l9.6-4l0,0l10.8-4.5l0,0l-5.4,2.3c-12.6,5.3-26.9,5.3-39.5,0.1L134.5,50.5
			c-2.3-0.9-4.6-1.7-6.9-2.3l7.7,10.7L181,77.8z"/>
		<path class="st29" d="M256,468.1v0.6c1.5,0,2.9-0.3,4.3-0.7C258.9,468,257.4,468.1,256,468.1z"/>
		<path class="st29" d="M251.7,467.9c1.4,0.5,2.8,0.7,4.3,0.7v-0.6C254.6,468.1,253.1,468,251.7,467.9z"/>
		<path class="st29" d="M353.6,219.8l-24.1-95.3l-5.7,8l18.8,74.4c1.2,4.7-2.4,9.2-7.2,9.2h-57.1c-5.3,0-8.9-5.4-6.8-10.3l0.6-1.5
			L256,226.7l14,4.4c0.3,0,0.6-0.1,0.9-0.1h62.3c5.2,0,8.7,5.1,7,10l-4,11l7.2,2.3l9.9-27.1C354.1,224.8,354.2,222.2,353.6,219.8z"
			/>
		<path class="st29" d="M343.3,254.3l-7.2-2.3l-58.3,159c-2.9,7.8-14.4,5.7-14.4-2.6v-170c0-3.8,2.8-6.9,6.5-7.3l-14-4.4v170.7
			l15.6,42.5c1.2,3.3,1.2,6.9,0,10.2l-1.6,4.3c-0.1,0.2-0.2,0.5-0.3,0.7l0,0l71-193.7L343.3,254.3z"/>
		<path class="st29" d="M256,466v2.1c1.4,0,2.9-0.1,4.3-0.2c1.1-0.4,2.2-1,3.2-1.7L256,466z"/>
		<path class="st29" d="M248.5,238.4v138.5l7.5,20.5V226.7l-14,4.4C245.7,231.6,248.5,234.7,248.5,238.4z"/>
		<path class="st29" d="M256,466l-8.1-0.3c1.1,1,2.4,1.7,3.8,2.2c1.4,0.1,2.9,0.2,4.3,0.2V466z"/>
		<path class="st29" d="M240.7,205.8c2,4.9-1.6,10.2-6.9,10.2h-39.6l-0.8,3c-0.8,2.9-0.6,6,0.4,8.9l1.1,3.1h46c0.3,0,0.6,0,0.9,0.1
			l14-4.4l-15.7-21.8L240.7,205.8z"/>
		<path class="st29" d="M158.7,226.8L158.7,226.8c-0.7-2.6-0.7-5.3-0.1-7.8l24.4-93.8h0l-24.6,94.6
			C157.8,222.1,157.9,224.5,158.7,226.8z"/>
		<path class="st29" d="M191.6,92.4c1.1-4.2,3.8-7.4,7.3-9.3l-0.5-1.2c-2.9,1.6-5.2,4.3-6.1,7.8l-9.2,35.4h0L191.6,92.4z"/>
		<path class="st29" d="M270.6,188.3L270.6,188.3L256,223.5l-38.9-95.4l-3.2,12.1l26.3,64.6l15.7,21.8l16.1-22.4l34.8-84.1
			c2.7-6.6,12.3-5.9,14,1l2.8,11.2l5.7-8l-8.2-32.3l-13.1,5.5L270.6,188.3z"/>
		<path class="st29" d="M261.7,99c-3.1,1.3-6.5,1.3-9.6,0l4.8,2L261.7,99z"/>
		<path class="st29" d="M269.7,455c0.1-0.2,0.2-0.4,0.3-0.7l1.6-4.3c1.2-3.3,1.2-6.9,0-10.2L256,397.4v42.8L269.7,455z"/>
		<path class="st29" d="M248.5,408.5c0,8.3-11.5,10.3-14.4,2.6l-58.3-159l-4.7,1.5l57.6,157.3l27.2,29.4v-42.8l-7.5-20.5V408.5z"/>
		<path class="st29" d="M171.2,253.5l4.7-1.5l-4-11c-1.8-4.8,1.8-10,7-10h16.3l-1.1-3.1c-1-2.8-1.2-5.9-0.4-8.9l0.8-3h-17.5
			c-4.9,0-8.4-4.6-7.2-9.3l19.2-73.7l-5.7-7.9L158.6,219c-0.7,2.5-0.6,5.2,0.1,7.7l0.9-4.8L171.2,253.5z"/>
		<path class="st29" d="M191.8,121.2c1.8-6.9,11.4-7.5,14-0.9l8.1,20l3.2-12.1l-18.3-45c-3.4,1.9-6.2,5.1-7.3,9.3l-8.5,32.8l5.7,7.9
			L191.8,121.2z"/>
		<polygon class="st29" points="138.7,186.1 148.2,191.9 157.4,223.5 113.1,72.1 107.1,78.1 		"/>
		<polygon class="st29" points="103.6,39.5 103,37.4 103.6,39.5 		"/>
		<path class="st29" d="M18.6,121.2c1.3-1.6,2.7-3.2,4.2-4.7L7.5,131.6l2.6,1.6c0.7-2.9,2.1-5.6,4.3-7.8L18.6,121.2z"/>
		<path class="st29" d="M97.8,43.2c1.7-1.7,3.7-2.9,5.8-3.6l-0.6-2.1l-24.3,24c1.5-1.5,3.1-2.9,4.8-4.2L97.8,43.2z"/>
		<path class="st29" d="M83.5,57.2c-1.7,1.3-3.3,2.7-4.8,4.2l-55.9,55.1c-1.5,1.5-2.9,3.1-4.2,4.7L83.5,57.2z"/>
		<path class="st29" d="M148.2,191.9l-9.5-5.8l0.7,2.5c1.9,6.5-5.2,11.9-11,8.4l-74-45.4l0,8.8l103.1,63.2L148.2,191.9z"/>
		<path class="st29" d="M433.4,61.5l-5-4.9l-0.1,0.5C430,58.4,431.8,59.9,433.4,61.5z"/>
		<path class="st29" d="M504.5,131.6l-15.3-15.1c5,5,8.9,10.9,11.5,17.3L504.5,131.6z"/>
		<path class="st29" d="M426,64.7l59.7,58.9c3.4,3.4,2.8,9.1-1.3,11.6l-96.2,59l-3.1,10.7l-28.2,17.3l0,0l144-88.2
			c-2.6-6.4-6.5-12.4-11.5-17.3l-55.9-55.1c-1.6-1.6-3.3-3.1-5.1-4.4L426,64.7z"/>
		<polygon class="st29" points="356.6,222.3 354.6,223.5 356.6,222.3 		"/>
		<polygon class="st29" points="428.4,56.6 428.4,56.6 421.8,50.1 421.8,50.1 		"/>
		<path class="st29" d="M418.7,51.4c3.3,1.5,6.5,3.4,9.5,5.7l0.1-0.5l-6.6-6.5L418.7,51.4z"/>
		<path class="st29" d="M354.6,223.5l2.1-1.3l0.1-0.3l0,0.2l28.2-17.3l3.1-10.7l-4.5,2.8c-5.8,3.5-12.9-1.9-11-8.4l36.6-125
			c1.6-5.4,8.3-7.1,12.3-3.2l4.5,4.4l2.2-7.7c-3-2.2-6.2-4.1-9.5-5.7L403,58L354.6,223.5z"/>
		<polygon class="st29" points="271.3,95 271.3,95 261.7,99 261.7,99 		"/>
		<polygon class="st29" points="252.1,99.1 252.1,99.1 230.7,90.2 230.7,90.2 		"/>
		<path class="st29" d="M308.2,97.6l-4.4,1.8l-7.1-2.9l-2.6,1.1c2.5,1.9,3.8,5.3,2.4,8.8l-29.9,72l4,9.9L308.2,97.6z"/>
		<path class="st29" d="M230.7,90.2l4,9.7l9.3,3.8c2.8,1.1,4.6,3.9,4.6,6.9V134l6.5,16c0.3,0,0.6,0.1,0.9,0.1h7.6v-38.7
			c0-3,1.8-5.7,4.6-6.8l13-5.4l-9.8-4l-9.6,4c0,0,0,0,0,0l-4.8,2l-4.8-2c0,0,0,0,0,0L230.7,90.2z"/>
		<polygon class="st29" points="282.1,90.5 271.3,95 271.3,95 282.1,90.5 		"/>
		<polygon class="st29" points="282.1,90.5 282.1,90.5 271.3,95 271.3,95 		"/>
		<path class="st29" d="M294.1,97.6l2.6-1.1l-14.6-6L271.3,95l9.8,4l5.6-2.4C289.4,95.6,292.1,96.1,294.1,97.6z"/>
		<polygon class="st29" points="230.7,90.2 195.9,75.8 230.7,90.2 		"/>
		<polygon class="st29" points="270.6,188.3 270.6,188.3 256,223.5 		"/>
		<path class="st29" d="M209.1,81.3l21.6,8.9v0l-34.8-14.4l2.5,6.1C201.5,80.2,205.4,79.8,209.1,81.3z"/>
		<path class="st29" d="M255,150l-6.5-16v8.6C248.5,146.4,251.3,149.5,255,150z"/>
		<path class="st29" d="M270.6,188.3l-4-9.9l-3.6,8.7c-2.5,6.1-11.2,6.1-13.7,0l-29-71.1l-3.2,12.1l38.9,95.4L270.6,188.3z"/>
		<path class="st29" d="M211.6,82.4l3.7,1.5c5.1,2.1,8.5,6.8,9.1,12.1c0.5,0.1,1,0.2,1.5,0.4l8.7,3.6l-4-9.7l-21.6-8.9
			c-3.7-1.5-7.6-1.1-10.8,0.6l0.5,1.2C202.6,81,207.3,80.6,211.6,82.4z"/>
		<path class="st29" d="M220.3,116l-4.1-9.9c-2.3-5.6,2.7-11.2,8.2-10.1c-0.6-5.2-4-9.9-9.1-12.1l-3.7-1.5c-4.4-1.8-9-1.4-12.8,0.7
			l18.3,45L220.3,116z"/>
		<path class="st29" d="M231.3,461.8c-4.8-2.6-9.2-6-13.1-10.2l8.7,9.4c2.3,2.4,5.1,3.2,7.7,2.7l-2.7-1.1L231.3,461.8z"/>
		<polygon class="st29" points="139.8,314.4 141.3,316.1 152.3,259.4 150.3,260.1 		"/>
		<path class="st29" d="M231.3,461.8l-99.2-107.4c-0.2,2.3,0.7,4.6,2.3,6.4l83.8,90.7C222.1,455.8,226.5,459.2,231.3,461.8z"/>
		<path class="st29" d="M151.6,253.8l-1.2,6.3l2-0.6l2.1-10.6C153,250,152,251.7,151.6,253.8z"/>
		<path class="st29" d="M406.1,47.5l2.9-10l12.8,12.7l2.7-1.1l-13.3-13.1l-25.7,10.7l-1.3,1.8C391.4,46.5,398.9,46.2,406.1,47.5z"/>
		<path class="st29" d="M282.1,90.5l95.3-39.8c2.2-0.9,4.5-1.7,6.8-2.3l1.3-1.8L281.3,90.2L282.1,90.5z"/>
		<path class="st29" d="M383.1,56.4c4.7-1.9,9.5,1.2,10.2,5.6L403,58l3.1-10.5c-7.2-1.3-14.6-1-21.9,0.9l-7.8,10.8L383.1,56.4z"/>
		<path class="st29" d="M317.2,75.8L317.2,75.8L317.2,75.8l-2.6,6.2c2.9,1.6,5.2,4.4,6.1,7.9l0.6,2.2l7-2.9l-0.7-2.7
			c-0.9-3.6,0.9-7.2,4.3-8.7l44.5-18.6l7.8-10.8c-2.3,0.6-4.6,1.4-6.8,2.3l-95.3,39.8l0,0l5.7-2.4L317.2,75.8z"/>
		<path class="st29" d="M311.1,90.5l-3,7.1l13.1-5.5l-0.6-2.2c-0.9-3.5-3.2-6.3-6.1-7.9L311.1,90.5L311.1,90.5z"/>
		<polygon class="st29" points="421.8,50.1 421.8,50.1 409,37.4 		"/>
		<path class="st29" d="M421.8,50.1L409,37.4l-2.9,10c4.4,0.8,8.6,2.1,12.7,3.9L421.8,50.1z"/>
		<path class="st29" d="M418.7,51.4c-4-1.9-8.3-3.2-12.7-3.9L403,58L418.7,51.4z"/>
		<polygon class="st29" points="303.8,81.4 303.8,81.4 317.2,75.8 317.2,75.8 287.9,88.1 289.6,87.4 		"/>
		<polygon class="st29" points="308.2,97.6 311.1,90.5 296.7,96.5 303.8,99.5 		"/>
		<polygon class="st29" points="289.6,87.4 303.8,81.4 303.8,81.4 		"/>
		<polygon class="st29" points="314.7,82 317.2,75.8 317.2,75.8 314.7,82 		"/>
		<polygon class="st29" points="287.9,88.1 282.1,90.5 282.1,90.5 		"/>
		<polygon class="st29" points="311.1,90.5 311.1,90.5 314.7,82 314.7,82 		"/>
		<polygon class="st29" points="287.9,88.1 282.1,90.5 282.1,90.5 289.6,87.4 		"/>
		<path class="st29" d="M314.7,82l2.6-6.2l-13.4,5.6C307.5,79.9,311.5,80.3,314.7,82z"/>
		<path class="st29" d="M311.1,90.5l3.5-8.5c-3.2-1.8-7.1-2.1-10.8-0.6l-14.2,5.9l-7.5,3.1l14.6,6L311.1,90.5z"/>
		<path class="st29" d="M297.7,447.4l-9.1,9.8c-1.5,1.6-3.3,2.6-5.1,3c-4.5,2.9-9.4,4.9-14.4,6.3l3.8,0.1l11.5-4L382.8,356l-0.1-0.6
			L297.7,447.4L297.7,447.4z"/>
		<path class="st29" d="M234.6,463.6l4.4,1.8l0.8,0c-1.7-0.5-3.3-1.2-4.9-1.9C234.8,463.6,234.7,463.6,234.6,463.6z"/>
		<path class="st29" d="M11.2,222.5c-0.3-0.8-0.7-1.7-1-2.6C10.5,220.8,10.8,221.7,11.2,222.5z"/>
		<path class="st29" d="M10.1,133.2c-0.2,1.1-0.4,2.3-0.4,3.4l0,1.8c0.5-1.5,1-3,1.6-4.5L10.1,133.2z"/>
		<path class="st29" d="M122.8,47.2c-1.6-3.2-4.3-5.8-8-7.4c-3.6-1.5-7.6-1.6-11.2-0.3l2.3,7.8C111.4,46.4,117.1,46.3,122.8,47.2z"
			/>
		<polygon class="st29" points="355.1,226.4 361.7,260.1 364.3,260.9 356.8,222.2 356.6,222.3 		"/>
		<path class="st29" d="M361.7,260.1l1.6,8.3l-5,13.6l13.5,69.6c0.5,2.3-0.2,4.7-1.8,6.4l-2.9,3.2l-62.6,67.8l-6.7,18.3l85-92
			l-18.4-94.5L361.7,260.1z"/>
		<path class="st29" d="M272.1,452.8l-1.3,3.5c-0.1-0.1-0.1-0.1-0.2-0.2l-1-1l-2,5.4c-0.9,2.5-2.4,4.4-4.3,5.8l5.7,0.2
			c5-1.3,9.9-3.4,14.4-6.3C278.6,461.2,273.3,457.8,272.1,452.8z"/>
		<path class="st29" d="M139.8,314.4l-6.3-6.8l-3.8,19.7c-1.2,6-8.6,8.1-12.7,3.6l-43.1-46.7l-5.1,1.6l63.4,68.6
			c0-0.4,0.1-0.7,0.1-1.1L139.8,314.4z"/>
		<path class="st29" d="M244.3,460.5l-75.5-206.2l0,0l4.9,13.4c0.5,1.5,0.7,3.1,0.4,4.6l-2.3,11.9l51.6,140.9c0.6,1.5,0.6,3,0.3,4.3
			l14.1,15.3c0.8,0.8,1.4,1.8,1.8,2.9l1.7,4.7c2,5.6-1.7,10.4-6.4,11.4c1.6,0.7,3.2,1.4,4.9,1.9l8.2,0.3
			C246.3,464.4,245.1,462.7,244.3,460.5z"/>
		<path class="st29" d="M158.7,226.8l-4.3,22c4.2-3.5,11.4-2.5,13.7,3.6l0.6,1.8l0,0l-9.9-27.1C158.7,227.1,158.7,227,158.7,226.8z"
			/>
		<path class="st29" d="M68.7,285.9l5.1-1.6l-37.7-40.8c-4.4-4.7-1-12.4,5.4-12.4h21.2l-4.2-4.6c-2.6-2.8-4.1-6.6-4.2-10.4h-32
			c-4.1,0-7.4-3.3-7.4-7.4l0-50.4c0-5.8,6.3-9.3,11.3-6.3l28.1,17.2l0-8.8l-43.1-26.4c-0.6,1.5-1.1,3-1.6,4.5l0,77.4
			c0,1.4,0.2,2.8,0.6,4.1c0.3,0.9,0.6,1.7,1,2.6c0.7,1.4,1.6,2.8,2.6,3.9L68.7,285.9z"/>
		<path class="st29" d="M105.9,47.4l6.6,22.5l0,0l0.7,2.2l6.1-6l-0.3-0.9c-1.3-4.4,1.6-8.4,5.5-9.3c0.3-3-0.3-6-1.7-8.7
			C117.1,46.3,111.4,46.4,105.9,47.4z"/>
		<path class="st29" d="M256,464.1v1.9l7.5,0.2c1.8-1.4,3.3-3.3,4.3-5.8l2-5.4l0,0C267.2,461.1,261.6,464.1,256,464.1z"/>
		<path class="st29" d="M242,454.4l-73.3-200.1l0,0l75.5,206.2c0.8,2.2,2.1,4,3.6,5.3l8.1,0.3v-1.9
			C250.2,464.1,244.4,460.9,242,454.4z"/>
		<path class="st29" d="M159,227.9c-0.1-0.4-0.3-0.7-0.4-1.1l0,0.1c0,0.1,0.1,0.2,0.1,0.4l9.9,27.1l0,0L159,227.9z"/>
		<path class="st29" d="M256,464.1c5.6,0,11.2-3,13.7-9.1L256,440.2V464.1z"/>
		<path class="st29" d="M228.8,410.8l-57.6-157.3l-2.5,0.8L242,454.4c2.4,6.5,8.2,9.8,14,9.8v-23.9L228.8,410.8z"/>
		<path class="st29" d="M168.7,254.3l2.5-0.8l-11.6-31.5l-0.9,4.8c0.1,0.4,0.2,0.8,0.4,1.1L168.7,254.3z"/>
		<polygon class="st29" points="107.1,78.1 113.1,72.1 112.5,69.9 106.4,75.8 		"/>
		<polygon class="st29" points="105.9,47.4 105.9,47.4 103.6,39.5 103.6,39.5 		"/>
		<polygon class="st29" points="112.5,69.9 105.9,47.4 105.9,47.4 112.5,69.9 		"/>
		<path class="st29" d="M18.6,121.2l-4.3,4.2c-2.2,2.1-3.6,4.8-4.3,7.8l1.2,0.7C13.1,129.4,15.6,125.1,18.6,121.2z"/>
		<path class="st29" d="M103.6,39.5c-2.1,0.8-4.1,2-5.8,3.6L83.5,57.2c6.6-5.1,14.3-8.4,22.4-9.9L103.6,39.5z"/>
		<path class="st29" d="M27.7,135.2c-4.1-2.5-4.8-8.2-1.3-11.6l73-72l7.1,24.2l6.1-6l-6.6-22.5c-8,1.4-15.7,4.8-22.4,9.9l-64.9,64
			c-3.1,3.9-5.6,8.2-7.4,12.7l43.1,26.4l0-8.8L27.7,135.2z"/>
		<polygon class="st29" points="356.6,222.3 356.8,222.2 356.8,222.2 356.6,222.3 		"/>
		<polygon class="st29" points="356.6,222.3 356.8,222.2 356.7,221.9 		"/>
		<path class="st29" d="M231.3,461.8l0.7,0.7l2.7,1.1c0.1,0,0.2,0,0.3-0.1C233.6,463,232.4,462.4,231.3,461.8z"/>
		<path class="st29" d="M234.8,463.6c4.7-1,8.4-5.8,6.4-11.4l-1.7-4.7c-0.4-1.1-1-2-1.8-2.9l-14.1-15.3c-1.2,5.2-8.3,8.1-12.7,3.3
			L145,361.3l-2.9-3.2c-1.6-1.7-2.3-4.1-1.8-6.4l14.4-74.1c1.4-7.4,11.7-8.2,14.2-1.1l2.8,7.7l2.3-11.9c0.3-1.5,0.2-3.1-0.4-4.6
			l-4.9-13.4l-16.4,5.2l-11,56.6l-1.5-1.7l-7.6,39c-0.1,0.4-0.1,0.7-0.1,1.1l99.2,107.4C232.4,462.4,233.6,463,234.8,463.6z"/>
		<path class="st29" d="M154.4,248.9l-2.1,10.6l16.4-5.2l-0.6-1.8C165.8,246.3,158.6,245.4,154.4,248.9z"/>
		<polygon class="st29" points="353.2,227.2 343.3,254.3 344.7,254.7 355.1,226.4 354.6,223.5 353.2,227.2 		"/>
		<path class="st29" d="M343.3,254.3l-2.6,7.1l-68.1,186c-0.7,1.9-0.8,3.8-0.4,5.5l72.6-198.1L343.3,254.3z"/>
		<polygon class="st29" points="353.2,227.2 343.3,254.3 343.3,254.3 353.2,227.2 		"/>
		<polygon class="st29" points="340.7,261.4 343.3,254.3 343.3,254.3 		"/>
		<path class="st29" d="M283.5,460.1c1.8-0.4,3.6-1.3,5.1-3l9.1-9.8l0,0l-3.9,4.2C290.7,454.9,287.2,457.8,283.5,460.1z"/>
		<polygon class="st29" points="344.7,254.7 361.7,260.1 355.1,226.4 		"/>
		<path class="st29" d="M272.1,452.8c1.1,5,6.4,8.4,11.4,7.3c3.7-2.3,7.2-5.2,10.3-8.6l3.9-4.2l6.7-18.3l-3.3,3.6
			c-5.5,6-15.2,0-12.4-7.6l54.5-148.7c2.6-7.1,12.8-6.2,14.2,1.1l0.9,4.5l5-13.6l-1.6-8.3l-16.9-5.4L272.1,452.8z"/>
		<rect x="474.1" y="169" class="st29" width="15" height="37.7"/>
		<polygon class="st29" points="311,199.1 325.5,195.4 315.2,154.9 305.9,157.3 301.8,163 		"/>
		<polygon class="st29" points="301.8,163 305.9,157.3 300.7,158.6 		"/>
		<rect x="54.4" y="192.1" class="st29" width="14.4" height="15"/>
		<rect x="32.1" y="192.1" class="st29" width="22.3" height="15"/>
		<path class="st29" d="M163,343.2l-3.4,3.1l-1.4,7.1c-0.5,2.7,0.3,5.5,2.1,7.5l34.6,37.5l10.2-9.4L163,343.2z"/>
		<path class="st29" d="M158.2,353.4l1.4-7.1l-7.6,7.1l42.2,45.7l0.8-0.7l-34.6-37.5C158.5,358.8,157.7,356,158.2,353.4z"/>
		<polygon class="st29" points="362.3,352.6 354.6,312.8 346.4,314.4 342,326.5 347.6,355.4 		"/>
		<polygon class="st29" points="339.9,315.7 342,326.5 346.4,314.4 		"/>
	</g>
</g>
</svg>
