<?xml version="1.0" encoding="utf-8"?>
<!-- Generator: Adobe Illustrator 24.0.2, SVG Export Plug-In . SVG Version: 6.00 Build 0)  -->
<svg version="1.1" id="Ebene_1" xmlns="http://www.w3.org/2000/svg" xmlns:xlink="http://www.w3.org/1999/xlink" x="0px" y="0px"
	 viewBox="0 0 512 512" style="enable-background:new 0 0 512 512;" xml:space="preserve">
<style type="text/css">
	.st0{fill:#3C3C3B;}
	.st1{fill:url(#SVGID_1_);}
	.st2{fill:url(#SVGID_2_);}
	.st3{fill:url(#SVGID_3_);}
	.st4{fill:url(#SVGID_4_);}
	.st5{fill:url(#SVGID_5_);}
	.st6{fill:url(#SVGID_6_);}
	.st7{fill:url(#SVGID_7_);}
	.st8{fill:url(#SVGID_8_);}
	.st9{fill:url(#SVGID_9_);}
	.st10{fill:url(#SVGID_10_);}
	.st11{fill:url(#SVGID_11_);}
	.st12{fill:url(#SVGID_12_);}
	.st13{fill:url(#SVGID_13_);}
	.st14{fill:url(#SVGID_14_);}
	.st15{fill:url(#SVGID_15_);}
	.st16{fill:url(#SVGID_16_);}
	.st17{fill:url(#SVGID_17_);}
	.st18{fill:url(#SVGID_18_);}
	.st19{fill:url(#SVGID_19_);}
	.st20{fill:url(#SVGID_20_);}
	.st21{fill:#943EC7;}
	.st22{fill:#BC85DE;}
	.st23{fill:#D0A1ED;}
</style>
<path class="st0" d="M492.8,110.3l-82.6-81.5l-17.6,7.4L385,46.9L280.8,90.5l0.8,0.3h0l0.1-0.1l0,0l-0.1,0.1l0.1-0.1l14.5,6
	l14.4-5.9l-14.4,6l-14.6-6l-4.6,1.9l4.5-1.9l-0.8-0.3l104.2-43.6l7.7-10.7l-112.2,47c-15.4,6.4-32.7,6.5-48.1,0.1l-114-47.1l0,0
	l-17.5-7.2L0.2,128l-0.7,0.7v1.5v71.9c0,15.8,5.9,31,16.6,42.6l41.4,44.8l152,164.4c12.4,13.4,29.2,20.1,46,20.2V469
	c-1.5,0-2.9-0.3-4.3-0.8c1.4,0.5,2.8,0.7,4.3,0.7v0.1c0,0,0.1,0,0.1,0v5.1c16.8,0,33.6-6.7,46-20.2l151.9-164.3l41.4-44.8
	c10.7-11.6,16.6-26.8,16.6-42.6V155C511.5,138.1,504.8,122,492.8,110.3z M470,231.3h-97.8c-4.1,0-7.3,3.3-7.4,7.1
	c0.1-3.9,3.3-7.2,7.4-7.2L470,231.3c4.9-0.1,8,4.3,7.3,8.4C477.9,235.6,474.8,231.3,470,231.3z M437.7,284.5l-43.1,46.6L437.7,284.5
	L437.7,284.5z M381.9,327.5L369.3,263h0L381.9,327.5z M380.6,216.3l104.6-64.1c1.2-0.8,2.6-1.1,3.9-1.1c-1.3,0-2.6,0.3-3.9,1.1
	L380.6,216.3z M483.9,135.5l-96.2,59l-3.1,10.5l-28.3,17.3l28.2-17.3l3.1-10.7l96.2-58.9c4.1-2.5,4.8-8.2,1.3-11.6L425.5,65
	l-4.5-4.4c-0.5-0.5-1-0.8-1.5-1.1c0.5,0.3,1,0.7,1.5,1.1l4.5,4.4v0l59.7,58.9C488.6,127.3,488,133,483.9,135.5z M356.1,222.5
	L356.1,222.5l-2,1.2l-1,2.6c0-0.1,0.1-0.3,0.1-0.4l0.8-2.3l48.5-165.5l-9.8,4.1c0,0,0-0.1,0-0.1c-0.4-2.5-2.1-4.6-4.3-5.6
	c2.3,1,4,3.1,4.4,5.6l9.7-4l-48.4,165.5L356.1,222.5z M392.8,62.9c0.1,0.8,0,1.7-0.3,2.6C392.7,64.7,392.8,63.8,392.8,62.9z
	 M356.3,222.1v0.2l0,0l7.5,38.7h0l-7.5-38.6l0-0.1L356.3,222.1z M405.6,47.8L405.6,47.8l0-0.1c4.4,0.8,8.6,2.1,12.7,3.9l1.7-0.7
	l-1.7,0.7c0,0-0.1,0-0.1-0.1l-0.1,0C414.1,49.7,409.9,48.5,405.6,47.8z M432.9,61.8l0.8,0.8L432.9,61.8c0,0-0.2-0.2-0.3-0.3
	C432.7,61.6,432.8,61.7,432.9,61.8z M428.8,58.1c-0.3-0.2-0.6-0.4-0.9-0.7l-2.4,7.5l2.2-7.6c0,0,0,0,0,0l0.1-0.5l-6.5-6.4l0.1,0
	l6.5,6.4l-0.1,0.5C428.1,57.6,428.4,57.9,428.8,58.1z M424,49.3L424,49.3l-6.8-6.5L424,49.3z M384.9,46.9l25.7-10.7l0,0L384.9,46.9
	l-1.2,1.7c0,0-0.1,0-0.1,0L384.9,46.9z M331.4,78l44.5-18.6L331.4,78c-3.3,1.4-5.1,5.1-4.2,8.7l0.7,2.7l-0.1,0l-0.7-2.7
	C326.2,83.2,328,79.5,331.4,78z M320.2,90.2l0.6,2.2h0l8.2,32.4l0,0l24.1,95.2c0.2,0.9,0.4,1.8,0.4,2.8c0-0.9-0.2-1.8-0.4-2.7
	L329,124.8l-5.7,8l0-0.1l-0.1-0.3l5.6-7.8l-8.2-32.2l0.1,0L320.2,90.2c-1-3.5-3.3-6.2-6.1-7.9l0,0c-0.5-0.3-1-0.5-1.6-0.7
	c0.5,0.2,1.1,0.4,1.6,0.7l0,0C317,83.8,319.3,86.7,320.2,90.2z M303.9,81.5C303.8,81.5,303.8,81.5,303.9,81.5l12.8-5.4l0,0
	L303.9,81.5z M310.5,199.3L310.5,199.3l-7.3-28.8L310.5,199.3z M293.6,97.8c2.5,1.9,3.8,5.3,2.4,8.8l-29.9,72l4,9.9l-4-9.9l-0.1-0.2
	l29.9-71.8C297.3,103.3,296,99.8,293.6,97.8L293.6,97.8z M269.3,455.3l0.9,0.9c0.1,0.1,0.1,0.1,0.2,0.2l-0.1,0.1
	c-0.1-0.1-0.1-0.1-0.2-0.2l-0.9-0.9L269.3,455.3z M269.2,455.5L269.2,455.5c0-0.1,0-0.2,0-0.2l0.1,0.1
	C269.2,455.4,269.2,455.4,269.2,455.5z M280.6,99.3l5.6-2.4c1.6-0.6,3.1-0.6,4.5-0.3c-1.4-0.3-2.9-0.2-4.4,0.4l-5.6,2.4L280.6,99.3
	l-0.2,0.1l-9.5-3.9l-9.6,4l-4.8,2l-4.8-2l-2.4-1l2.2,0.9c0.5,0.2,1.1,0.4,1.7,0.5l3.2,1.4l3.6-1.5c0.4-0.1,0.7-0.2,1.1-0.4l9.6-4
	l0.2-0.1L280.6,99.3z M275.8,93.2l-2.6,1.1c-10.9,3.8-22.8,3.8-33.7,0l-2.2-0.9C249.6,98.3,263.4,98.3,275.8,93.2z M234.2,100.1
	l9.3,3.8c2.8,1.1,4.6,3.9,4.6,6.9v23.4l6.5,15.9c0,0-0.1,0-0.1,0l-6.5-15.9l-13.9-34l-4-9.7l0.2,0.1L234.2,100.1z M254.4,150.2
	c-3.7-0.4-6.4-3.6-6.4-7.4C248,146.6,250.8,149.7,254.4,150.2L254.4,150.2z M208.4,81.5l21.9,9l0,0.1l-0.2-0.1L216,84.7
	c-0.4-0.2-0.8-0.4-1.2-0.6l-3.7-1.5c-0.2-0.1-0.4-0.1-0.6-0.2l-3.3-1.4C207.6,81.2,208,81.3,208.4,81.5z M223.9,96
	C223.9,96,223.9,96,223.9,96c-0.6-4.7-3.5-8.9-7.9-11.3l0.2,0.1c-0.1,0-0.1-0.1-0.2-0.1l10.7,4.4l-10.5-4.3
	C220.4,87.1,223.3,91.3,223.9,96z M188.4,133.6l0-0.2l19.7,27.4l0,0.2l0,0.1L188.4,133.6z M204.4,175.4l-10.6,40.8h-0.1L204.4,175.4
	z M182.7,125.8l-23.9,90.8l23.7-91.1l0,0l9.2-35.4c0.6-2.2,1.7-4.1,3.2-5.6c-1.4,1.5-2.5,3.3-3.1,5.5l-0.4,1.6
	c-0.1,0.4-0.3,0.8-0.4,1.2l-8.5,32.8L182.7,125.8z M168.1,254.6l-16.2,5.1v0L168.1,254.6z M166.9,251.2l-0.1-0.2
	c0.1,0.2,0.2,0.4,0.3,0.5l0.2,0.5C167.2,251.8,167,251.5,166.9,251.2z M158.9,346.5l12.1-62.1l-2.8-7.7c-0.6-1.8-1.7-3-3-3.8
	c1.4,0.8,2.6,2.1,3.2,3.9l2.8,7.7l2.3-11.9c0.3-1.5,0.2-3.1-0.4-4.6l-4.9-13.4l5.3,14.4c0.3,1.2,0.3,2.4,0.1,3.6l-2.3,11.8l0,0
	l-12.1,62.1l3.3-3l42.2,45.7l-0.1,0.1l-42.1-45.8l-3.4,3.1l-1.4,7.1c-0.1,0.4-0.1,0.7-0.1,1.1c0-0.4,0.1-0.7,0.1-1.1l1.4-7.1
	l-7.6,7.1l42.1,45.5l-0.1,0.1l-42.2-45.7L158.9,346.5z M223.1,425.9c0.4,1.3,0.4,2.6,0.1,3.8l14.1,15.3c0.5,0.5,0.9,1,1.2,1.6
	l0.1,0.3c-0.4-0.7-0.8-1.4-1.4-2l-14.1-15.3c-0.8,3.3-3.9,5.6-7.1,5.7c3.3-0.1,6.3-2.5,7-5.7l-28.6-30.8l0.1-0.1l0,0l0,0l28.7,31
	C223.5,428.4,223.4,427.2,223.1,425.9z M140.8,316.3L140.8,316.3l11-56.6l0,0L140.8,316.3z M138.8,231.3h0.1c1.3,0,2.5,0.4,3.6,1
	C141.4,231.6,140.2,231.3,138.8,231.3z M139.3,314.7L139.3,314.7L139.3,314.7L139.3,314.7z M102.7,275.2l-29.3,9.2l0,0l-0.1,0
	l-37.7-40.7c-2.5-2.7-2.5-6.3-0.8-8.9c-1.6,2.6-1.5,6.2,0.9,8.8l37.7,40.8l29.4-9.3l30.2,32.7l-3.8,19.7c-0.7,3.4-3.3,5.5-6.2,5.9
	c2.9-0.5,5.5-2.6,6.1-5.9l3.8-19.7L102.7,275.2z M21.9,216.3h32c0,0,0,0,0,0.1h0c0.1,3.9,1.5,7.5,4.2,10.3l4.2,4.6h-0.2l-4.1-4.5
	c-2.6-2.8-4.1-6.6-4.2-10.4h-32c-4.1,0-7.4-3.3-7.4-7.4v-50.4c0-2.6,1.2-4.7,3-6c-1.7,1.3-2.9,3.4-2.9,5.9v50.4
	C14.5,213,17.8,216.3,21.9,216.3z M53.9,207.5v-0.1h14.4v0.1H53.9z M108,202.5c4.2,2.6,4.4,7.7,2,10.9
	C112.4,210.2,112.1,205.1,108,202.5z M127.9,197.3l-74-45.4v-0.1l-0.1-0.1V137c0.1-0.8,0.1-1.5,0.2-2.2l0.1,0
	c-0.2,0.7-0.2,1.4-0.2,2.1v14.9l74,45.4c5.1,3.1,11.1-0.7,11.3-6C139.1,196.5,133,200.3,127.9,197.3z M105.8,76.1L105.8,76.1
	l-7-24.2l0.1-0.1L106,76L105.8,76.1l0.8,2.2l31.6,107.9l-0.1-0.1L106.5,78.3l-48,47.3l48-47.4L105.8,76.1z M83.1,57.4l0.3-0.3
	c5-3.8,10.6-6.6,16.5-8.3C93.9,50.6,88.2,53.5,83.1,57.4z M111.9,70.3l0.1-0.1l0,0l0.7,2.1l-0.1,0.1l-0.6-2.2L111.9,70.3z
	 M146.1,240c0.1-0.5,0.1-1.1,0.1-1.6C146.3,239,146.2,239.6,146.1,240l-4.4,22.8l0,0L146.1,240z M118.7,66.4L118.7,66.4l0.1-0.2
	l0.5-0.5c2.8-2.7,4.3-6.2,4.6-9.6c0,0,0.1,0,0.1,0c-0.3,3.5-1.8,6.9-4.6,9.6L118.7,66.4l30.4,103.4c1,3.6,4,5.3,7.1,5.3
	c-3.1,0.1-6.2-1.7-7.3-5.3L118.7,66.4z M124,56.1C124,56.1,124,56.1,124,56.1c0.4-0.1,0.7-0.1,1.1-0.1C124.7,56,124.3,56.1,124,56.1
	z M135,59.3L135,59.3l-0.2-0.1l0,0L180.5,78c3.4,1.4,5.3,5.1,4.3,8.7c0.9-3.6-0.9-7.3-4.3-8.7L135,59.3z M191.3,121.5
	c0.3-1.3,1-2.4,1.8-3.3c-0.8,0.8-1.4,1.9-1.7,3.2l-3,11.7l0,0L191.3,121.5z M198.3,83.4c-2.1,1.1-3.9,2.8-5.3,4.8
	C194.4,86.2,196.2,84.6,198.3,83.4l18.3,44.9l3.2-12.1l-4.1-9.9c-1-2.5-0.6-4.9,0.6-6.8c-1.2,1.9-1.6,4.3-0.6,6.7l4.1,9.9l3.8-14.6
	c0.1-0.2,0.1-0.4,0.1-0.6c0,0.2-0.1,0.5-0.1,0.7l-3.8,14.6l-3.2,12.1l0,0.1L198.3,83.4z M197.9,82.2c2.7-1.5,6-2,9.3-1.1l3.3,1.4
	c-0.2-0.1-0.4-0.1-0.6-0.2l0.1,0c-1.1-0.4-2.3-0.6-3.4-0.7c1.1,0.1,2.2,0.3,3.3,0.7l-1.4-0.6C204.9,80.2,201.1,80.5,197.9,82.2
	L197.9,82.2C197.9,82.2,197.9,82.2,197.9,82.2c-0.1,0-0.1,0-0.1,0.1l-2.5-6.1l0.2,0.1L197.9,82.2z M122.3,47.4
	c1.6,0.3,3.3,0.6,4.9,1l0,0c2.3,0.6,4.6,1.4,6.9,2.3l61.3,25.4l0,0.1L134,50.8c-2.3-0.9-4.6-1.7-6.9-2.3l0.1,0.1
	c-1.6-0.4-3.2-0.7-4.8-1C122.3,47.5,122.3,47.5,122.3,47.4c-1.6-3.2-4.3-5.8-8-7.4C118,41.5,120.7,44.3,122.3,47.4z M78.2,61.6
	l24.3-24l0.6,2.1c0,0,0,0,0,0c0,0,0,0,0,0l2.3,7.8c4.8-0.8,9.8-1,14.8-0.4c-4.9-0.6-9.9-0.4-14.7,0.5l0-0.1c-1,0.2-2,0.4-3,0.6
	c0.9-0.2,1.9-0.4,2.9-0.6l-2.3-7.8c0,0,0,0,0,0l-0.6-2L80.1,59.9C79.5,60.4,78.8,61,78.2,61.6l-55.9,55.1L78.2,61.6z M18.1,121.5
	L82.4,58c0.2-0.2,0.4-0.3,0.6-0.5l-64.8,63.9c-1.1,1.4-2.2,2.9-3.1,4.4C16,124.3,17,122.9,18.1,121.5z M13.1,129.3
	c-0.8,1.6-1.6,3.2-2.3,4.8l43.1,26.4v0.1v8.7l-0.1-0.1v-8.6l-43-26.4c0,0,0-0.1,0-0.1l-0.1,0C11.4,132.5,12.2,130.9,13.1,129.3z
	 M9.1,139c-1.3,4.7-2.1,9.5-2.1,14.4v0C7,148.5,7.7,143.7,9.1,139L9.1,139z M9.2,136.8c0-1.2,0.1-2.3,0.4-3.3l0,0
	C9.4,134.6,9.2,135.8,9.2,136.8z M13.3,226.8c-1.1-1.2-2-2.5-2.6-3.9c-0.4-0.8-0.7-1.7-1-2.6c0.3,0.9,0.6,1.7,1,2.6
	C11.4,224.3,12.3,225.7,13.3,226.8l54.9,59.4l0.1,0l63.3,68.4c0,0,0,0.1,0,0.1l0,0c0,0,0,0.1,0,0.1l-63.4-68.6L13.3,226.8z
	 M226.3,461.3l-8.7-9.4L65.5,287.2l152.2,164.7l-83.8-90.7c-0.9-1-1.5-2.2-1.9-3.4c0.4,1.2,1,2.3,1.9,3.3l83.8,90.7
	c3.8,4.2,8.2,7.6,12.9,10.2v0c-4.7-2.6-9.1-5.9-12.9-10.1l8.7,9.4c2,2.1,4.4,3,6.6,2.8C230.7,464.3,228.2,463.4,226.3,461.3z
	 M238.4,465.8L234,464c0,0,0.1,0,0.1,0l-2.7-1.1l-0.5-0.6c0,0,0,0,0.1,0l0.5,0.5l2.7,1.1c0,0-0.1,0-0.1,0l1.2,0.5
	c0.7,0.3,1.3,0.6,2,0.8l1.2,0.5h0.2c0.1,0,0.2,0.1,0.3,0.1H238.4z M234.7,463.9c-0.1,0-0.1-0.1-0.2-0.1c4.4-1.1,7.9-5.5,6.4-10.8
	l0.3,0.7C242.2,458.7,238.9,462.8,234.7,463.9z M233.6,411.3l-58.3-159l-4.6,1.5l0-0.1l-11.6-31.5l-0.9,4.8c0,0.1,0.1,0.2,0.1,0.3
	c-0.1,0-0.1-0.1-0.1-0.3l0,0.2c0-0.1,0-0.1-0.1-0.2v0.1c0,0,0,0.1,0,0.2l-4.2,21.7c3.8-3.2,10-2.6,12.9,1.9l0.1,0.2
	c-2.8-4.8-9.1-5.2-12.9-2l0,0.1c-1.4,1.1-2.4,2.8-2.8,4.8l-1.2,6.3l-0.1,0l1.2-6.3c0.4-2.1,1.5-3.8,2.8-4.9l4.3-22
	c-0.8-2.3-0.9-4.7-0.2-7.1c-0.6,2.3-0.5,4.7,0.3,7c-0.1-0.5-0.2-1-0.3-1.5c0.1,0.5,0.2,1,0.3,1.4l0.9-4.8l11.6,31.6l4.7-1.5l0,0
	l24-7.6l-4.8-13.4l4.9,13.4l-24.1,7.6L233.6,411.3c2.1,5.5,8.6,6,12.1,2.8C242.2,417.4,235.7,416.9,233.6,411.3z M160.3,232.8
	l-1.7-4.7c0,0,0,0.1,0,0.1L160.3,232.8z M248,377.5v-0.4l7.4,20.2v0.3l0.1,0.3v42.5l13.7,14.8l-13.7-14.8v0.1l-0.1-0.1v-42.7
	L248,377.5z M255.4,466.2v-1.8c-0.1,0-0.1,0-0.2,0c0.1,0,0.2,0,0.3,0L255.4,466.2L255.4,466.2z M259.9,468.1c-0.1,0-0.2,0.1-0.3,0.1
	c-1.3,0-2.7,0.1-4.1,0.1c1.4,0,2.9-0.1,4.3-0.2c0.9-0.3,1.7-0.7,2.5-1.3c-0.8,0.5-1.6,0.9-2.5,1.3c2.9-0.2,5.7-0.7,8.4-1.4l0.1,0
	C265.5,467.5,262.7,468,259.9,468.1z M265.9,460.2c1.2-1.1,2.2-2.5,2.9-4.2l-0.2,0.6C267.9,458,267,459.1,265.9,460.2z M268.9,466.7
	L268.9,466.7c0.6-0.2,1.3-0.4,2-0.6C270.3,466.3,269.6,466.5,268.9,466.7z M270.4,208.8c-0.1,3.9,3.1,7.4,7.4,7.4h57.1
	c4.2,0,7.4-3.4,7.4-7.4c0.1,4-3.2,7.5-7.4,7.5h-57.1C273.5,216.3,270.3,212.8,270.4,208.8z M274.9,464.6c2.7-1.1,5.4-2.5,8-4.1
	c-1.9,0.4-3.8,0.1-5.6-0.7c1.8,0.8,3.8,1,5.7,0.6c1.8-0.4,3.6-1.3,5.1-3l5.2-5.6c-0.8,0.8-1.6,1.7-2.4,2.5c0.8-0.8,1.6-1.6,2.4-2.5
	l3.9-4.2l6.6-18.1l0.1-0.1l62.6-67.8l2.9-3.2c1.6-1.7,2.3-4.1,1.8-6.4l-13.4-69.7l-0.9-4.5c-1.4-7.4-11.6-8.2-14.2-1.1l-54.5,148.7
	c-0.3,0.9-0.5,1.8-0.5,2.7c0-0.9,0.1-1.8,0.5-2.8l54.5-148.7c2.6-7.1,12.8-6.2,14.2,1.1l0.9,4.5l5-13.6l0,0.1l-5,13.6l13.5,69.6
	c0.5,2.3-0.2,4.7-1.8,6.4l-2.9,3.2L304,429.3l-6.7,18.3l-0.1,0.1l-9.1,9.8c-1.5,1.6-3.3,2.6-5.1,3
	C280.4,462.1,277.7,463.5,274.9,464.6z M354.1,313l7.7,39.8l-14.7,2.9l-5.6-29l5.6,28.9l14.7-2.8L354.1,313z M284,462.8L284,462.8
	l98.3-106.5l-0.1-0.6l0.1,0.6L284,462.8z M504,203.6c0,13-4.9,25.4-13.7,35L445.6,287h0l-63.3,68.5l63.3-68.5l-7.9-2.5l0.1-0.1
	l7.8,2.5l44.7-48.4C499.1,229,504,216.5,504,203.6L504,203.6z M500.4,134.2c0-0.1-0.1-0.1-0.1-0.2l3.6-2.1l0.1,0.1L500.4,134.2z"/>
<circle class="st0" cx="241.3" cy="128.7" r="29.6"/>
<g id="Ebene_2_1_">
</g>
<g id="Capa_1">
	<g>
		<path d="M335.2,116.5l13.2,52.2c1.9,7.3,12.2,7.5,14.3,0.3L393,65.3c0.3-1.1,0.4-2.3,0.2-3.3l-27,11.3L335.2,116.5z"/>
		
			<linearGradient id="SVGID_1_" gradientUnits="userSpaceOnUse" x1="364.252" y1="465.4239" x2="364.252" y2="43.887" gradientTransform="matrix(1 0 0 -1 0 512)">
			<stop  offset="0" style="stop-color:#3FD1FF"/>
			<stop  offset="1" style="stop-color:#FF2AEE"/>
		</linearGradient>
		<path class="st1" d="M335.2,116.5l13.2,52.2c1.9,7.3,12.2,7.5,14.3,0.3L393,65.3c0.3-1.1,0.4-2.3,0.2-3.3l-27,11.3L335.2,116.5z"
			/>
		<path d="M497,208.6v-50.4c0-5.8-6.3-9.3-11.3-6.3L381.1,216h108.5C493.7,216,497,212.7,497,208.6z M489.1,206.7h-15V169h15V206.7z
			"/>
		
			<linearGradient id="SVGID_2_" gradientUnits="userSpaceOnUse" x1="439.05" y1="465.4239" x2="439.05" y2="43.887" gradientTransform="matrix(1 0 0 -1 0 512)">
			<stop  offset="0" style="stop-color:#3FD1FF"/>
			<stop  offset="1" style="stop-color:#FF2AEE"/>
		</linearGradient>
		<path class="st2" d="M497,208.6v-50.4c0-5.8-6.3-9.3-11.3-6.3L381.1,216h108.5C493.7,216,497,212.7,497,208.6z M489.1,206.7h-15
			V169h15V206.7z"/>
		<path d="M475.9,243.5c4.4-4.7,1-12.4-5.4-12.4h-97.8c-4.7,0-8.2,4.3-7.3,8.8l4.4,22.8l68.4,21.6L475.9,243.5z"/>
		
			<linearGradient id="SVGID_3_" gradientUnits="userSpaceOnUse" x1="421.5723" y1="465.4239" x2="421.5723" y2="43.887" gradientTransform="matrix(1 0 0 -1 0 512)">
			<stop  offset="0" style="stop-color:#3FD1FF"/>
			<stop  offset="1" style="stop-color:#FF2AEE"/>
		</linearGradient>
		<path class="st3" d="M475.9,243.5c4.4-4.7,1-12.4-5.4-12.4h-97.8c-4.7,0-8.2,4.3-7.3,8.8l4.4,22.8l68.4,21.6L475.9,243.5z"/>
		<path d="M395.1,330.9l43.1-46.7l-68.4-21.6l12.6,64.7C383.5,333.3,391,335.4,395.1,330.9z"/>
		
			<linearGradient id="SVGID_4_" gradientUnits="userSpaceOnUse" x1="404" y1="465.4239" x2="404" y2="43.887" gradientTransform="matrix(1 0 0 -1 0 512)">
			<stop  offset="0" style="stop-color:#3FD1FF"/>
			<stop  offset="1" style="stop-color:#FF2AEE"/>
		</linearGradient>
		<path class="st4" d="M395.1,330.9l43.1-46.7l-68.4-21.6l12.6,64.7C383.5,333.3,391,335.4,395.1,330.9z"/>
		<polygon points="103.3,274.9 133.5,307.6 142.2,262.6 		"/>
		
			<linearGradient id="SVGID_5_" gradientUnits="userSpaceOnUse" x1="122.75" y1="465.4239" x2="122.75" y2="43.887" gradientTransform="matrix(1 0 0 -1 0 512)">
			<stop  offset="0" style="stop-color:#3FD1FF"/>
			<stop  offset="1" style="stop-color:#FF2AEE"/>
		</linearGradient>
		<polygon class="st5" points="103.3,274.9 133.5,307.6 142.2,262.6 		"/>
		<path d="M163.8,169.4l13.6-52.1L135.5,59l-6.5-2.7c-1.5-0.6-3.1-0.7-4.5-0.4c-0.3,3.5-1.8,6.9-4.6,9.6l-0.6,0.6l30.3,103.5
			C151.6,176.8,161.9,176.7,163.8,169.4z"/>
		
			<linearGradient id="SVGID_6_" gradientUnits="userSpaceOnUse" x1="148.35" y1="465.4239" x2="148.35" y2="43.887" gradientTransform="matrix(1 0 0 -1 0 512)">
			<stop  offset="0" style="stop-color:#3FD1FF"/>
			<stop  offset="1" style="stop-color:#FF2AEE"/>
		</linearGradient>
		<path class="st6" d="M163.8,169.4l13.6-52.1L135.5,59l-6.5-2.7c-1.5-0.6-3.1-0.7-4.5-0.4c-0.3,3.5-1.8,6.9-4.6,9.6l-0.6,0.6
			l30.3,103.5C151.6,176.8,161.9,176.7,163.8,169.4z"/>
		<path d="M142.2,262.6l4.4-22.8c0.9-4.6-2.6-8.8-7.3-8.8H62.8l40.6,43.9L142.2,262.6z"/>
		
			<linearGradient id="SVGID_7_" gradientUnits="userSpaceOnUse" x1="104.7708" y1="465.4239" x2="104.7708" y2="43.887" gradientTransform="matrix(1 0 0 -1 0 512)">
			<stop  offset="0" style="stop-color:#3FD1FF"/>
			<stop  offset="1" style="stop-color:#FF2AEE"/>
		</linearGradient>
		<path class="st7" d="M142.2,262.6l4.4-22.8c0.9-4.6-2.6-8.8-7.3-8.8H62.8l40.6,43.9L142.2,262.6z"/>
		<path d="M108.5,202.3l-54.1-33.1v23h14.4v15H54.4v8.7c0,0.1,0,0.1,0,0.2h50.2C112.1,216,114.8,206.2,108.5,202.3z"/>
		
			<linearGradient id="SVGID_8_" gradientUnits="userSpaceOnUse" x1="83.2071" y1="465.4239" x2="83.2071" y2="43.887" gradientTransform="matrix(1 0 0 -1 0 512)">
			<stop  offset="0" style="stop-color:#3FD1FF"/>
			<stop  offset="1" style="stop-color:#FF2AEE"/>
		</linearGradient>
		<path class="st8" d="M108.5,202.3l-54.1-33.1v23h14.4v15H54.4v8.7c0,0.1,0,0.1,0,0.2h50.2C112.1,216,114.8,206.2,108.5,202.3z"/>
		<path d="M333.2,231h-62.3c-0.3,0-0.6,0-0.9,0.1l66.2,20.9l4-11C341.9,236.1,338.4,231,333.2,231z"/>
		
			<linearGradient id="SVGID_9_" gradientUnits="userSpaceOnUse" x1="305.3168" y1="465.4239" x2="305.3168" y2="43.887" gradientTransform="matrix(1 0 0 -1 0 512)">
			<stop  offset="0" style="stop-color:#3FD1FF"/>
			<stop  offset="1" style="stop-color:#FF2AEE"/>
		</linearGradient>
		<path class="st9" d="M333.2,231h-62.3c-0.3,0-0.6,0-0.9,0.1l66.2,20.9l4-11C341.9,236.1,338.4,231,333.2,231z"/>
		
			<linearGradient id="SVGID_10_" gradientUnits="userSpaceOnUse" x1="305.3168" y1="43.3367" x2="305.3168" y2="431.6348" gradientTransform="matrix(1 0 0 -1 0 512)">
			<stop  offset="0" style="stop-color:#3FD1FF"/>
			<stop  offset="1" style="stop-color:#FF2AEE"/>
		</linearGradient>
		<path class="st10" d="M333.2,231h-62.3c-0.3,0-0.6,0-0.9,0.1l66.2,20.9l4-11C341.9,236.1,338.4,231,333.2,231z"/>
		<path d="M278.3,216h57.1c4.8,0,8.4-4.5,7.2-9.2l-18.8-74.4l-17.9,24.9l9.3-2.4l10.2,40.5l-14.5,3.7l-9.1-36.2l-29.7,41.4l-0.6,1.5
			C269.4,210.7,273,216,278.3,216z"/>
		
			<linearGradient id="SVGID_11_" gradientUnits="userSpaceOnUse" x1="306.8622" y1="465.4239" x2="306.8622" y2="43.887" gradientTransform="matrix(1 0 0 -1 0 512)">
			<stop  offset="0" style="stop-color:#3FD1FF"/>
			<stop  offset="1" style="stop-color:#FF2AEE"/>
		</linearGradient>
		<path class="st11" d="M278.3,216h57.1c4.8,0,8.4-4.5,7.2-9.2l-18.8-74.4l-17.9,24.9l9.3-2.4l10.2,40.5l-14.5,3.7l-9.1-36.2
			l-29.7,41.4l-0.6,1.5C269.4,210.7,273,216,278.3,216z"/>
		
			<linearGradient id="SVGID_12_" gradientUnits="userSpaceOnUse" x1="306.8622" y1="43.3367" x2="306.8622" y2="431.6348" gradientTransform="matrix(1 0 0 -1 0 512)">
			<stop  offset="0" style="stop-color:#3FD1FF"/>
			<stop  offset="1" style="stop-color:#FF2AEE"/>
		</linearGradient>
		<path class="st12" d="M278.3,216h57.1c4.8,0,8.4-4.5,7.2-9.2l-18.8-74.4l-17.9,24.9l9.3-2.4l10.2,40.5l-14.5,3.7l-9.1-36.2
			l-29.7,41.4l-0.6,1.5C269.4,210.7,273,216,278.3,216z"/>
		<path d="M263.5,238.4v170c0,8.3,11.5,10.3,14.4,2.6l58.3-159L270,231.1C266.3,231.6,263.5,234.7,263.5,238.4z"/>
		
			<linearGradient id="SVGID_13_" gradientUnits="userSpaceOnUse" x1="299.85" y1="465.4239" x2="299.85" y2="43.887" gradientTransform="matrix(1 0 0 -1 0 512)">
			<stop  offset="0" style="stop-color:#3FD1FF"/>
			<stop  offset="1" style="stop-color:#FF2AEE"/>
		</linearGradient>
		<path class="st13" d="M263.5,238.4v170c0,8.3,11.5,10.3,14.4,2.6l58.3-159L270,231.1C266.3,231.6,263.5,234.7,263.5,238.4z"/>
		
			<linearGradient id="SVGID_14_" gradientUnits="userSpaceOnUse" x1="299.85" y1="43.3367" x2="299.85" y2="431.6348" gradientTransform="matrix(1 0 0 -1 0 512)">
			<stop  offset="0" style="stop-color:#3FD1FF"/>
			<stop  offset="1" style="stop-color:#FF2AEE"/>
		</linearGradient>
		<path class="st14" d="M263.5,238.4v170c0,8.3,11.5,10.3,14.4,2.6l58.3-159L270,231.1C266.3,231.6,263.5,234.7,263.5,238.4z"/>
		<path d="M248.5,376.9V238.4c0-3.8-2.8-6.9-6.5-7.3l-42,13.3L248.5,376.9z"/>
		
			<linearGradient id="SVGID_15_" gradientUnits="userSpaceOnUse" x1="224.25" y1="465.4239" x2="224.25" y2="43.887" gradientTransform="matrix(1 0 0 -1 0 512)">
			<stop  offset="0" style="stop-color:#3FD1FF"/>
			<stop  offset="1" style="stop-color:#FF2AEE"/>
		</linearGradient>
		<path class="st15" d="M248.5,376.9V238.4c0-3.8-2.8-6.9-6.5-7.3l-42,13.3L248.5,376.9z"/>
		
			<linearGradient id="SVGID_16_" gradientUnits="userSpaceOnUse" x1="224.25" y1="43.3367" x2="224.25" y2="431.6348" gradientTransform="matrix(1 0 0 -1 0 512)">
			<stop  offset="0" style="stop-color:#3FD1FF"/>
			<stop  offset="1" style="stop-color:#FF2AEE"/>
		</linearGradient>
		<path class="st16" d="M248.5,376.9V238.4c0-3.8-2.8-6.9-6.5-7.3l-42,13.3L248.5,376.9z"/>
		<path d="M240.7,205.8l-0.4-1l-31.7-44L194.3,216h39.6C239.1,216,242.7,210.7,240.7,205.8z"/>
		
			<linearGradient id="SVGID_17_" gradientUnits="userSpaceOnUse" x1="217.7805" y1="465.4239" x2="217.7805" y2="43.887" gradientTransform="matrix(1 0 0 -1 0 512)">
			<stop  offset="0" style="stop-color:#3FD1FF"/>
			<stop  offset="1" style="stop-color:#FF2AEE"/>
		</linearGradient>
		<path class="st17" d="M240.7,205.8l-0.4-1l-31.7-44L194.3,216h39.6C239.1,216,242.7,210.7,240.7,205.8z"/>
		
			<linearGradient id="SVGID_18_" gradientUnits="userSpaceOnUse" x1="217.7805" y1="43.3367" x2="217.7805" y2="431.6348" gradientTransform="matrix(1 0 0 -1 0 512)">
			<stop  offset="0" style="stop-color:#3FD1FF"/>
			<stop  offset="1" style="stop-color:#FF2AEE"/>
		</linearGradient>
		<path class="st18" d="M240.7,205.8l-0.4-1l-31.7-44L194.3,216h39.6C239.1,216,242.7,210.7,240.7,205.8z"/>
		<path d="M242,231.1c-0.3,0-0.6-0.1-0.9-0.1h-46l4.9,13.4L242,231.1z"/>
		
			<linearGradient id="SVGID_19_" gradientUnits="userSpaceOnUse" x1="218.55" y1="465.4239" x2="218.55" y2="43.887" gradientTransform="matrix(1 0 0 -1 0 512)">
			<stop  offset="0" style="stop-color:#3FD1FF"/>
			<stop  offset="1" style="stop-color:#FF2AEE"/>
		</linearGradient>
		<path class="st19" d="M242,231.1c-0.3,0-0.6-0.1-0.9-0.1h-46l4.9,13.4L242,231.1z"/>
		
			<linearGradient id="SVGID_20_" gradientUnits="userSpaceOnUse" x1="218.55" y1="43.3367" x2="218.55" y2="431.6348" gradientTransform="matrix(1 0 0 -1 0 512)">
			<stop  offset="0" style="stop-color:#3FD1FF"/>
			<stop  offset="1" style="stop-color:#FF2AEE"/>
		</linearGradient>
		<path class="st20" d="M242,231.1c-0.3,0-0.6-0.1-0.9-0.1h-46l4.9,13.4L242,231.1z"/>
		<path class="st21" d="M248.5,408.5v-31.6L200,244.4l-24.1,7.6l58.3,159C237,418.8,248.5,416.8,248.5,408.5z"/>
		<path class="st21" d="M195.1,231h-16.3c-5.2,0-8.7,5.1-7,10l4,11l24.1-7.6L195.1,231z"/>
		<path class="st21" d="M188.7,133.1l-19.2,73.7c-1.2,4.7,2.3,9.3,7.2,9.3h17.5l14.4-55.2L188.7,133.1z"/>
		<path class="st22" d="M59,125.4c-2.5,2.4-4,5.6-4.5,9.1l84.1,51.6L107,78.1L59,125.4z"/>
		<path class="st21" d="M54.4,136.6v14.9l74,45.4c5.8,3.5,12.9-1.9,11-8.4l-0.7-2.5l-84.1-51.6C54.4,135.2,54.4,135.9,54.4,136.6z"
			/>
		<path class="st22" d="M484.3,135.2c4.1-2.5,4.8-8.2,1.3-11.6L426,64.7l-37.9,129.4L484.3,135.2z"/>
		<path class="st21" d="M409.2,63.5l-36.6,125c-1.9,6.5,5.2,11.9,11,8.4l4.5-2.8L426,64.7l-4.5-4.4
			C417.5,56.4,410.8,58.1,409.2,63.5z"/>
		<path class="st23" d="M393.2,62c-0.7-4.4-5.5-7.6-10.2-5.6l-6.6,2.8l-10.2,14.1L393.2,62z"/>
		<path class="st23" d="M354.6,312.8l7.7,39.8l-14.7,2.9l-5.6-29l-37.6,102.6l62.6-67.8l2.9-3.2c1.6-1.7,2.3-4.1,1.8-6.4L358.3,282
			l-11.9,32.4L354.6,312.8z"/>
		<path class="st23" d="M163,343.2l42.2,45.7l-10.2,9.4l28.7,31c0.3-1.3,0.2-2.7-0.3-4.3l-51.6-140.9l-12.1,62.1L163,343.2z"/>
		<path class="st23" d="M129.6,327.3l3.8-19.7L103.2,275l-29.5,9.3l43.1,46.7C121,335.4,128.5,333.3,129.6,327.3z"/>
		<path class="st23" d="M124.4,55.9c-3.9,0.9-6.8,4.9-5.5,9.3l0.3,0.9l0.6-0.6C122.6,62.8,124.1,59.3,124.4,55.9z"/>
		<path class="st23" d="M62.8,231H41.6c-6.5,0-9.8,7.7-5.4,12.4l37.7,40.8l29.5-9.3L62.8,231z"/>
		<path class="st23" d="M54.4,207.1H32.1v-15h22.3v-23l-28.1-17.2c-4.9-3-11.3,0.5-11.3,6.3v50.4c0,4.1,3.3,7.4,7.4,7.4h32
			c0-0.1,0-0.1,0-0.2L54.4,207.1z"/>
		<path class="st23" d="M54.5,134.5c0.5-3.4,2-6.6,4.5-9.1L107,78l-0.7-2.2l-56.6,55.8L54.5,134.5z"/>
		<path class="st23" d="M54.5,134.5l-4.7-2.9l56.6-55.8l-7.1-24.2l-73,72c-3.4,3.4-2.8,9.1,1.3,11.6l26.7,16.4v-14.9
			C54.4,135.9,54.4,135.2,54.5,134.5z"/>
		<path class="st23" d="M154.6,277.5l-14.4,74.1c-0.5,2.3,0.2,4.7,1.8,6.4l2.9,3.2l65.9,71.4c4.4,4.8,11.5,1.9,12.7-3.3l-28.7-31
			L194,399l-42.2-45.7l7.6-7.1l12.1-62.1l-2.8-7.7C166.2,269.3,156,270.1,154.6,277.5z"/>
		<path class="st21" d="M343.2,276.4l-54.5,148.7c-2.8,7.6,6.9,13.5,12.4,7.6l3.3-3.6L342,326.5l-2.1-10.8l6.5-1.3l11.9-32.4
			l-0.9-4.5C356,270.1,345.8,269.3,343.2,276.4z"/>
		<path class="st0" d="M428.3,375.3c-12.7,0-23,10.3-23,23s10.3,23,23,23s23-10.3,23-23C451.3,385.6,441,375.3,428.3,375.3z
			 M428.3,406.3c-4.4,0-8-3.6-8-8s3.6-8,8-8s8,3.6,8,8S432.8,406.3,428.3,406.3z"/>
		<path class="st0" d="M237.1,56.7c12.7,0,23-10.3,23-23s-10.3-23-23-23s-23,10.3-23,23C214.1,46.3,224.4,56.7,237.1,56.7z
			 M237.1,25.6c4.4,0,8,3.6,8,8s-3.6,8-8,8s-8-3.6-8-8S232.7,25.6,237.1,25.6z"/>
		<path class="st0" d="M118.5,390.8h-10.4c-1.5,0-2.7-1.2-2.7-2.7v-10.4c0-1.5-1.2-2.7-2.7-2.7h-9.6c-1.5,0-2.7,1.2-2.7,2.7v10.4
			c0,1.5-1.2,2.7-2.7,2.7H77.5c-1.5,0-2.7,1.2-2.7,2.7v9.6c0,1.5,1.2,2.7,2.7,2.7h10.4c1.5,0,2.7,1.2,2.7,2.7v10.4
			c0,1.5,1.2,2.7,2.7,2.7h9.6c1.5,0,2.7-1.2,2.7-2.7v-10.4c0-1.5,1.2-2.7,2.7-2.7h10.4c1.5,0,2.7-1.2,2.7-2.7v-9.6
			C121.2,392,120,390.8,118.5,390.8z"/>
		<path class="st0" d="M19.8,43.5h9.7c1.7,0,3,1.3,3,3v9.7c0,1.7,1.3,3,3,3h9c1.7,0,3-1.3,3-3v-9.7c0-1.7,1.3-3,3-3h9.7
			c1.7,0,3-1.3,3-3v-9c0-1.7-1.3-3-3-3h-9.7c-1.7,0-3-1.3-3-3v-9.7c0-1.7-1.3-3-3-3h-9c-1.7,0-3,1.3-3,3v9.7c0,1.7-1.3,3-3,3h-9.7
			c-1.7,0-3,1.3-3,3v9C16.8,42.2,18.2,43.5,19.8,43.5z"/>
		<rect x="46.3" y="319.9" class="st0" width="16.3" height="15"/>
		<rect x="158.6" y="449.1" class="st0" width="16.3" height="15"/>
		<rect x="361.5" y="436.1" class="st0" width="16.3" height="15"/>
		<rect x="279.9" y="47" class="st0" width="16.3" height="15"/>
		<rect x="446.4" y="322.6" class="st0" width="16.3" height="15"/>
		<polygon class="st0" points="0,128.5 0,130 0.7,127.8 		"/>
		<path class="st0" d="M512,201.9v-47.2c0-16.8-6.7-32.9-18.7-44.6l-82.6-81.5L393.1,36l-7.7,10.7L411.1,36l13.4,13l-2.7,1.1
			l6.6,6.5l0,0l5,4.9l0,0l55.7,55l0.1,0.1l15.3,15.1l-3.7,2.3c2.4,6.1,3.7,12.6,3.7,19.2v50.2c0,13-4.9,25.4-13.7,35l-44.7,48.4
			l7.9,2.5l41.4-44.8C506.1,232.9,512,217.7,512,201.9z"/>
		<path class="st0" d="M382.7,355.4l0.1,0.6l-98.3,106.5l-11.5,4l-3.8-0.1c-2.9,0.8-5.9,1.3-8.8,1.5c-1.4,0.5-2.8,0.7-4.3,0.7v5.2
			c16.8,0,33.6-6.7,46-20.2L454,289.3l-7.9-2.5L382.7,355.4z"/>
		<path class="st0" d="M251.7,467.9c-4.1-0.3-8.1-1.2-12-2.4h-0.8l-4.4-1.8c-2.6,0.5-5.5-0.2-7.7-2.7l-8.7-9.4l0,0L65.9,286.8
			l-7.9,2.5l152,164.4c12.4,13.4,29.2,20.1,46,20.2v-5.2C254.5,468.7,253.1,468.4,251.7,467.9z"/>
		<path class="st0" d="M16.6,244.5L58,289.3l7.9-2.5l-44.7-48.4c-4.3-4.7-7.7-10-10-15.8c-0.4-0.8-0.7-1.7-1-2.6
			c-1.8-5.3-2.7-10.9-2.7-16.6v-50.2c0-5.1,0.7-10,2.2-14.8v-1.8c0-1.2,0.1-2.3,0.4-3.4l-2.6-1.6l15.3-15.1l0,0l55.9-55.1l0,0
			l24.3-24l0.6,2.1c3.6-1.2,7.5-1.2,11.2,0.3s6.4,4.2,8,7.4c1.6,0.3,3.3,0.6,4.9,1l-8.9-12.3l-17.5-7.2L0.7,127.8L0,130v71.9
			C0,217.7,5.9,232.9,16.6,244.5z"/>
		<path class="st0" d="M489.2,116.5l-55.7-55l0,0L489.2,116.5C489.2,116.6,489.2,116.5,489.2,116.5z"/>
		<polygon class="st0" points="356.6,222.3 354.6,223.5 355.1,226.4 		"/>
		<path class="st0" d="M364.3,260.9l5.5,1.7l-4.4-22.8c-0.9-4.6,2.6-8.8,7.3-8.8h97.8c6.5,0,9.8,7.7,5.4,12.4l-37.7,40.8l7.9,2.5
			l44.7-48.4c8.8-9.5,13.7-22,13.7-35v-50.2c0-6.7-1.3-13.2-3.7-19.2l-144,88.2L364.3,260.9z M485.7,151.9c4.9-3,11.3,0.5,11.3,6.3
			v50.4c0,4.1-3.3,7.4-7.4,7.4H381.1L485.7,151.9z"/>
		<path class="st0" d="M393,65.3l-30.3,103.6c-2.1,7.2-12.5,7.1-14.3-0.3l-13.2-52.2l-5.7,8l24.1,95.3c0.6,2.4,0.5,5-0.4,7.4
			l1.3-3.6L403,58l-9.8,4.1C393.4,63.1,393.4,64.2,393,65.3z"/>
		<path class="st0" d="M272.6,447.3l68.1-186l-71,193.7l1,1c0.1,0.1,0.1,0.1,0.2,0.2l1.3-3.5C271.8,451.1,271.8,449.3,272.6,447.3z"
			/>
		<path class="st0" d="M395.1,330.9c-4.1,4.5-11.6,2.3-12.7-3.6l-12.6-64.7l-5.5-1.7l18.4,94.5l63.4-68.6l-7.9-2.5L395.1,330.9z"/>
		<path class="st0" d="M260.3,467.9c3-0.2,5.9-0.7,8.8-1.5l-5.7-0.2C262.5,467,261.4,467.5,260.3,467.9z"/>
		<path class="st0" d="M239.7,465.5c3.9,1.3,7.9,2.1,12,2.4c-1.4-0.5-2.7-1.2-3.8-2.2L239.7,465.5z"/>
		<polygon class="st0" points="142.2,262.6 133.5,307.6 139.8,314.4 150.3,260.1 		"/>
		<path class="st0" d="M218.2,451.6l-83.8-90.7c-1.6-1.7-2.4-4.1-2.3-6.4l-63.4-68.6l-2.8,0.9L218.2,451.6L218.2,451.6z"/>
		<path class="st0" d="M124.4,55.9c1.4-0.3,2.9-0.2,4.5,0.4l6.5,2.7l-7.7-10.7c-1.6-0.4-3.3-0.7-4.9-1
			C124.1,49.9,124.7,52.9,124.4,55.9z"/>
		<path class="st0" d="M9.7,138.4c-1.4,4.8-2.2,9.7-2.2,14.8v50.2c0,5.7,0.9,11.3,2.7,16.6c-0.4-1.3-0.6-2.7-0.6-4.1L9.7,138.4z"/>
		<polygon class="st0" points="78.7,61.4 22.8,116.5 22.8,116.5 		"/>
		<path class="st0" d="M146.6,239.9l-4.4,22.8l8.1-2.6l1.2-6.3c0.4-2.1,1.5-3.8,2.8-4.9l4.3-22c-0.8-2.3-0.9-4.7-0.2-7.1l24.6-94.6
			l-5.7-7.9l-13.6,52.1c-1.9,7.3-12.2,7.4-14.3,0.2L119.2,66.1l-6.1,6l44.3,151.4l-103-63.1v8.8l54.1,33.1
			c6.4,3.9,3.6,13.7-3.9,13.7H54.4c0.1,3.9,1.5,7.6,4.2,10.4l4.2,4.6h76.6C144,231,147.5,235.3,146.6,239.9z"/>
		<path class="st0" d="M13.8,226.5c-1.1-1.2-2-2.5-2.6-3.9c2.3,5.8,5.7,11.2,10,15.8l44.7,48.4l2.8-0.9L13.8,226.5z"/>
		<path class="st0" d="M256,468.1v0.6c1.5,0,2.9-0.3,4.3-0.7C258.9,468,257.4,468.1,256,468.1z"/>
		<path class="st0" d="M251.7,467.9c1.4,0.5,2.8,0.7,4.3,0.7V468C254.6,468.1,253.1,468,251.7,467.9z"/>
		<path class="st0" d="M353.6,219.8l-24.1-95.3l-5.7,8l18.8,74.4c1.2,4.7-2.4,9.2-7.2,9.2h-57.1c-5.3,0-8.9-5.4-6.8-10.3l0.6-1.5
			L256,226.7l14,4.4c0.3,0,0.6-0.1,0.9-0.1h62.3c5.2,0,8.7,5.1,7,10l-4,11l7.2,2.3l9.9-27.1C354.1,224.8,354.2,222.2,353.6,219.8z"
			/>
		<path class="st0" d="M343.3,254.3l-7.2-2.3l-58.3,159c-2.9,7.8-14.4,5.7-14.4-2.6v-170c0-3.8,2.8-6.9,6.5-7.3l-14-4.4v170.7
			l15.6,42.5c1.2,3.3,1.2,6.9,0,10.2l-1.6,4.3c-0.1,0.2-0.2,0.5-0.3,0.7l0,0l71-193.7L343.3,254.3z"/>
		<path class="st0" d="M256,466v2.1c1.4,0,2.9-0.1,4.3-0.2c1.1-0.4,2.2-1,3.2-1.7L256,466z"/>
		<path class="st0" d="M248.5,238.4v138.5l7.5,20.5V226.7l-14,4.4C245.7,231.6,248.5,234.7,248.5,238.4z"/>
		<path class="st0" d="M256,466l-8.1-0.3c1.1,1,2.4,1.7,3.8,2.2c1.4,0.1,2.9,0.2,4.3,0.2V466z"/>
		<path class="st0" d="M240.7,205.8c2,4.9-1.6,10.2-6.9,10.2h-39.6l-0.8,3c-0.8,2.9-0.6,6,0.4,8.9l1.1,3.1h46c0.3,0,0.6,0,0.9,0.1
			l14-4.4l-15.7-21.8L240.7,205.8z"/>
		<path class="st0" d="M158.7,226.8L158.7,226.8c-0.7-2.6-0.7-5.3-0.1-7.8l24.4-93.8l0,0l-24.6,94.6
			C157.8,222.1,157.9,224.5,158.7,226.8z"/>
		<path class="st0" d="M269.7,455c0.1-0.2,0.2-0.4,0.3-0.7l1.6-4.3c1.2-3.3,1.2-6.9,0-10.2L256,397.4v42.8L269.7,455z"/>
		<path class="st0" d="M248.5,408.5c0,8.3-11.5,10.3-14.4,2.6l-58.3-159l-4.7,1.5l57.6,157.3l27.2,29.4v-42.8l-7.5-20.5L248.5,408.5
			L248.5,408.5z"/>
		<path class="st0" d="M171.2,253.5l4.7-1.5l-4-11c-1.8-4.8,1.8-10,7-10h16.3l-1.1-3.1c-1-2.8-1.2-5.9-0.4-8.9l0.8-3H177
			c-4.9,0-8.4-4.6-7.2-9.3L189,133l-5.7-7.9L158.6,219c-0.7,2.5-0.6,5.2,0.1,7.7l0.9-4.8L171.2,253.5z"/>
		<polygon class="st0" points="138.7,186.1 148.2,191.9 157.4,223.5 113.1,72.1 107.1,78.1 		"/>
		<path class="st0" d="M103.6,39.5l-0.6-2.1L103.6,39.5z"/>
		<path class="st0" d="M18.6,121.2c1.3-1.6,2.7-3.2,4.2-4.7L7.5,131.6l2.6,1.6c0.7-2.9,2.1-5.6,4.3-7.8L18.6,121.2z"/>
		<path class="st0" d="M97.8,43.2c1.7-1.7,3.7-2.9,5.8-3.6l-0.6-2.1l-24.3,24c1.5-1.5,3.1-2.9,4.8-4.2L97.8,43.2z"/>
		<path class="st0" d="M83.5,57.2c-1.7,1.3-3.3,2.7-4.8,4.2l-55.9,55.1c-1.5,1.5-2.9,3.1-4.2,4.7L83.5,57.2z"/>
		<path class="st0" d="M148.2,191.9l-9.5-5.8l0.7,2.5c1.9,6.5-5.2,11.9-11,8.4l-74-45.4v8.8l103.1,63.2L148.2,191.9z"/>
		<path class="st0" d="M433.4,61.5l-5-4.9l-0.1,0.5C430,58.4,431.8,59.9,433.4,61.5z"/>
		<path class="st0" d="M504.5,131.6l-15.3-15.1c5,5,8.9,10.9,11.5,17.3L504.5,131.6z"/>
		<path class="st0" d="M426,64.7l59.7,58.9c3.4,3.4,2.8,9.1-1.3,11.6l-96.2,59l-3.1,10.7l-28.2,17.3l0,0l144-88.2
			c-2.6-6.4-6.5-12.4-11.5-17.3l-55.9-55.1c-1.6-1.6-3.3-3.1-5.1-4.4L426,64.7z"/>
		<path class="st0" d="M356.6,222.3l-2,1.2L356.6,222.3z"/>
		<polygon class="st0" points="428.4,56.6 428.4,56.6 421.8,50.1 421.8,50.1 		"/>
		<path class="st0" d="M418.7,51.4c3.3,1.5,6.5,3.4,9.5,5.7l0.1-0.5l-6.6-6.5L418.7,51.4z"/>
		<path class="st0" d="M354.6,223.5l2.1-1.3l0.1-0.3v0.2l28.2-17.3l3.1-10.7l-4.5,2.8c-5.8,3.5-12.9-1.9-11-8.4l36.6-125
			c1.6-5.4,8.3-7.1,12.3-3.2l4.5,4.4l2.2-7.7c-3-2.2-6.2-4.1-9.5-5.7L403,58L354.6,223.5z"/>
		<path class="st0" d="M231.3,461.8c-4.8-2.6-9.2-6-13.1-10.2l8.7,9.4c2.3,2.4,5.1,3.2,7.7,2.7l-2.7-1.1L231.3,461.8z"/>
		<polygon class="st0" points="139.8,314.4 141.3,316.1 152.3,259.4 150.3,260.1 		"/>
		<path class="st0" d="M231.3,461.8l-99.2-107.4c-0.2,2.3,0.7,4.6,2.3,6.4l83.8,90.7C222.1,455.8,226.5,459.2,231.3,461.8z"/>
		<path class="st0" d="M151.6,253.8l-1.2,6.3l2-0.6l2.1-10.6C153,250,152,251.7,151.6,253.8z"/>
		<path class="st0" d="M406.1,47.5l2.9-10l12.8,12.7l2.7-1.1L411.2,36l-25.7,10.7l-1.3,1.8C391.4,46.5,398.9,46.2,406.1,47.5z"/>
		<path class="st0" d="M383.1,56.4c4.7-1.9,9.5,1.2,10.2,5.6l9.7-4l3.1-10.5c-7.2-1.3-14.6-1-21.9,0.9l-7.8,10.8L383.1,56.4z"/>
		<polygon class="st0" points="421.8,50.1 421.8,50.1 409,37.4 		"/>
		<path class="st0" d="M421.8,50.1L409,37.4l-2.9,10c4.4,0.8,8.6,2.1,12.7,3.9L421.8,50.1z"/>
		<path class="st0" d="M418.7,51.4c-4-1.9-8.3-3.2-12.7-3.9L403,58L418.7,51.4z"/>
		<path class="st0" d="M297.7,447.4l-9.1,9.8c-1.5,1.6-3.3,2.6-5.1,3c-4.5,2.9-9.4,4.9-14.4,6.3l3.8,0.1l11.5-4L382.8,356l-0.1-0.6
			L297.7,447.4L297.7,447.4z"/>
		<path class="st0" d="M234.6,463.6l4.4,1.8h0.8c-1.7-0.5-3.3-1.2-4.9-1.9C234.8,463.6,234.7,463.6,234.6,463.6z"/>
		<path class="st0" d="M11.2,222.5c-0.3-0.8-0.7-1.7-1-2.6C10.5,220.8,10.8,221.7,11.2,222.5z"/>
		<path class="st0" d="M10.1,133.2c-0.2,1.1-0.4,2.3-0.4,3.4v1.8c0.5-1.5,1-3,1.6-4.5L10.1,133.2z"/>
		<path class="st0" d="M122.8,47.2c-1.6-3.2-4.3-5.8-8-7.4c-3.6-1.5-7.6-1.6-11.2-0.3l2.3,7.8C111.4,46.4,117.1,46.3,122.8,47.2z"/>
		<polygon class="st0" points="355.1,226.4 361.7,260.1 364.3,260.9 356.8,222.2 356.6,222.3 		"/>
		<path class="st0" d="M361.7,260.1l1.6,8.3l-5,13.6l13.5,69.6c0.5,2.3-0.2,4.7-1.8,6.4l-2.9,3.2L304.5,429l-6.7,18.3l85-92
			l-18.4-94.5L361.7,260.1z"/>
		<path class="st0" d="M272.1,452.8l-1.3,3.5c-0.1-0.1-0.1-0.1-0.2-0.2l-1-1l-2,5.4c-0.9,2.5-2.4,4.4-4.3,5.8l5.7,0.2
			c5-1.3,9.9-3.4,14.4-6.3C278.6,461.2,273.3,457.8,272.1,452.8z"/>
		<path class="st0" d="M139.8,314.4l-6.3-6.8l-3.8,19.7c-1.2,6-8.6,8.1-12.7,3.6l-43.1-46.7l-5.1,1.6l63.4,68.6
			c0-0.4,0.1-0.7,0.1-1.1L139.8,314.4z"/>
		<path class="st0" d="M244.3,460.5l-75.5-206.2l0,0l4.9,13.4c0.5,1.5,0.7,3.1,0.4,4.6l-2.3,11.9l51.6,140.9c0.6,1.5,0.6,3,0.3,4.3
			l14.1,15.3c0.8,0.8,1.4,1.8,1.8,2.9l1.7,4.7c2,5.6-1.7,10.4-6.4,11.4c1.6,0.7,3.2,1.4,4.9,1.9l8.2,0.3
			C246.3,464.4,245.1,462.7,244.3,460.5z"/>
		<path class="st0" d="M158.7,226.8l-4.3,22c4.2-3.5,11.4-2.5,13.7,3.6l0.6,1.8l0,0l-9.9-27.1C158.7,227.1,158.7,227,158.7,226.8z"
			/>
		<path class="st0" d="M68.7,285.9l5.1-1.6l-37.7-40.8c-4.4-4.7-1-12.4,5.4-12.4h21.2l-4.2-4.6c-2.6-2.8-4.1-6.6-4.2-10.4h-32
			c-4.1,0-7.4-3.3-7.4-7.4v-50.4c0-5.8,6.3-9.3,11.3-6.3l28.1,17.2v-8.8L11.2,134c-0.6,1.5-1.1,3-1.6,4.5v77.4
			c0,1.4,0.2,2.8,0.6,4.1c0.3,0.9,0.6,1.7,1,2.6c0.7,1.4,1.6,2.8,2.6,3.9L68.7,285.9z"/>
		<path class="st0" d="M105.9,47.4l6.6,22.5l0,0l0.7,2.2l6.1-6l-0.3-0.9c-1.3-4.4,1.6-8.4,5.5-9.3c0.3-3-0.3-6-1.7-8.7
			C117.1,46.3,111.4,46.4,105.9,47.4z"/>
		<path class="st0" d="M256,464.1v1.9l7.5,0.2c1.8-1.4,3.3-3.3,4.3-5.8l2-5.4l0,0C267.2,461.1,261.6,464.1,256,464.1z"/>
		<path class="st0" d="M242,454.4l-73.3-200.1l0,0l75.5,206.2c0.8,2.2,2.1,4,3.6,5.3l8.1,0.3v-1.9
			C250.2,464.1,244.4,460.9,242,454.4z"/>
		<path class="st0" d="M159,227.9c-0.1-0.4-0.3-0.7-0.4-1.1v0.1c0,0.1,0.1,0.2,0.1,0.4l9.9,27.1l0,0L159,227.9z"/>
		<path class="st0" d="M256,464.1c5.6,0,11.2-3,13.7-9.1L256,440.2V464.1z"/>
		<path class="st0" d="M228.8,410.8l-57.6-157.3l-2.5,0.8L242,454.4c2.4,6.5,8.2,9.8,14,9.8v-23.9L228.8,410.8z"/>
		<path class="st0" d="M168.7,254.3l2.5-0.8L159.6,222l-0.9,4.8c0.1,0.4,0.2,0.8,0.4,1.1L168.7,254.3z"/>
		<polygon class="st0" points="107.1,78.1 113.1,72.1 112.5,69.9 106.4,75.8 		"/>
		<polygon class="st0" points="105.9,47.4 105.9,47.4 103.6,39.5 103.6,39.5 		"/>
		<polygon class="st0" points="112.5,69.9 105.9,47.4 105.9,47.4 		"/>
		<path class="st0" d="M18.6,121.2l-4.3,4.2c-2.2,2.1-3.6,4.8-4.3,7.8l1.2,0.7C13.1,129.4,15.6,125.1,18.6,121.2z"/>
		<path class="st0" d="M103.6,39.5c-2.1,0.8-4.1,2-5.8,3.6L83.5,57.2c6.6-5.1,14.3-8.4,22.4-9.9L103.6,39.5z"/>
		<path class="st0" d="M27.7,135.2c-4.1-2.5-4.8-8.2-1.3-11.6l73-72l7.1,24.2l6.1-6L106,47.3c-8,1.4-15.7,4.8-22.4,9.9l-64.9,64
			c-3.1,3.9-5.6,8.2-7.4,12.7l43.1,26.4v-8.8L27.7,135.2z"/>
		<polygon class="st0" points="356.6,222.3 356.8,222.2 356.8,222.2 		"/>
		<polygon class="st0" points="356.6,222.3 356.8,222.2 356.7,221.9 		"/>
		<path class="st0" d="M231.3,461.8l0.7,0.7l2.7,1.1c0.1,0,0.2,0,0.3-0.1C233.6,463,232.4,462.4,231.3,461.8z"/>
		<path class="st0" d="M234.8,463.6c4.7-1,8.4-5.8,6.4-11.4l-1.7-4.7c-0.4-1.1-1-2-1.8-2.9l-14.1-15.3c-1.2,5.2-8.3,8.1-12.7,3.3
			L145,361.3l-2.9-3.2c-1.6-1.7-2.3-4.1-1.8-6.4l14.4-74.1c1.4-7.4,11.7-8.2,14.2-1.1l2.8,7.7l2.3-11.9c0.3-1.5,0.2-3.1-0.4-4.6
			l-4.9-13.4l-16.4,5.2l-11,56.6l-1.5-1.7l-7.6,39c-0.1,0.4-0.1,0.7-0.1,1.1l99.2,107.4C232.4,462.4,233.6,463,234.8,463.6z"/>
		<path class="st0" d="M154.4,248.9l-2.1,10.6l16.4-5.2l-0.6-1.8C165.8,246.3,158.6,245.4,154.4,248.9z"/>
		<polygon class="st0" points="353.2,227.2 343.3,254.3 344.7,254.7 355.1,226.4 354.6,223.5 		"/>
		<path class="st0" d="M343.3,254.3l-2.6,7.1l-68.1,186c-0.7,1.9-0.8,3.8-0.4,5.5l72.6-198.1L343.3,254.3z"/>
		<polygon class="st0" points="353.2,227.2 343.3,254.3 343.3,254.3 		"/>
		<polygon class="st0" points="340.7,261.4 343.3,254.3 343.3,254.3 		"/>
		<path class="st0" d="M283.5,460.1c1.8-0.4,3.6-1.3,5.1-3l9.1-9.8l0,0l-3.9,4.2C290.7,454.9,287.2,457.8,283.5,460.1z"/>
		<polygon class="st0" points="344.7,254.7 361.7,260.1 355.1,226.4 		"/>
		<path class="st0" d="M272.1,452.8c1.1,5,6.4,8.4,11.4,7.3c3.7-2.3,7.2-5.2,10.3-8.6l3.9-4.2l6.7-18.3l-3.3,3.6
			c-5.5,6-15.2,0-12.4-7.6l54.5-148.7c2.6-7.1,12.8-6.2,14.2,1.1l0.9,4.5l5-13.6l-1.6-8.3l-16.9-5.4L272.1,452.8z"/>
		<rect x="474.1" y="169" class="st0" width="15" height="37.7"/>
		<polygon class="st0" points="311,199.1 325.5,195.4 315.2,154.9 305.9,157.3 301.8,163 		"/>
		<rect x="54.4" y="192.1" class="st0" width="14.4" height="15"/>
		<rect x="32.1" y="192.1" class="st0" width="22.3" height="15"/>
		<path class="st0" d="M163,343.2l-3.4,3.1l-1.4,7.1c-0.5,2.7,0.3,5.5,2.1,7.5l34.6,37.5l10.2-9.4L163,343.2z"/>
		<path class="st0" d="M158.2,353.4l1.4-7.1l-7.6,7.1l42.2,45.7l0.8-0.7l-34.6-37.5C158.5,358.8,157.7,356,158.2,353.4z"/>
		<polygon class="st0" points="362.3,352.6 354.6,312.8 346.4,314.4 342,326.5 347.6,355.4 		"/>
		<polygon class="st0" points="339.9,315.7 342,326.5 346.4,314.4 		"/>
	</g>
</g>
</svg>
