<?xml version="1.0" encoding="utf-8"?>
<!-- Generator: Adobe Illustrator 24.0.2, SVG Export Plug-In . SVG Version: 6.00 Build 0)  -->
<svg version="1.1" xmlns="http://www.w3.org/2000/svg" xmlns:xlink="http://www.w3.org/1999/xlink" x="0px" y="0px"
	 viewBox="0 0 512 512" style="enable-background:new 0 0 512 512;" xml:space="preserve">
<style type="text/css">
	.st0{fill:#3C3C3B;}
	.st1{fill:url(#SVGID_1_);}
	.st2{fill:url(#SVGID_2_);}
	.st3{fill:url(#SVGID_3_);}
	.st4{fill:url(#SVGID_4_);}
	.st5{fill:url(#SVGID_5_);}
	.st6{fill:url(#SVGID_6_);}
	.st7{fill:url(#SVGID_7_);}
	.st8{fill:#943EC7;}
	.st9{fill:#BC85DE;}
	.st10{fill:#D0A1ED;}
</style>
<g id="Ebene_2">
</g>
<g id="Capa_1">
	<path class="st0" d="M263,249.7c0-3-1.8-5.7-4.6-6.9L249,239l13.9,34V249.7z"/>
	<path class="st0" d="M494.3,110.8l-82.6-81.5l-17.6,7.4l-7.6,10.6L282.3,91l0.8,0.3h0l0.1-0.1l0,0l-0.1,0.1l0.1-0.1l14.5,6
		l14.4-5.9l-14.4,6l-14.6-6l-4.6,1.9l4.5-1.9l-0.8-0.3l104.2-43.6l7.7-10.7l-112.2,47c-15.4,6.4-32.7,6.5-48.1,0.1l-114-47.1l0,0
		l-17.5-7.2L1.7,128.5L1,129.3v1.5v71.9c0,15.8,5.9,31,16.6,42.6L59,290l152,164.4c12.4,13.4,29.2,20.1,46,20.2v-5.2
		c-1.5,0-2.9-0.3-4.3-0.8c1.4,0.5,2.8,0.7,4.3,0.7v0.1c0,0,0.1,0,0.1,0v5.1c16.8,0,33.6-6.7,46-20.2L455,290l41.4-44.8
		c10.7-11.6,16.6-26.8,16.6-42.6v-47.2C513,138.6,506.3,122.5,494.3,110.8z M471.5,231.8h-97.8c-4.1,0-7.3,3.3-7.4,7.1
		c0.1-3.9,3.3-7.2,7.4-7.2L471.5,231.8c4.9-0.1,8,4.3,7.3,8.4C479.4,236.1,476.3,231.8,471.5,231.8z M439.2,285l-43.1,46.6
		L439.2,285L439.2,285z M383.4,328l-12.6-64.6h0L383.4,328z M382.1,216.8l104.6-64.1c1.2-0.8,2.6-1.1,3.9-1.1
		c-1.3,0-2.6,0.3-3.9,1.1L382.1,216.8z M485.4,136l-96.2,59l-3.1,10.5l-28.3,17.3l28.2-17.3l3.1-10.7l96.2-58.9
		c4.1-2.5,4.8-8.2,1.3-11.6L427,65.5l-4.5-4.4c-0.5-0.5-1-0.8-1.5-1.1c0.5,0.3,1,0.7,1.5,1.1l4.5,4.4v0l59.7,58.9
		C490.1,127.8,489.5,133.5,485.4,136z M357.6,223L357.6,223l-2,1.2l-1,2.6c0-0.1,0.1-0.3,0.1-0.4l0.8-2.3L404,58.8l-9.8,4.1
		c0,0,0-0.1,0-0.1c-0.4-2.5-2.1-4.6-4.3-5.6c2.3,1,4,3.1,4.4,5.6l9.7-4l-48.4,165.5L357.6,223z M394.3,63.4c0.1,0.8,0,1.7-0.3,2.6
		C394.2,65.2,394.3,64.3,394.3,63.4z M357.8,222.6v0.2l0,0l7.5,38.7h0l-7.5-38.6l0-0.1L357.8,222.6z M407.1,48.3L407.1,48.3l0-0.1
		c4.4,0.8,8.6,2.1,12.7,3.9l1.7-0.7l-1.7,0.7c0,0-0.1,0-0.1-0.1l-0.1,0C415.6,50.2,411.4,49,407.1,48.3z M434.4,62.3l0.8,0.8
		L434.4,62.3c0,0-0.2-0.2-0.3-0.3C434.2,62.1,434.3,62.2,434.4,62.3z M430.3,58.6c-0.3-0.2-0.6-0.4-0.9-0.7l-2.4,7.5l2.2-7.6
		c0,0,0,0,0,0l0.1-0.5l-6.5-6.4l0.1,0l6.5,6.4l-0.1,0.5C429.6,58.1,429.9,58.4,430.3,58.6z M425.5,49.8L425.5,49.8l-6.8-6.5
		L425.5,49.8z M386.4,47.4l25.7-10.7l0,0L386.4,47.4l-1.2,1.7c0,0-0.1,0-0.1,0L386.4,47.4z M332.9,78.5L377.4,60L332.9,78.5
		c-3.3,1.4-5.1,5.1-4.2,8.7l0.7,2.7l-0.1,0l-0.7-2.7C327.7,83.7,329.5,80,332.9,78.5z M321.7,90.7l0.6,2.2h0l8.2,32.4l0,0l24.1,95.2
		c0.2,0.9,0.4,1.8,0.4,2.8c0-0.9-0.2-1.8-0.4-2.7l-24.1-95.3l-5.7,8l0-0.1l-0.1-0.3l5.6-7.8l-8.2-32.2l0.1,0L321.7,90.7
		c-1-3.5-3.3-6.2-6.1-7.9l0,0c-0.5-0.3-1-0.5-1.6-0.7c0.5,0.2,1.1,0.4,1.6,0.7l0,0C318.5,84.3,320.8,87.2,321.7,90.7z M305.4,82
		C305.3,82,305.3,82,305.4,82l12.8-5.4l0,0L305.4,82z M312,199.8L312,199.8l-7.3-28.8L312,199.8z M295.1,98.3
		c2.5,1.9,3.8,5.3,2.4,8.8l-29.9,72l4,9.9l-4-9.9l-0.1-0.2l29.9-71.8C298.8,103.8,297.5,100.3,295.1,98.3L295.1,98.3z M270.8,455.8
		l0.9,0.9c0.1,0.1,0.1,0.1,0.2,0.2l-0.1,0.1c-0.1-0.1-0.1-0.1-0.2-0.2l-0.9-0.9L270.8,455.8z M270.7,456L270.7,456
		c0-0.1,0-0.2,0-0.2l0.1,0.1C270.7,455.9,270.7,455.9,270.7,456z M282.1,99.8l5.6-2.4c1.6-0.6,3.1-0.6,4.5-0.3
		c-1.4-0.3-2.9-0.2-4.4,0.4l-5.6,2.4L282.1,99.8l-0.2,0.1l-9.5-3.9l-9.6,4l-4.8,2l-4.8-2l-2.4-1l2.2,0.9c0.5,0.2,1.1,0.4,1.7,0.5
		l3.2,1.4l3.6-1.5c0.4-0.1,0.7-0.2,1.1-0.4l9.6-4l0.2-0.1L282.1,99.8z M277.3,93.7l-2.6,1.1c-10.9,3.8-22.8,3.8-33.7,0l-2.2-0.9
		C251.1,98.8,264.9,98.8,277.3,93.7z M235.7,100.6l9.3,3.8c2.8,1.1,4.6,3.9,4.6,6.9v23.4l6.5,15.9c0,0-0.1,0-0.1,0l-6.5-15.9
		l-13.9-34l-4-9.7l0.2,0.1L235.7,100.6z M255.9,150.7c-3.7-0.4-6.4-3.6-6.4-7.4C249.5,147.1,252.3,150.2,255.9,150.7L255.9,150.7z
		 M209.9,82l21.9,9l0,0.1l-0.2-0.1l-14.1-5.8c-0.4-0.2-0.8-0.4-1.2-0.6l-3.7-1.5c-0.2-0.1-0.4-0.1-0.6-0.2l-3.3-1.4
		C209.1,81.7,209.5,81.8,209.9,82z M225.4,96.5C225.4,96.5,225.4,96.5,225.4,96.5c-0.6-4.7-3.5-8.9-7.9-11.3l0.2,0.1
		c-0.1,0-0.1-0.1-0.2-0.1l10.7,4.4l-10.5-4.3C221.9,87.6,224.8,91.8,225.4,96.5z M189.9,134.1l0-0.2l19.7,27.4l0,0.2l0,0.1
		L189.9,134.1z M205.9,175.9l-10.6,40.8h-0.1L205.9,175.9z M184.2,126.3l-23.9,90.8l23.7-91.1l0,0l9.2-35.4c0.6-2.2,1.7-4.1,3.2-5.6
		c-1.4,1.5-2.5,3.3-3.1,5.5l-0.4,1.6c-0.1,0.4-0.3,0.8-0.4,1.2L184,126L184.2,126.3z M169.6,255.1l-16.2,5.1v0L169.6,255.1z
		 M168.4,251.7l-0.1-0.2c0.1,0.2,0.2,0.4,0.3,0.5l0.2,0.5C168.7,252.3,168.5,252,168.4,251.7z M160.4,347l12.1-62.1l-2.8-7.7
		c-0.6-1.8-1.7-3-3-3.8c1.4,0.8,2.6,2.1,3.2,3.9l2.8,7.7L175,273c0.3-1.5,0.2-3.1-0.4-4.6l-4.9-13.4l5.3,14.4
		c0.3,1.2,0.3,2.4,0.1,3.6l-2.3,11.8l0,0L160.7,347l3.3-3l42.2,45.7l-0.1,0.1L164,344l-3.4,3.1l-1.4,7.1c-0.1,0.4-0.1,0.7-0.1,1.1
		c0-0.4,0.1-0.7,0.1-1.1l1.4-7.1l-7.6,7.1l42.1,45.5l-0.1,0.1L152.8,354L160.4,347z M224.6,426.4c0.4,1.3,0.4,2.6,0.1,3.8l14.1,15.3
		c0.5,0.5,0.9,1,1.2,1.6l0.1,0.3c-0.4-0.7-0.8-1.4-1.4-2L224.6,430c-0.8,3.3-3.9,5.6-7.1,5.7c3.3-0.1,6.3-2.5,7-5.7l-28.6-30.8
		l0.1-0.1l0,0l0,0l28.7,31C225,428.9,224.9,427.7,224.6,426.4z M142.3,316.8L142.3,316.8l11-56.6l0,0L142.3,316.8z M140.3,231.8h0.1
		c1.3,0,2.5,0.4,3.6,1C142.9,232.1,141.7,231.8,140.3,231.8z M140.8,315.2L140.8,315.2L140.8,315.2L140.8,315.2z M104.2,275.7
		L74.9,285l0,0l-0.1,0l-37.7-40.7c-2.5-2.7-2.5-6.3-0.8-8.9c-1.6,2.6-1.5,6.2,0.9,8.8l37.7,40.8l29.4-9.3l30.2,32.7l-3.8,19.7
		c-0.7,3.4-3.3,5.5-6.2,5.9c2.9-0.5,5.5-2.6,6.1-5.9l3.8-19.7L104.2,275.7z M23.4,216.8h32c0,0,0,0,0,0.1h0
		c0.1,3.9,1.5,7.5,4.2,10.3l4.2,4.6h-0.2l-4.1-4.5c-2.6-2.8-4.1-6.6-4.2-10.4h-32c-4.1,0-7.4-3.3-7.4-7.4V159c0-2.6,1.2-4.7,3-6
		c-1.7,1.3-2.9,3.4-2.9,5.9v50.4C16,213.5,19.3,216.8,23.4,216.8z M55.4,208v-0.1h14.4v0.1H55.4z M109.5,203c4.2,2.6,4.4,7.7,2,10.9
		C113.9,210.7,113.6,205.6,109.5,203z M129.4,197.8l-74-45.4v-0.1l-0.1-0.1v-14.7c0.1-0.8,0.1-1.5,0.2-2.2l0.1,0
		c-0.2,0.7-0.2,1.4-0.2,2.1v14.9l74,45.4c5.1,3.1,11.1-0.7,11.3-6C140.6,197,134.5,200.8,129.4,197.8z M107.3,76.6L107.3,76.6
		l-7-24.2l0.1-0.1l7.1,24.1L107.3,76.6l0.8,2.2l31.6,107.9l-0.1-0.1L108,78.8l-48,47.3l48-47.4L107.3,76.6z M84.6,57.9l0.3-0.3
		c5-3.8,10.6-6.6,16.5-8.3C95.4,51.1,89.7,54,84.6,57.9z M113.4,70.8l0.1-0.1l0,0l0.7,2.1l-0.1,0.1l-0.6-2.2L113.4,70.8z
		 M147.6,240.5c0.1-0.5,0.1-1.1,0.1-1.6C147.8,239.5,147.7,240.1,147.6,240.5l-4.4,22.8l0,0L147.6,240.5z M120.2,66.9L120.2,66.9
		l0.1-0.2l0.5-0.5c2.8-2.7,4.3-6.2,4.6-9.6c0,0,0.1,0,0.1,0c-0.3,3.5-1.8,6.9-4.6,9.6L120.2,66.9l30.4,103.4c1,3.6,4,5.3,7.1,5.3
		c-3.1,0.1-6.2-1.7-7.3-5.3L120.2,66.9z M125.5,56.6C125.5,56.6,125.5,56.6,125.5,56.6c0.4-0.1,0.7-0.1,1.1-0.1
		C126.2,56.5,125.8,56.6,125.5,56.6z M136.5,59.8L136.5,59.8l-0.2-0.1l0,0L182,78.5c3.4,1.4,5.3,5.1,4.3,8.7
		c0.9-3.6-0.9-7.3-4.3-8.7L136.5,59.8z M192.8,122c0.3-1.3,1-2.4,1.8-3.3c-0.8,0.8-1.4,1.9-1.7,3.2l-3,11.7l0,0L192.8,122z
		 M199.8,83.9c-2.1,1.1-3.9,2.8-5.3,4.8C195.9,86.7,197.7,85.1,199.8,83.9l18.3,44.9l3.2-12.1l-4.1-9.9c-1-2.5-0.6-4.9,0.6-6.8
		c-1.2,1.9-1.6,4.3-0.6,6.7l4.1,9.9l3.8-14.6c0.1-0.2,0.1-0.4,0.1-0.6c0,0.2-0.1,0.5-0.1,0.7l-3.8,14.6l-3.2,12.1l0,0.1L199.8,83.9z
		 M199.4,82.7c2.7-1.5,6-2,9.3-1.1l3.3,1.4c-0.2-0.1-0.4-0.1-0.6-0.2l0.1,0c-1.1-0.4-2.3-0.6-3.4-0.7c1.1,0.1,2.2,0.3,3.3,0.7
		l-1.4-0.6C206.4,80.7,202.6,81,199.4,82.7L199.4,82.7C199.4,82.7,199.4,82.7,199.4,82.7c-0.1,0-0.1,0-0.1,0.1l-2.5-6.1l0.2,0.1
		L199.4,82.7z M123.8,47.9c1.6,0.3,3.3,0.6,4.9,1l0,0c2.3,0.6,4.6,1.4,6.9,2.3l61.3,25.4l0,0.1l-61.5-25.5c-2.3-0.9-4.6-1.7-6.9-2.3
		l0.1,0.1c-1.6-0.4-3.2-0.7-4.8-1C123.8,48,123.8,48,123.8,47.9c-1.6-3.2-4.3-5.8-8-7.4C119.5,42,122.2,44.8,123.8,47.9z M79.7,62.1
		l24.3-24l0.6,2.1c0,0,0,0,0,0c0,0,0,0,0,0l2.3,7.8c4.8-0.8,9.8-1,14.8-0.4c-4.9-0.6-9.9-0.4-14.7,0.5l0-0.1c-1,0.2-2,0.4-3,0.6
		c0.9-0.2,1.9-0.4,2.9-0.6l-2.3-7.8c0,0,0,0,0,0l-0.6-2L81.6,60.4C81,60.9,80.3,61.5,79.7,62.1l-55.9,55.1L79.7,62.1z M19.6,122
		l64.3-63.4c0.2-0.2,0.4-0.3,0.6-0.5L19.7,122c-1.1,1.4-2.2,2.9-3.1,4.4C17.5,124.8,18.5,123.4,19.6,122z M14.6,129.8
		c-0.8,1.6-1.6,3.2-2.3,4.8L55.4,161v0.1v8.7l-0.1-0.1v-8.6l-43-26.4c0,0,0-0.1,0-0.1l-0.1,0C12.9,133,13.7,131.4,14.6,129.8z
		 M10.6,139.5c-1.3,4.7-2.1,9.5-2.1,14.4v0C8.5,149,9.2,144.2,10.6,139.5L10.6,139.5z M10.7,137.3c0-1.2,0.1-2.3,0.4-3.3l0,0
		C10.9,135.1,10.7,136.3,10.7,137.3z M14.8,227.3c-1.1-1.2-2-2.5-2.6-3.9c-0.4-0.8-0.7-1.7-1-2.6c0.3,0.9,0.6,1.7,1,2.6
		C12.9,224.8,13.8,226.2,14.8,227.3l54.9,59.4l0.1,0l63.3,68.4c0,0,0,0.1,0,0.1l0,0c0,0,0,0.1,0,0.1l-63.4-68.6L14.8,227.3z
		 M227.8,461.8l-8.7-9.4L67,287.7l152.2,164.7l-83.8-90.7c-0.9-1-1.5-2.2-1.9-3.4c0.4,1.2,1,2.3,1.9,3.3l83.8,90.7
		c3.8,4.2,8.2,7.6,12.9,10.2v0c-4.7-2.6-9.1-5.9-12.9-10.1l8.7,9.4c2,2.1,4.4,3,6.6,2.8C232.2,464.8,229.7,463.9,227.8,461.8z
		 M239.9,466.3l-4.4-1.8c0,0,0.1,0,0.1,0l-2.7-1.1l-0.5-0.6c0,0,0,0,0.1,0l0.5,0.5l2.7,1.1c0,0-0.1,0-0.1,0l1.2,0.5
		c0.7,0.3,1.3,0.6,2,0.8l1.2,0.5h0.2c0.1,0,0.2,0.1,0.3,0.1H239.9z M236.2,464.4c-0.1,0-0.1-0.1-0.2-0.1c4.4-1.1,7.9-5.5,6.4-10.8
		l0.3,0.7C243.7,459.2,240.4,463.3,236.2,464.4z M235.1,411.8l-58.3-159l-4.6,1.5l0-0.1l-11.6-31.5l-0.9,4.8c0,0.1,0.1,0.2,0.1,0.3
		c-0.1,0-0.1-0.1-0.1-0.3l0,0.2c0-0.1,0-0.1-0.1-0.2v0.1c0,0,0,0.1,0,0.2l-4.2,21.7c3.8-3.2,10-2.6,12.9,1.9l0.1,0.2
		c-2.8-4.8-9.1-5.2-12.9-2l0,0.1c-1.4,1.1-2.4,2.8-2.8,4.8l-1.2,6.3l-0.1,0l1.2-6.3c0.4-2.1,1.5-3.8,2.8-4.9l4.3-22
		c-0.8-2.3-0.9-4.7-0.2-7.1c-0.6,2.3-0.5,4.7,0.3,7c-0.1-0.5-0.2-1-0.3-1.5c0.1,0.5,0.2,1,0.3,1.4l0.9-4.8l11.6,31.6l4.7-1.5l0,0
		l24-7.6l-4.8-13.4l4.9,13.4l-24.1,7.6L235.1,411.8c2.1,5.5,8.6,6,12.1,2.8C243.7,417.9,237.2,417.4,235.1,411.8z M161.8,233.3
		l-1.7-4.7c0,0,0,0.1,0,0.1L161.8,233.3z M249.5,378v-0.4l7.4,20.2v0.3l0.1,0.3v42.5l13.7,14.8L257,441v0.1l-0.1-0.1v-42.7
		L249.5,378z M256.9,466.7v-1.8c-0.1,0-0.1,0-0.2,0c0.1,0,0.2,0,0.3,0L256.9,466.7L256.9,466.7z M261.4,468.6
		c-0.1,0-0.2,0.1-0.3,0.1c-1.3,0-2.7,0.1-4.1,0.1c1.4,0,2.9-0.1,4.3-0.2c0.9-0.3,1.7-0.7,2.5-1.3c-0.8,0.5-1.6,0.9-2.5,1.3
		c2.9-0.2,5.7-0.7,8.4-1.4l0.1,0C267,468,264.2,468.5,261.4,468.6z M267.4,460.7c1.2-1.1,2.2-2.5,2.9-4.2l-0.2,0.6
		C269.4,458.5,268.5,459.6,267.4,460.7z M270.4,467.2L270.4,467.2c0.6-0.2,1.3-0.4,2-0.6C271.8,466.8,271.1,467,270.4,467.2z
		 M271.9,209.3c-0.1,3.9,3.1,7.4,7.4,7.4h57.1c4.2,0,7.4-3.4,7.4-7.4c0.1,4-3.2,7.5-7.4,7.5h-57.1
		C275,216.8,271.8,213.3,271.9,209.3z M276.4,465.1c2.7-1.1,5.4-2.5,8-4.1c-1.9,0.4-3.8,0.1-5.6-0.7c1.8,0.8,3.8,1,5.7,0.6
		c1.8-0.4,3.6-1.3,5.1-3l5.2-5.6c-0.8,0.8-1.6,1.7-2.4,2.5c0.8-0.8,1.6-1.6,2.4-2.5l3.9-4.2l6.6-18.1l0.1-0.1L368,362l2.9-3.2
		c1.6-1.7,2.3-4.1,1.8-6.4l-13.4-69.7l-0.9-4.5c-1.4-7.4-11.6-8.2-14.2-1.1l-54.5,148.7c-0.3,0.9-0.5,1.8-0.5,2.7
		c0-0.9,0.1-1.8,0.5-2.8L344.2,277c2.6-7.1,12.8-6.2,14.2,1.1l0.9,4.5l5-13.6l0,0.1l-5,13.6l13.5,69.6c0.5,2.3-0.2,4.7-1.8,6.4
		l-2.9,3.2l-62.6,67.8l-6.7,18.3l-0.1,0.1l-9.1,9.8c-1.5,1.6-3.3,2.6-5.1,3C281.9,462.6,279.2,464,276.4,465.1z M355.6,313.5
		l7.7,39.8l-14.7,2.9l-5.6-29l5.6,28.9l14.7-2.8L355.6,313.5z M285.5,463.3L285.5,463.3l98.3-106.5l-0.1-0.6l0.1,0.6L285.5,463.3z
		 M505.5,204.1c0,13-4.9,25.4-13.7,35l-44.7,48.4h0L383.8,356l63.3-68.5l-7.9-2.5l0.1-0.1l7.8,2.5l44.7-48.4
		C500.6,229.5,505.5,217,505.5,204.1L505.5,204.1z M501.9,134.7c0-0.1-0.1-0.1-0.1-0.2l3.6-2.1l0.1,0.1L501.9,134.7z"/>
	<g>
		<path d="M163.8,169.4l13.6-52.1l-41.9-58.3l-6.5-2.7c-1.5-0.6-3.1-0.7-4.5-0.4c-0.3,3.5-1.8,6.9-4.6,9.6l-0.6,0.6l30.3,103.5
			C151.6,176.8,161.9,176.7,163.8,169.4z"/>
		<linearGradient id="SVGID_1_" gradientUnits="userSpaceOnUse" x1="148.2639" y1="46.5761" x2="148.2639" y2="468.113">
			<stop  offset="0" style="stop-color:#3FD1FF"/>
			<stop  offset="1" style="stop-color:#FF2AEE"/>
		</linearGradient>
		<path class="st1" d="M163.8,169.4l13.6-52.1l-41.9-58.3l-6.5-2.7c-1.5-0.6-3.1-0.7-4.5-0.4c-0.3,3.5-1.8,6.9-4.6,9.6l-0.6,0.6
			l30.3,103.5C151.6,176.8,161.9,176.7,163.8,169.4z"/>
		<path d="M142.2,262.6l4.4-22.8c0.9-4.6-2.6-8.8-7.3-8.8H62.8l40.6,43.9L142.2,262.6z"/>
		<linearGradient id="SVGID_2_" gradientUnits="userSpaceOnUse" x1="104.7673" y1="46.5761" x2="104.7673" y2="468.113">
			<stop  offset="0" style="stop-color:#3FD1FF"/>
			<stop  offset="1" style="stop-color:#FF2AEE"/>
		</linearGradient>
		<path class="st2" d="M142.2,262.6l4.4-22.8c0.9-4.6-2.6-8.8-7.3-8.8H62.8l40.6,43.9L142.2,262.6z"/>
		<path d="M108.5,202.3l-54.1-33.1l0,23h14.4v15H54.4l0,8.7c0,0.1,0,0.1,0,0.2h50.2C112.1,216,114.8,206.2,108.5,202.3z"/>
		<linearGradient id="SVGID_3_" gradientUnits="userSpaceOnUse" x1="83.1874" y1="46.5761" x2="83.1874" y2="468.113">
			<stop  offset="0" style="stop-color:#3FD1FF"/>
			<stop  offset="1" style="stop-color:#FF2AEE"/>
		</linearGradient>
		<path class="st3" d="M108.5,202.3l-54.1-33.1l0,23h14.4v15H54.4l0,8.7c0,0.1,0,0.1,0,0.2h50.2C112.1,216,114.8,206.2,108.5,202.3z
			"/>
		<path d="M240.7,205.8l-0.4-1l-31.7-44L194.3,216h39.6C239.1,216,242.7,210.7,240.7,205.8z"/>
		<linearGradient id="SVGID_4_" gradientUnits="userSpaceOnUse" x1="217.7539" y1="46.5761" x2="217.7539" y2="468.113">
			<stop  offset="0" style="stop-color:#3FD1FF"/>
			<stop  offset="1" style="stop-color:#FF2AEE"/>
		</linearGradient>
		<path class="st4" d="M240.7,205.8l-0.4-1l-31.7-44L194.3,216h39.6C239.1,216,242.7,210.7,240.7,205.8z"/>
		<linearGradient id="SVGID_5_" gradientUnits="userSpaceOnUse" x1="217.7539" y1="468.6633" x2="217.7539" y2="80.3652">
			<stop  offset="0" style="stop-color:#3FD1FF"/>
			<stop  offset="1" style="stop-color:#FF2AEE"/>
		</linearGradient>
		<path class="st5" d="M240.7,205.8l-0.4-1l-31.7-44L194.3,216h39.6C239.1,216,242.7,210.7,240.7,205.8z"/>
		<path d="M242,231.1c-0.3,0-0.6-0.1-0.9-0.1h-46l4.9,13.4L242,231.1z"/>
		<linearGradient id="SVGID_6_" gradientUnits="userSpaceOnUse" x1="218.5454" y1="46.5761" x2="218.5454" y2="468.113">
			<stop  offset="0" style="stop-color:#3FD1FF"/>
			<stop  offset="1" style="stop-color:#FF2AEE"/>
		</linearGradient>
		<path class="st6" d="M242,231.1c-0.3,0-0.6-0.1-0.9-0.1h-46l4.9,13.4L242,231.1z"/>
		<linearGradient id="SVGID_7_" gradientUnits="userSpaceOnUse" x1="218.5454" y1="468.6633" x2="218.5454" y2="80.3652">
			<stop  offset="0" style="stop-color:#3FD1FF"/>
			<stop  offset="1" style="stop-color:#FF2AEE"/>
		</linearGradient>
		<path class="st7" d="M242,231.1c-0.3,0-0.6-0.1-0.9-0.1h-46l4.9,13.4L242,231.1z"/>
		<path class="st8" d="M195.1,231h-16.3c-5.2,0-8.7,5.1-7,10l4,11l24.1-7.6L195.1,231z"/>
		<path class="st8" d="M188.7,133.1l-19.2,73.7c-1.2,4.7,2.3,9.3,7.2,9.3h17.5l14.4-55.2L188.7,133.1z"/>
		<path class="st9" d="M59,125.4c-2.5,2.4-4,5.6-4.5,9.1l84.1,51.6l-31.6-108L59,125.4z"/>
		<path class="st8" d="M54.4,136.6l0,14.9l74,45.4c5.8,3.5,12.9-1.9,11-8.4l-0.7-2.5l-84.1-51.6C54.4,135.2,54.4,135.9,54.4,136.6z"
			/>
		<path class="st10" d="M124.4,55.9c-3.9,0.9-6.8,4.9-5.5,9.3l0.3,0.9l0.6-0.6C122.6,62.8,124.1,59.3,124.4,55.9z"/>
		<path class="st10" d="M62.8,231H41.6c-6.5,0-9.8,7.7-5.4,12.4l37.7,40.8l29.5-9.3L62.8,231z"/>
		<path class="st10" d="M54.4,207.1H32.1v-15h22.3l0-23l-28.1-17.2c-4.9-3-11.3,0.5-11.3,6.3l0,50.4c0,4.1,3.3,7.4,7.4,7.4h32
			c0-0.1,0-0.1,0-0.2L54.4,207.1z"/>
		<path class="st10" d="M54.5,134.5c0.5-3.4,2-6.6,4.5-9.1l48-47.4l-0.7-2.2l-56.6,55.8L54.5,134.5z"/>
		<path class="st10" d="M54.5,134.5l-4.7-2.9l56.6-55.8l-7.1-24.2l-73,72c-3.4,3.4-2.8,9.1,1.3,11.6l26.7,16.4l0-14.9
			C54.4,135.9,54.4,135.2,54.5,134.5z"/>
		<path class="st0" d="M428.3,375.3c-12.7,0-23,10.3-23,23c0,12.7,10.3,23,23,23c12.7,0,23-10.3,23-23
			C451.3,385.6,441,375.3,428.3,375.3z M428.3,406.3c-4.4,0-8-3.6-8-8s3.6-8,8-8s8,3.6,8,8S432.8,406.3,428.3,406.3z"/>
		<path class="st0" d="M43.2,57.2c12.7,0,23-10.3,23-23c0-12.7-10.3-23-23-23s-23,10.3-23,23C20.2,46.9,30.5,57.2,43.2,57.2z
			 M43.2,26.2c4.4,0,8,3.6,8,8c0,4.4-3.6,8-8,8s-8-3.6-8-8C35.2,29.8,38.8,26.2,43.2,26.2z"/>
		<path class="st0" d="M118.5,390.8h-10.4c-1.5,0-2.7-1.2-2.7-2.7v-10.4c0-1.5-1.2-2.7-2.7-2.7h-9.6c-1.5,0-2.7,1.2-2.7,2.7v10.4
			c0,1.5-1.2,2.7-2.7,2.7H77.5c-1.5,0-2.7,1.2-2.7,2.7v9.6c0,1.5,1.2,2.7,2.7,2.7h10.4c1.5,0,2.7,1.2,2.7,2.7v10.4
			c0,1.5,1.2,2.7,2.7,2.7h9.6c1.5,0,2.7-1.2,2.7-2.7v-10.4c0-1.5,1.2-2.7,2.7-2.7h10.4c1.5,0,2.7-1.2,2.7-2.7v-9.6
			C121.2,392,120,390.8,118.5,390.8z"/>
		<path class="st0" d="M249.6,50.9h9.7c1.7,0,3,1.3,3,3v9.7c0,1.7,1.3,3,3,3h9c1.7,0,3-1.3,3-3V54c0-1.7,1.3-3,3-3h9.7
			c1.7,0,3-1.3,3-3v-9c0-1.7-1.3-3-3-3h-9.7c-1.7,0-3-1.3-3-3v-9.7c0-1.7-1.3-3-3-3h-9c-1.7,0-3,1.3-3,3v9.7c0,1.7-1.3,3-3,3h-9.7
			c-1.7,0-3,1.3-3,3v9C246.6,49.6,247.9,50.9,249.6,50.9z"/>
		<rect x="46.3" y="319.9" class="st0" width="16.3" height="15"/>
		<rect x="158.6" y="449.1" class="st0" width="16.3" height="15"/>
		<rect x="361.5" y="436.1" class="st0" width="16.3" height="15"/>
		<rect x="471.8" y="18.7" class="st0" width="16.3" height="15"/>
		<rect x="446.4" y="322.6" class="st0" width="16.3" height="15"/>
		<polygon class="st0" points="0,128.5 0,130 0.7,127.8 		"/>
		<path class="st0" d="M16.6,244.5L58,289.3l7.9-2.5l-44.7-48.4c-4.3-4.7-7.7-10-10-15.8c-0.4-0.8-0.7-1.7-1-2.6
			c-1.8-5.3-2.7-10.9-2.7-16.6l0-50.2c0-5.1,0.7-10,2.2-14.8l0-1.8c0-1.2,0.1-2.3,0.4-3.4l-2.6-1.6l15.3-15.1l0,0l55.9-55.1
			c0,0,0,0,0,0l24.3-24l0.6,2.1c3.6-1.2,7.5-1.2,11.2,0.3c3.7,1.5,6.4,4.2,8,7.4c1.6,0.3,3.3,0.6,4.9,1l-8.9-12.3l-17.5-7.2
			L0.7,127.8L0,130l0,71.9C0,217.7,5.9,232.9,16.6,244.5z"/>
		<path class="st0" d="M124.4,55.9c1.4-0.3,2.9-0.2,4.5,0.4l6.5,2.7l-7.7-10.7c-1.6-0.4-3.3-0.7-4.9-1
			C124.1,49.9,124.7,52.9,124.4,55.9z"/>
		<path class="st0" d="M9.7,138.4c-1.4,4.8-2.2,9.7-2.2,14.8l0,50.2c0,5.7,0.9,11.3,2.7,16.6c-0.4-1.3-0.6-2.7-0.6-4.1L9.7,138.4z"
			/>
		<polygon class="st0" points="78.7,61.4 22.8,116.5 22.8,116.5 78.7,61.4 		"/>
		<path class="st0" d="M146.6,239.9l-4.4,22.8l8.1-2.6l1.2-6.3c0.4-2.1,1.5-3.8,2.8-4.9l4.3-22c-0.8-2.3-0.9-4.7-0.2-7.1l24.6-94.6
			l-5.7-7.9l-13.6,52.1c-1.9,7.3-12.2,7.4-14.3,0.2L119.2,66.1l-6.1,6l44.3,151.4L54.4,160.4l0,8.8l54.1,33.1
			c6.4,3.9,3.6,13.7-3.9,13.7H54.4c0.1,3.9,1.5,7.6,4.2,10.4l4.2,4.6h76.6C144,231,147.5,235.3,146.6,239.9z"/>
		<path class="st0" d="M13.8,226.5c-1.1-1.2-2-2.5-2.6-3.9c2.3,5.8,5.7,11.2,10,15.8l44.7,48.4l2.8-0.9L13.8,226.5z"/>
		<path class="st0" d="M240.7,205.8c2,4.9-1.6,10.2-6.9,10.2h-39.6l-0.8,3c-0.8,2.9-0.6,6,0.4,8.9l1.1,3.1h46c0.3,0,0.6,0,0.9,0.1
			l14-4.4l-15.7-21.8L240.7,205.8z"/>
		<path class="st0" d="M158.7,226.8L158.7,226.8c-0.7-2.6-0.7-5.3-0.1-7.8l24.4-93.8h0l-24.6,94.6
			C157.8,222.1,157.9,224.5,158.7,226.8z"/>
		<path class="st0" d="M171.2,253.5l4.7-1.5l-4-11c-1.8-4.8,1.8-10,7-10h16.3l-1.1-3.1c-1-2.8-1.2-5.9-0.4-8.9l0.8-3h-17.5
			c-4.9,0-8.4-4.6-7.2-9.3l19.2-73.7l-5.7-7.9L158.6,219c-0.7,2.5-0.6,5.2,0.1,7.7l0.9-4.8L171.2,253.5z"/>
		<polygon class="st0" points="138.7,186.1 148.2,191.9 157.4,223.5 113.1,72.1 107.1,78.1 		"/>
		<polygon class="st0" points="103.6,39.5 103,37.4 103.6,39.5 		"/>
		<path class="st0" d="M18.6,121.2c1.3-1.6,2.7-3.2,4.2-4.7L7.5,131.6l2.6,1.6c0.7-2.9,2.1-5.6,4.3-7.8L18.6,121.2z"/>
		<path class="st0" d="M97.8,43.2c1.7-1.7,3.7-2.9,5.8-3.6l-0.6-2.1l-24.3,24c1.5-1.5,3.1-2.9,4.8-4.2L97.8,43.2z"/>
		<path class="st0" d="M83.5,57.2c-1.7,1.3-3.3,2.7-4.8,4.2l-55.9,55.1c-1.5,1.5-2.9,3.1-4.2,4.7L83.5,57.2z"/>
		<path class="st0" d="M148.2,191.9l-9.5-5.8l0.7,2.5c1.9,6.5-5.2,11.9-11,8.4l-74-45.4l0,8.8l103.1,63.2L148.2,191.9z"/>
		<path class="st0" d="M151.6,253.8l-1.2,6.3l2-0.6l2.1-10.6C153,250,152,251.7,151.6,253.8z"/>
		<path class="st0" d="M11.2,222.5c-0.3-0.8-0.7-1.7-1-2.6C10.5,220.8,10.8,221.7,11.2,222.5z"/>
		<path class="st0" d="M10.1,133.2c-0.2,1.1-0.4,2.3-0.4,3.4l0,1.8c0.5-1.5,1-3,1.6-4.5L10.1,133.2z"/>
		<path class="st0" d="M122.8,47.2c-1.6-3.2-4.3-5.8-8-7.4c-3.6-1.5-7.6-1.6-11.2-0.3l2.3,7.8C111.4,46.4,117.1,46.3,122.8,47.2z"/>
		<path class="st0" d="M158.7,226.8l-4.3,22c4.2-3.5,11.4-2.5,13.7,3.6l0.6,1.8l0,0l-9.9-27.1C158.7,227.1,158.7,227,158.7,226.8z"
			/>
		<path class="st0" d="M68.7,285.9l5.1-1.6l-37.7-40.8c-4.4-4.7-1-12.4,5.4-12.4h21.2l-4.2-4.6c-2.6-2.8-4.1-6.6-4.2-10.4h-32
			c-4.1,0-7.4-3.3-7.4-7.4l0-50.4c0-5.8,6.3-9.3,11.3-6.3l28.1,17.2l0-8.8l-43.1-26.4c-0.6,1.5-1.1,3-1.6,4.5l0,77.4
			c0,1.4,0.2,2.8,0.6,4.1c0.3,0.9,0.6,1.7,1,2.6c0.7,1.4,1.6,2.8,2.6,3.9L68.7,285.9z"/>
		<path class="st0" d="M105.9,47.4l6.6,22.5l0,0l0.7,2.2l6.1-6l-0.3-0.9c-1.3-4.4,1.6-8.4,5.5-9.3c0.3-3-0.3-6-1.7-8.7
			C117.1,46.3,111.4,46.4,105.9,47.4z"/>
		<path class="st0" d="M159,227.9c-0.1-0.4-0.3-0.7-0.4-1.1l0,0.1c0,0.1,0.1,0.2,0.1,0.4l9.9,27.1l0,0L159,227.9z"/>
		<path class="st0" d="M168.7,254.3l2.5-0.8l-11.6-31.5l-0.9,4.8c0.1,0.4,0.2,0.8,0.4,1.1L168.7,254.3z"/>
		<polygon class="st0" points="107.1,78.1 113.1,72.1 112.5,69.9 106.4,75.8 		"/>
		<polygon class="st0" points="105.9,47.4 105.9,47.4 103.6,39.5 103.6,39.5 		"/>
		<polygon class="st0" points="112.5,69.9 105.9,47.4 105.9,47.4 112.5,69.9 		"/>
		<path class="st0" d="M18.6,121.2l-4.3,4.2c-2.2,2.1-3.6,4.8-4.3,7.8l1.2,0.7C13.1,129.4,15.6,125.1,18.6,121.2z"/>
		<path class="st0" d="M103.6,39.5c-2.1,0.8-4.1,2-5.8,3.6L83.5,57.2c6.6-5.1,14.3-8.4,22.4-9.9L103.6,39.5z"/>
		<path class="st0" d="M27.7,135.2c-4.1-2.5-4.8-8.2-1.3-11.6l73-72l7.1,24.2l6.1-6l-6.6-22.5c-8,1.4-15.7,4.8-22.4,9.9l-64.9,64
			c-3.1,3.9-5.6,8.2-7.4,12.7l43.1,26.4l0-8.8L27.7,135.2z"/>
		<path class="st0" d="M154.4,248.9l-2.1,10.6l16.4-5.2l-0.6-1.8C165.8,246.3,158.6,245.4,154.4,248.9z"/>
		<rect x="54.4" y="192.1" class="st0" width="14.4" height="15"/>
		<rect x="32.1" y="192.1" class="st0" width="22.3" height="15"/>
	</g>
	<circle class="st0" cx="242.8" cy="125.2" r="29.6"/>
</g>
</svg>
