<?xml version="1.0" encoding="utf-8"?>
<!-- Generator: Adobe Illustrator 24.0.2, SVG Export Plug-In . SVG Version: 6.00 Build 0)  -->
<svg version="1.1" xmlns="http://www.w3.org/2000/svg" xmlns:xlink="http://www.w3.org/1999/xlink" x="0px" y="0px"
	 viewBox="0 0 500 500" style="enable-background:new 0 0 500 500;" xml:space="preserve">
<style type="text/css">
	.st0{fill:url(#SVGID_1_);}
	.st1{fill:url(#SVGID_2_);}
	.st2{fill:#2D2D2D;}
	.st3{fill:url(#SVGID_3_);}
	.st4{fill:url(#SVGID_4_);}
	.st5{fill:#DADADA;}
	.st6{fill:#C6C6C6;}
	.st7{fill:#3C3C3B;}
	.st8{fill:url(#SVGID_5_);}
	.st9{fill:url(#SVGID_6_);}
	.st10{fill:url(#SVGID_7_);}
	.st11{fill:url(#SVGID_8_);}
	.st12{fill:url(#SVGID_9_);}
	.st13{fill:url(#SVGID_10_);}
	.st14{fill:#EDEDED;}
</style>
<g id="Ebene_2">
	<g>
		<linearGradient id="SVGID_1_" gradientUnits="userSpaceOnUse" x1="29.449" y1="274.2681" x2="470.5461" y2="225.7294">
			<stop  offset="0" style="stop-color:#3FD1FF"/>
			<stop  offset="1" style="stop-color:#FF2AEE"/>
		</linearGradient>
		<path class="st0" d="M246.4,490.8L39.7,367.3l3.6-240.8L253.6,9.2l206.7,123.5l-3.5,240.9L246.4,490.8z M64.9,353.2l181.9,108.7
			L432,358.8l3.1-212L253.2,38.1L68.1,141.3L64.9,353.2z"/>
	</g>
</g>
<g id="Ebene_1">
	
		<linearGradient id="SVGID_2_" gradientUnits="userSpaceOnUse" x1="-208.3762" y1="1293.6097" x2="-208.3762" y2="1086.2224" gradientTransform="matrix(1 0 0 1 0 -998)">
		<stop  offset="0" style="stop-color:#3FD1FF"/>
		<stop  offset="1" style="stop-color:#FF2AEE"/>
	</linearGradient>
	<rect x="-286.8" y="144.1" class="st1" width="156.8" height="151.5"/>
	<g>
		<path d="M418.1,155.2L252,57L83.9,151.8l-2,193l121.9,72c0.4-1.7,0.7-3,0.9-4c3-14.2,13.4-37.3,31.6-63.6
			c-0.1-0.1-0.3-0.1-0.4-0.2c0,0,0.1-0.1,0.1-0.1c-33.6-15.5-58-47.4-62.9-85.5c-11.2-8.5-24.5-13.8-38.5-14.3l-12.7-0.7l10.6-5.7
			c5.7-2.8,11.3-4.2,17.7-5c6.4-0.7,12-1.4,18.4-0.7c1.4,0.2,2.8,0.3,4.1,0.5c1-9.8,3.4-19.3,6.8-28.2
			c-12.6-8.1-20.9-22.1-20.9-38.2c0-25,20.3-45.3,45.3-45.3c16,0,30.1,8.3,38.2,20.9c12.3-4.8,25.7-7.4,39.7-7.4
			c21.9,0,42.4,6.4,59.5,17.5c5.2-6.4,13.1-10.4,22-10.4c15.6,0,28.3,12.7,28.3,28.3c0,9.8-5,18.4-12.5,23.5
			c8,15.2,12.5,32.5,12.5,50.9c0,60.6-49.2,109.8-109.8,109.8c-5.3,0-10.5-0.4-15.5-1.1c0,0.3,0,0.5,0,0.7c0,3.6,0,5.8,0,8.1
			c0.3,6.7,1.3,14.1,3.5,22c0.1,0.3,0.2,0.6,0.3,0.9c2.3-1,4.8-1.6,7.5-1.6c9.9,0,17.7,7.8,17.7,17.7c0,6.7-3.6,12.4-8.9,15.4
			c0,0,0.1,0.1,0.1,0.1l129.7-73L418.1,155.2z"/>
		<path class="st2" d="M361.1,173.2c0.5-0.7,1.3-1.2,2.3-1.2c1.6,0,2.8,1.3,2.8,2.8c0,1-0.6,1.9-1.4,2.4c2.2,2.5,4.2,5.1,6.2,7.8
			c3.1-2.3,5.1-6,5.1-10.2c0-7.1-5.7-12.7-12.7-12.7c-3.8,0-7.2,1.6-9.5,4.2C356.4,168.5,358.8,170.8,361.1,173.2z"/>
		<path class="st2" d="M363.4,159.3c9.2,0,16.3,7.8,16.3,16.3c0,5-2.5,9.7-6.4,12.8c2.1,3.2,4.1,6.5,5.9,10
			c7.5-5.1,12.5-13.7,12.5-23.5c0-15.6-12.7-28.3-28.3-28.3c-8.9,0-16.8,4.1-22,10.4c3.5,2.3,7,4.8,10.2,7.5
			C354.5,161.3,358.7,159.3,363.4,159.3z"/>
		<path class="st2" d="M379.7,175.6c0-8.5-7.1-16.3-16.3-16.3c-4.7,0-8.8,2-11.8,5.1c0.8,0.6,1.5,1.3,2.3,1.9
			c2.3-2.6,5.7-4.2,9.5-4.2c7.1,0,12.7,5.7,12.7,12.7c0,4.2-2,7.9-5.1,10.2c0.8,1.1,1.5,2.2,2.3,3.3
			C377.2,185.3,379.7,180.6,379.7,175.6z"/>
		
			<linearGradient id="SVGID_3_" gradientUnits="userSpaceOnUse" x1="346.5426" y1="621.8393" x2="379.735" y2="621.8393" gradientTransform="matrix(1 0 0 1 0 -448)">
			<stop  offset="0" style="stop-color:#3FD1FF"/>
			<stop  offset="1" style="stop-color:#FF2AEE"/>
		</linearGradient>
		<path class="st3" d="M379.7,175.6c0-8.5-7.1-16.3-16.3-16.3c-4.7,0-8.8,2-11.8,5.1c0.8,0.6,1.5,1.3,2.3,1.9
			c2.3-2.6,5.7-4.2,9.5-4.2c7.1,0,12.7,5.7,12.7,12.7c0,4.2-2,7.9-5.1,10.2c0.8,1.1,1.5,2.2,2.3,3.3
			C377.2,185.3,379.7,180.6,379.7,175.6z"/>
		<path class="st2" d="M366.2,174.9c0-1.6-1.3-2.8-2.8-2.8c-0.9,0-1.8,0.5-2.3,1.2c1.3,1.3,2.5,2.7,3.7,4.1
			C365.6,176.8,366.2,175.9,366.2,174.9z"/>
		
			<linearGradient id="SVGID_4_" gradientUnits="userSpaceOnUse" x1="360.4878" y1="622.6615" x2="365.7891" y2="622.6615" gradientTransform="matrix(1 0 0 1 0 -448)">
			<stop  offset="0" style="stop-color:#3FD1FF"/>
			<stop  offset="1" style="stop-color:#FF2AEE"/>
		</linearGradient>
		<path class="st4" d="M366.2,174.9c0-1.6-1.3-2.8-2.8-2.8c-0.9,0-1.8,0.5-2.3,1.2c1.3,1.3,2.5,2.7,3.7,4.1
			C365.6,176.8,366.2,175.9,366.2,174.9z"/>
		<path class="st5" d="M288.3,405.8c0-5.7-4.2-9.9-10.6-9.9c-1.8,0-3.4,0.5-4.9,1.3c2.2,5.4,5.3,11.5,9.6,18.1
			C285.8,413.4,288.3,409.8,288.3,405.8z"/>
		<path class="st6" d="M277.7,391.6c7.8,0,14.2,6.3,14.2,14.2c0,5.4-3,10.1-7.5,12.5c0.7,1,1.4,2,2.1,2.9c5.4-3,8.9-8.7,8.9-15.4
			c0-9.9-7.8-17.7-17.7-17.7c-2.7,0-5.2,0.6-7.5,1.6c0.3,1.1,0.7,2.3,1.1,3.5C273.2,392.2,275.3,391.6,277.7,391.6z"/>
		<path class="st6" d="M291.8,405.8c0-7.8-6.3-14.2-14.2-14.2c-2.3,0-4.5,0.6-6.4,1.6c0.4,1.3,0.9,2.6,1.5,4
			c1.5-0.8,3.2-1.3,4.9-1.3c6.4,0,10.6,4.2,10.6,9.9c0,4-2.5,7.7-6,9.5c0.6,0.9,1.1,1.7,1.7,2.6c0.1,0.2,0.2,0.3,0.3,0.4
			C288.8,415.9,291.8,411.2,291.8,405.8z"/>
		<path class="st2" d="M266.3,358.7c0-0.3,0-0.5,0-0.7c0,0,0,0,0,0C266.3,358.2,266.3,358.4,266.3,358.7z"/>
		<path class="st2" d="M277.7,423.5c-9.9,0-17.7-7.8-17.7-17.7c0-7.2,4.1-13.3,10.2-16.1c-0.1-0.3-0.2-0.6-0.3-0.9
			c-2.3-7.9-3.3-15.3-3.5-22c0,0.9,0,1.8,0,2.9c-3.5-5.7-8.5-7.1-16.3-12.7c-3.4-2.7-10.1-6.1-13.8-7.6
			c-18.2,26.2-28.6,49.4-31.6,63.6c-0.2,1-0.6,2.3-0.9,4l14.9,8.8c-2.6-3.1-4.1-7-4.1-11.4c0-9.9,7.8-17.7,17.7-17.7
			s17.7,7.8,17.7,17.7c0,9.9-7.8,17.7-17.7,17.7c-1.2,0-2.4-0.1-3.6-0.3L248,443l38.5-21.7c0,0-0.1-0.1-0.1-0.1
			C283.9,422.6,280.9,423.5,277.7,423.5z"/>
		<path class="st2" d="M267,406.5c0,5.7,5,9.9,10.6,9.9c1.6,0,3.2-0.4,4.7-1.2c-4.3-6.6-7.4-12.7-9.6-18.1
			C269.4,399,267,402.6,267,406.5z"/>
		<path class="st2" d="M260,405.8c0,9.9,7.8,17.7,17.7,17.7c3.2,0,6.2-0.8,8.8-2.3c-0.7-1-1.4-1.9-2.1-2.9c-2,1.1-4.3,1.7-6.7,1.7
			c-7.8,0-14.2-6.3-14.2-14.2c0-5.5,3.1-10.3,7.7-12.6c-0.4-1.2-0.8-2.3-1.1-3.5C264.1,392.5,260,398.6,260,405.8z"/>
		<path class="st2" d="M282.3,415.2c-1.4,0.7-3,1.2-4.7,1.2c-5.7,0-10.6-4.2-10.6-9.9c0-3.9,2.4-7.5,5.7-9.3c-0.6-1.4-1.1-2.7-1.5-4
			c-4.6,2.3-7.7,7.1-7.7,12.6c0,7.8,6.3,14.2,14.2,14.2c2.4,0,4.7-0.6,6.7-1.7c-0.1-0.2-0.2-0.3-0.3-0.4
			C283.4,416.9,282.9,416.1,282.3,415.2z"/>
		
			<ellipse transform="matrix(0.9732 -0.2298 0.2298 0.9732 -89.1264 64.4814)" class="st5" cx="232.3" cy="415" rx="10.6" ry="10.6"/>
		<path class="st6" d="M228.8,431.6l-10.1-5.9C221.2,428.7,224.7,430.8,228.8,431.6z"/>
		<path class="st6" d="M232.3,432c9.9,0,17.7-7.8,17.7-17.7c0-9.9-7.8-17.7-17.7-17.7s-17.7,7.8-17.7,17.7c0,4.4,1.5,8.4,4.1,11.4
			l10.1,5.9C229.9,431.9,231.1,432,232.3,432z M232.3,400.1c7.8,0,14.2,6.3,14.2,14.2c0,7.8-6.3,14.2-14.2,14.2
			c-7.8,0-14.2-6.3-14.2-14.2C218.2,406.4,224.5,400.1,232.3,400.1z"/>
		<path class="st6" d="M232.3,428.4c7.8,0,14.2-6.3,14.2-14.2c0-7.8-6.3-14.2-14.2-14.2c-7.8,0-14.2,6.3-14.2,14.2
			C218.2,422.1,224.5,428.4,232.3,428.4z M232.3,404.4c5.7,0,10.6,5,10.6,10.6c0,5.7-5,10.6-10.6,10.6s-10.6-5-10.6-10.6
			C221.7,409.3,226.7,404.4,232.3,404.4z"/>
		<path class="st7" d="M243.8,334.5c-3.2-1.4-6.3-3-9.4-4.7l-0.7,5.2l-29.7-12l-24.1-42.5l1.3-9.7c-2.6-2.6-5.3-5-8.2-7.2
			c4.9,38,29.7,70.3,63.2,85.8c2-2.7,2.4-4.5,3.8-6.5C240.7,342.1,243.1,336.1,243.8,334.5z"/>
		<path class="st7" d="M175.7,228.7l13.2-14.6c-3.3-1.2-6.4-2.7-9.3-4.6c-3.5,8.9-5.8,18.3-6.8,28.2c1.3,0.2,2.6,0.3,3.9,0.5
			L175.7,228.7z"/>
		<path class="st7" d="M360.5,174.9c0,1.6,1.3,2.8,2.8,2.8c0.5,0,1-0.2,1.5-0.4c-1.2-1.4-2.5-2.8-3.7-4.1
			C360.7,173.7,360.5,174.2,360.5,174.9z"/>
		<path class="st7" d="M267.6,342.4c-0.6,4.1-1.2,9.3-1.2,14.5c0,0.4,0,0.7,0,1c0,0,0,0,0,0c0.3-6.2,1.2-11.4,2.1-15.2
			C268.2,342.6,267.9,342.5,267.6,342.4z"/>
		<path class="st7" d="M281.2,290.3c2.8-14.2-2.1-29-13.5-36.1c-14.2-9.2-34.7-5-46,10.6c5.7,5.7,16.3,16.3,34,22
			C265.6,290.3,274.8,290.3,281.2,290.3z M262.8,257c4.2,0,7.8,3.5,7.8,7.8c0,4.2-3.5,7.8-7.8,7.8c-4.2,0-7.8-3.5-7.8-7.8
			C255,260.6,258.5,257,262.8,257z"/>
		<path class="st7" d="M262.8,270.5c3.5,0,5.7-2.8,5.7-5.7s-2.1-5.7-5.7-5.7c-3.5,0-5.7,2.8-5.7,5.7
			C257.1,268.4,260,270.5,262.8,270.5z M262.8,263.4c0.8,0,1.4,0.6,1.4,1.4c0,0.8-0.6,1.4-1.4,1.4c-0.8,0-1.4-0.6-1.4-1.4
			C261.4,264,262,263.4,262.8,263.4z"/>
		<path class="st7" d="M330.8,270.5c2.8,0,5.7-2.8,5.7-5.7s-2.1-5.7-5.7-5.7c-3.5,0-5.7,2.8-5.7,5.7S328,270.5,330.8,270.5z
			 M330.8,263.4c0.8,0,1.4,0.6,1.4,1.4c0,0.8-0.6,1.4-1.4,1.4s-1.4-0.6-1.4-1.4C329.4,264,330,263.4,330.8,263.4z"/>
		<path class="st7" d="M332.2,288.2c12.7-5,19.8-15.6,23.4-20.5c-8.5-16.3-24.1-21.2-34-12.7c-7.8,7.1-10.6,21.2-7.8,35.4
			C318,291,325.1,291,332.2,288.2z M330.8,257c4.2,0,7.8,3.5,7.8,7.8c0,4.2-3.5,7.8-7.8,7.8c-4.2,0-7.8-3.5-7.8-7.8
			C323,260.6,326.5,257,330.8,257z"/>
		<path class="st7" d="M276.3,309.4c-0.7,2.8,0,5.7,2.8,8.5c1.4,2.1,4.2,4.2,7.1,5c6.4,1.4,12.7-1.4,15.6-6.4
			c-5,2.8-9.9,4.2-14.9,2.8C282.6,318.6,278.4,314.4,276.3,309.4z"/>
		<path class="st7" d="M192.3,241.6c1.4-8.9,4.1-17.4,8-25.1c-4-0.3-7.8-1.1-11.4-2.4l-13.2,14.6l0.9,9.5c3.3,0.5,6.5,1,9.7,1.8
			C188.3,240.5,190.3,241,192.3,241.6z"/>
		<path class="st7" d="M194.2,277.1c-0.8,1.4-1.8,2.7-2.9,4l-0.7,1.4l-0.7-1.4c-2.6-3.7-5.5-7.2-8.6-10.4l-1.3,9.7l24.1,42.5
			l29.7,12l0.7-5.2C214.8,318.4,200.1,299.5,194.2,277.1z"/>
		<path class="st7" d="M185.6,240c-1.8-0.2-3.8-0.4-5.7-0.5c3,0.4,5.8,0.9,8.5,1.4C187.4,240.7,186.5,240.4,185.6,240z"/>
		<path class="st7" d="M363.4,203.2c0.2,0,0.4,0,0.6,0l-15.5-9.2L335,174.8c0,0,0,0,0,0C335,190.5,347.7,203.2,363.4,203.2z"/>
		<path class="st7" d="M379.2,198.4c-1.8-3.4-3.8-6.8-5.9-10c-0.7-1.1-1.5-2.2-2.3-3.3c-1.9-2.7-4-5.3-6.2-7.8
			c-0.4,0.3-0.9,0.4-1.5,0.4c-1.6,0-2.8-1.3-2.8-2.8c0-0.6,0.2-1.2,0.6-1.7c-2.3-2.4-4.7-4.7-7.2-6.9c-0.7-0.6-1.5-1.3-2.3-1.9
			c-3.2-2.7-6.7-5.2-10.2-7.5c-17.1-11.1-37.6-17.5-59.5-17.5c-14,0-27.4,2.6-39.7,7.4c1.9,3,3.5,6.3,4.7,9.7
			c1.6,4.6,2.5,9.6,2.5,14.7c0,0.7,0,1.3,0,2c-1,24.1-20.9,43.4-45.3,43.4c-1.3,0-2.5-0.1-3.7-0.2c-3.9,7.8-6.6,16.2-8,25.1
			c1.7,0.5,3.4,1.1,5.1,1.9c2.4,0.9,4.2,1.9,5.2,2.9c1.1,1.7-1.2,10.6-3.7,18.2c-1,4.5-2.5,8.7-4.8,12.5
			c5.9,22.4,20.7,41.3,40.3,52.6l3.5-26l-23.4-40.4h0.7l32.6-36.1v-2.1l15.6,21.2h61.6l14.9-20.5l17,38.2l6.1,3.8
			c-6.3,41.5-42.1,73.4-85.4,73.4c-5.7,0-11.2-0.6-16.6-1.6c2.5,0.8,4.8,1.4,6.7,1.6c-0.1,0.4-0.1,0.7-0.2,1.1
			c0.3,0.1,0.6,0.2,0.9,0.3c-0.9,3.8-1.8,9-2.1,15.2c5.1,0.7,10.3,1.1,15.5,1.1c60.6,0,109.8-49.2,109.8-109.8
			C391.7,230.9,387.2,213.6,379.2,198.4z M363.4,203.2c-15.6,0-28.3-12.7-28.3-28.3c0,0,0,0,0,0l13.5,19.2l15.5,9.2
			C363.8,203.2,363.6,203.2,363.4,203.2z"/>
		<path class="st7" d="M330.8,272.6c4.2,0,7.8-3.5,7.8-7.8c0-4.2-3.5-7.8-7.8-7.8c-4.2,0-7.8,3.5-7.8,7.8
			C323,269.1,326.5,272.6,330.8,272.6z M330.8,259.2c3.5,0,5.7,2.8,5.7,5.7s-2.8,5.7-5.7,5.7s-5.7-2.8-5.7-5.7
			S327.2,259.2,330.8,259.2z"/>
		
			<linearGradient id="SVGID_5_" gradientUnits="userSpaceOnUse" x1="330.7872" y1="720.5411" x2="330.7872" y2="705.3239" gradientTransform="matrix(1 0 0 1 0 -448)">
			<stop  offset="0" style="stop-color:#3FD1FF"/>
			<stop  offset="1" style="stop-color:#FF2AEE"/>
		</linearGradient>
		<path class="st8" d="M330.8,272.6c4.2,0,7.8-3.5,7.8-7.8c0-4.2-3.5-7.8-7.8-7.8c-4.2,0-7.8,3.5-7.8,7.8
			C323,269.1,326.5,272.6,330.8,272.6z M330.8,259.2c3.5,0,5.7,2.8,5.7,5.7s-2.8,5.7-5.7,5.7s-5.7-2.8-5.7-5.7
			S327.2,259.2,330.8,259.2z"/>
		<path class="st7" d="M330.8,266.2c0.8,0,1.4-0.6,1.4-1.4c0-0.8-0.6-1.4-1.4-1.4s-1.4,0.6-1.4,1.4
			C329.4,265.6,330,266.2,330.8,266.2z"/>
		
			<linearGradient id="SVGID_6_" gradientUnits="userSpaceOnUse" x1="330.7871" y1="714.076" x2="330.7871" y2="711.6466" gradientTransform="matrix(1 0 0 1 0 -448)">
			<stop  offset="0" style="stop-color:#3FD1FF"/>
			<stop  offset="1" style="stop-color:#FF2AEE"/>
		</linearGradient>
		<path class="st9" d="M330.8,266.2c0.8,0,1.4-0.6,1.4-1.4c0-0.8-0.6-1.4-1.4-1.4s-1.4,0.6-1.4,1.4
			C329.4,265.6,330,266.2,330.8,266.2z"/>
		<path class="st7" d="M262.8,272.6c4.2,0,7.8-3.5,7.8-7.8c0-4.2-3.5-7.8-7.8-7.8c-4.2,0-7.8,3.5-7.8,7.8
			C255,269.1,258.5,272.6,262.8,272.6z M262.8,259.2c3.5,0,5.7,2.8,5.7,5.7s-2.1,5.7-5.7,5.7c-2.8,0-5.7-2.1-5.7-5.7
			C257.1,262,259.3,259.2,262.8,259.2z"/>
		
			<linearGradient id="SVGID_7_" gradientUnits="userSpaceOnUse" x1="262.7932" y1="720.6288" x2="262.7932" y2="705.4188" gradientTransform="matrix(1 0 0 1 0 -448)">
			<stop  offset="0" style="stop-color:#3FD1FF"/>
			<stop  offset="1" style="stop-color:#FF2AEE"/>
		</linearGradient>
		<path class="st10" d="M262.8,272.6c4.2,0,7.8-3.5,7.8-7.8c0-4.2-3.5-7.8-7.8-7.8c-4.2,0-7.8,3.5-7.8,7.8
			C255,269.1,258.5,272.6,262.8,272.6z M262.8,259.2c3.5,0,5.7,2.8,5.7,5.7s-2.1,5.7-5.7,5.7c-2.8,0-5.7-2.1-5.7-5.7
			C257.1,262,259.3,259.2,262.8,259.2z"/>
		<path class="st7" d="M262.8,266.2c0.8,0,1.4-0.6,1.4-1.4c0-0.8-0.6-1.4-1.4-1.4c-0.8,0-1.4,0.6-1.4,1.4
			C261.4,265.6,262,266.2,262.8,266.2z"/>
		
			<linearGradient id="SVGID_8_" gradientUnits="userSpaceOnUse" x1="262.7932" y1="714.1666" x2="262.7932" y2="711.7372" gradientTransform="matrix(1 0 0 1 0 -448)">
			<stop  offset="0" style="stop-color:#3FD1FF"/>
			<stop  offset="1" style="stop-color:#FF2AEE"/>
		</linearGradient>
		<path class="st11" d="M262.8,266.2c0.8,0,1.4-0.6,1.4-1.4c0-0.8-0.6-1.4-1.4-1.4c-0.8,0-1.4,0.6-1.4,1.4
			C261.4,265.6,262,266.2,262.8,266.2z"/>
		<path class="st2" d="M198.3,171.3c0-3.1,2.5-5.7,5.7-5.7c1.8,0,3.3,0.8,4.4,2.1c5.3-4.8,11.1-9.1,17.2-12.7
			c-4.8-6.4-12.5-10.6-21.6-10.6c-14.9,0-26.9,12-26.9,26.9c0,8.8,4.2,16.5,10.7,21.5c3.7-6.1,7.9-11.8,12.7-17.1
			C199.1,174.7,198.3,173.1,198.3,171.3z"/>
		<path class="st2" d="M169.3,171.3c0-19.1,15.6-34.7,34.7-34.7c11.7,0,22,5.8,28.3,14.7c3.2-1.6,6.5-3.1,9.9-4.4
			C234.1,134.3,220,126,204,126c-25,0-45.3,20.3-45.3,45.3c0,16,8.3,30.1,20.9,38.2c1.3-3.4,2.8-6.7,4.4-9.9
			C175.1,193.3,169.3,183,169.3,171.3z"/>
		<path class="st2" d="M210.4,191.9l1.4-10.6l18.9-13.3c-0.6-4.8-2.4-9.3-5.1-13c-6.2,3.7-11.9,8-17.2,12.7c0.8,1,1.3,2.2,1.3,3.6
			c0,3.1-2.5,5.7-5.7,5.7c-1.4,0-2.6-0.5-3.6-1.3c-4.7,5.3-9,11-12.7,17.1c4.3,3.3,9.7,5.3,15.5,5.4l5.7-6.4H210.4z"/>
		<path class="st2" d="M196.8,205.3c-4.7-1-9.1-3-12.9-5.7c-1.6,3.2-3.1,6.5-4.4,9.9c2.9,1.9,6,3.4,9.3,4.6L196.8,205.3z"/>
		<path class="st2" d="M237.7,163.1l9.2-6.4c-1.2-3.5-2.8-6.7-4.7-9.7c-3.4,1.3-6.7,2.8-9.9,4.4
			C234.8,154.8,236.7,158.8,237.7,163.1z"/>
		<path class="st2" d="M227.4,184.6c2.2-3.9,3.5-8.5,3.5-13.3c0-1.1-0.1-2.3-0.2-3.4l-18.9,13.3l-1.4,10.6H209l-5.7,6.4
			c0.3,0,0.5,0,0.8,0c3.6,0,7.1-0.7,10.3-2C218.2,191.9,222.6,188.1,227.4,184.6z"/>
		<path class="st2" d="M238,178.1c3.6-1.9,7.4-3.5,11.2-4.8c0-0.7,0-1.3,0-2c0-5.1-0.9-10.1-2.5-14.7l-9.2,6.4c0.7,2.7,1,5.4,1,8.3
			C238.7,173.7,238.5,175.9,238,178.1z"/>
		<path class="st2" d="M206.5,205.9c-0.8,0.1-1.6,0.1-2.5,0.1c-2.5,0-4.9-0.3-7.2-0.8l-7.9,8.8c3.6,1.3,7.4,2.1,11.4,2.4
			C202.1,212.8,204.2,209.3,206.5,205.9z"/>
		<path class="st2" d="M206.5,205.9c-2.3,3.4-4.4,6.9-6.2,10.6c1.2,0.1,2.5,0.2,3.7,0.2c24.4,0,44.3-19.2,45.3-43.4
			c-3.9,1.4-7.6,3-11.2,4.8C235,193.2,222.2,204.8,206.5,205.9z"/>
		<path class="st2" d="M227.4,184.6c-4.8,3.4-9.2,7.3-13.1,11.6C219.8,193.9,224.4,189.8,227.4,184.6z"/>
		<path class="st2" d="M177.1,171.3c0-14.9,12-26.9,26.9-26.9c9.1,0,16.8,4.1,21.6,10.6c2.2-1.3,4.4-2.5,6.7-3.7
			c-6.3-8.9-16.6-14.7-28.3-14.7c-19.1,0-34.7,15.6-34.7,34.7c0,11.7,5.8,22,14.7,28.3c1.2-2.3,2.4-4.6,3.8-6.8
			C181.3,187.9,177.1,180.1,177.1,171.3z"/>
		<path class="st2" d="M187.8,192.8c-1.3,2.2-2.6,4.5-3.8,6.8c3.8,2.7,8.2,4.7,12.9,5.7l6.4-7.1
			C197.4,198.1,192.1,196.1,187.8,192.8z"/>
		<path class="st2" d="M230.7,168l7-4.9c-1.1-4.3-2.9-8.3-5.4-11.8c-2.3,1.2-4.5,2.4-6.7,3.7C228.4,158.7,230.1,163.1,230.7,168z"/>
		<path class="st2" d="M206.5,205.9c2.4-3.4,5-6.7,7.8-9.7c-3.2,1.3-6.6,2-10.3,2c-0.3,0-0.5,0-0.8,0l-6.4,7.1
			c2.3,0.5,4.7,0.8,7.2,0.8C204.8,206,205.7,206,206.5,205.9z"/>
		<path class="st2" d="M230.9,171.3c0,4.8-1.3,9.4-3.5,13.3c3.4-2.4,6.9-4.6,10.6-6.5c0.4-2.2,0.7-4.5,0.7-6.8c0-2.8-0.4-5.6-1-8.3
			l-7,4.9C230.8,169.1,230.9,170.2,230.9,171.3z"/>
		<path class="st2" d="M238,178.1c-3.7,1.9-7.3,4.1-10.6,6.5c-3,5.2-7.6,9.3-13.1,11.6c-2.8,3-5.4,6.3-7.8,9.7
			C222.2,204.8,235,193.2,238,178.1z"/>
		<linearGradient id="SVGID_9_" gradientUnits="userSpaceOnUse" x1="88.6091" y1="171.3293" x2="240.6618" y2="171.3293">
			<stop  offset="0" style="stop-color:#3FD1FF"/>
			<stop  offset="0.11" style="stop-color:#45CCFE"/>
			<stop  offset="0.2608" style="stop-color:#57BCFD"/>
			<stop  offset="0.4353" style="stop-color:#74A3FA"/>
			<stop  offset="0.6276" style="stop-color:#9C80F7"/>
			<stop  offset="0.832" style="stop-color:#CF53F2"/>
			<stop  offset="1" style="stop-color:#FF2AEE"/>
		</linearGradient>
		<path class="st12" d="M237.7,163.1c-1.1-4.3-2.9-8.3-5.4-11.8c-6.3-8.9-16.6-14.7-28.3-14.7c-19.1,0-34.7,15.6-34.7,34.7
			c0,11.7,5.8,22,14.7,28.3c3.8,2.7,8.2,4.7,12.9,5.7c2.3,0.5,4.7,0.8,7.2,0.8c0.8,0,1.7,0,2.5-0.1c15.7-1.1,28.5-12.7,31.6-27.8
			c0.4-2.2,0.7-4.5,0.7-6.8C238.7,168.5,238.4,165.7,237.7,163.1z M227.4,184.6c-3,5.2-7.6,9.3-13.1,11.6c-3.2,1.3-6.6,2-10.3,2
			c-0.3,0-0.5,0-0.8,0c-5.8-0.2-11.1-2.2-15.5-5.4c-6.5-4.9-10.7-12.7-10.7-21.5c0-14.9,12-26.9,26.9-26.9c9.1,0,16.8,4.1,21.6,10.6
			c2.7,3.7,4.5,8.1,5.1,13c0.1,1.1,0.2,2.2,0.2,3.4C230.9,176.2,229.6,180.7,227.4,184.6z"/>
		<path class="st2" d="M204,165.7c-3.1,0-5.7,2.5-5.7,5.7c0,1.8,0.8,3.3,2.1,4.4c2.5-2.8,5.2-5.5,8-8
			C207.3,166.5,205.8,165.7,204,165.7z"/>
		<path class="st2" d="M200.4,175.7c1,0.8,2.2,1.3,3.6,1.3c3.1,0,5.7-2.5,5.7-5.7c0-1.4-0.5-2.6-1.3-3.6
			C205.6,170.2,202.9,172.9,200.4,175.7z"/>
		<linearGradient id="SVGID_10_" gradientUnits="userSpaceOnUse" x1="196.4537" y1="171.3293" x2="209.9649" y2="171.3293">
			<stop  offset="0" style="stop-color:#3FD1FF"/>
			<stop  offset="1" style="stop-color:#FF2AEE"/>
		</linearGradient>
		<path class="st13" d="M208.4,167.7c-1-1.3-2.6-2.1-4.4-2.1c-3.1,0-5.7,2.5-5.7,5.7c0,1.8,0.8,3.3,2.1,4.4c1,0.8,2.2,1.3,3.6,1.3
			c3.1,0,5.7-2.5,5.7-5.7C209.7,170,209.2,168.7,208.4,167.7z"/>
		<path class="st14" d="M181.7,264.8c0.1,0.1,0.2,0.3,0.3,0.4l0.1-0.4H181.7z"/>
		<path class="st14" d="M202.6,246.4c-1-1-2.8-2-5.2-2.9c1.4,0.6,2.7,1.3,4,2.1C201.8,245.9,202.2,246.1,202.6,246.4z"/>
		<path class="st14" d="M202.8,248.5c-0.1,2.4-1.1,4.9-1.6,7.1c-0.7,2.8-1.4,5.7-2.1,8.5c0,0.2-0.1,0.3-0.1,0.5
			c2.4-7.6,4.8-16.5,3.7-18.2C202.8,247.1,202.8,247.8,202.8,248.5z"/>
		<path class="st14" d="M202.6,246.4c-0.4-0.3-0.8-0.5-1.2-0.8c-2.8-1.7-6-2.7-9.2-3.6c-1.3-0.4-2.6-0.7-3.8-1.1
			c-2.7-0.6-5.5-1-8.5-1.4c-1-0.1-2.1-0.1-3.1-0.1c-1.4,0-2.8-0.1-4.1-0.1c-1.6,0-3.2,0-4.7,0c-5.7,0.7-11.3,1.4-17,2.8
			c-1.4,0.7-2.8,0.7-4.2,1.4c7.8,2.1,14.9,5,21.2,9.2c1.6,1,3,2.1,4.5,3.2c2.4,1.8,4.5,3.8,6.6,5.9c0.9,1,1.9,2,2.7,3h0.4l-0.1,0.4
			c3.2,3.8,6,7.9,8.6,12.4c1.1-1.1,2-2.3,2.9-3.6c2-3,3.5-6.4,4.9-9.9c0.7-2.8,2.1-5.7,2.8-8.5c0.5-2.7,1.5-4.9,1.6-7.1
			C202.8,247.8,202.8,247.1,202.6,246.4z"/>
		<path class="st5" d="M176.7,239.2l-0.1-1c-1.3-0.2-2.6-0.4-3.9-0.5c0,0.4-0.1,0.8-0.1,1.2C174,238.9,175.3,239.1,176.7,239.2z"/>
		<path class="st5" d="M197.4,243.5c-1.7-0.7-3.4-1.3-5.1-1.9c0,0.1,0,0.2,0,0.2C194.1,242.4,195.9,242.9,197.4,243.5z"/>
		<path class="st5" d="M193.9,276.1c0.1,0.3,0.2,0.7,0.3,1c2.3-3.8,3.7-8,4.8-12.5c-0.7,2.2-1.4,4.2-2,5.9
			C196,272.7,194.9,274.6,193.9,276.1z"/>
		<path class="st5" d="M192.2,241.9c-1.2-0.3-2.5-0.6-3.9-0.9c1.3,0.4,2.6,0.7,3.8,1.1C192.2,242,192.2,241.9,192.2,241.9z"/>
		<path class="st5" d="M202.6,246.4c0.2,0.7,0.2,1.4,0.2,2.1C202.8,247.8,202.8,247.1,202.6,246.4z"/>
		<path class="st5" d="M192.2,242.1c3.2,0.9,6.4,1.9,9.2,3.6c-1.3-0.8-2.7-1.5-4-2.1c-1.5-0.6-3.2-1.1-5.1-1.6
			C192.2,241.9,192.2,242,192.2,242.1z"/>
		<path class="st5" d="M202.6,246.4c-0.4-0.3-0.8-0.5-1.2-0.8C201.8,245.9,202.2,246.1,202.6,246.4z"/>
		<path class="st5" d="M202.8,248.5c-0.1,2.2-1.1,4.4-1.6,7.1C201.7,253.5,202.7,250.9,202.8,248.5z"/>
		<path class="st5" d="M198.3,264.1c-1.5,3.5-3,6.9-4.9,9.9c-0.9,1.3-1.8,2.5-2.9,3.6c-2.5-4.4-5.3-8.6-8.6-12.4
			c-0.1-0.1-0.2-0.3-0.3-0.4c-0.9-1-1.8-2-2.7-3c-2-2.1-4.2-4.1-6.6-5.9c-1.4-1.1-2.9-2.2-4.5-3.2c-6.4-4.2-13.5-7.1-21.2-9.2
			c1.4-0.7,2.8-0.7,4.2-1.4c5.7-1.4,11.3-2.1,17-2.8c1.5,0,3.1,0,4.7,0c1.4,0,2.8,0,4.1,0.1c1.1,0,2.1,0.1,3.1,0.1
			c1.9,0.1,3.3,1.2,5.1,1.5c0.9,0.3,2.4-0.3,3.4,0c1.3,0.3,2.6,0.6,3.9,0.9c0-0.1,0-0.2,0-0.2c-2-0.6-4-1.1-6-1.6
			c-3.2-0.8-6.4-1.4-9.7-1.8l0.1,1c-1.4-0.1-2.7-0.2-4.1-0.3c0-0.4,0.1-0.8,0.1-1.2c-1.4-0.2-2.7-0.3-4.1-0.5
			c-6.4-0.7-12,0-18.4,0.7c-6.4,0.7-12,2.1-17.7,5l-10.6,5.7l12.7,0.7c13.9,0.4,27.3,5.8,38.5,14.3c2.9,2.2,5.6,4.6,8.2,7.2
			c3.1,3.2,6,6.7,8.6,10.4l0.7,1.4l0.7-1.4c1.1-1.3,2.1-2.6,2.9-4c-0.1-0.3-0.2-0.7-0.3-1c1-1.6,2.1-3.5,3-5.6
			c0.6-1.7,1.3-3.8,2-5.9c0-0.2,0.1-0.3,0.1-0.5c0.7-2.8,1.4-5.7,2.1-8.5C200.5,258.4,199,261.3,198.3,264.1z"/>
		<path class="st5" d="M266.3,366.8c0-2.3,0-4.5,0-8.1C266.2,361.2,266.2,363.9,266.3,366.8z"/>
		<path class="st5" d="M260.9,339.7c0.1,0,0.1,0,0.2,0c-0.1,0-0.2-0.1-0.4-0.1C260.8,339.6,260.8,339.6,260.9,339.7z"/>
		<path class="st5" d="M357,264.1l-17-38.2l-14.9,20.5h-61.6l-15.6-21.2v2.1l-32.6,36.1h-0.7l23.4,40.4l-3.5,26
			c3,1.7,6.1,3.3,9.4,4.7c-0.7,1.7-3.1,7.7-3.7,8.3c-1.4,2.1-1.8,3.8-3.8,6.4c0,0,0,0,0,0c0,0-0.1,0.1-0.1,0.1
			c3.7,1.5,10.3,4.9,13.8,7.6c7.8,5.7,12.7,7.1,16.3,12.7c0-1.1,0-2,0-2.9c-0.1-2.8-0.1-5.6,0-8.1c0-0.2,0-0.5,0-0.8
			c0-0.3,0-0.7,0-1c0-5.2,0.6-10.4,1.2-14.5c0-0.2,0.6-1,1-1.6c3,0.3,6,0.5,9.1,0.5c43.3,0,79.1-31.8,85.4-73.4L357,264.1z
			 M221.7,264.8c11.3-15.6,31.9-19.8,46-10.6c11.3,7.1,16.3,22,13.5,36.1c-6.4,0-15.6,0-25.5-3.5C238,281.1,227.4,270.5,221.7,264.8
			z M286.2,322.9c-2.8-0.7-5.7-2.8-7.1-5c-2.8-2.8-3.5-5.7-2.8-8.5c2.1,5,6.4,9.2,10.6,9.9c5,1.4,9.9,0,14.9-2.8
			C298.9,321.5,292.5,324.3,286.2,322.9z M332.2,288.2c-7.1,2.8-14.2,2.8-18.4,2.1c-2.8-14.2,0-28.3,7.8-35.4
			c9.9-8.5,25.5-3.5,34,12.7C352,272.6,345,283.2,332.2,288.2z"/>
	</g>
</g>
</svg>
